{"glyphs":{"0":{"ha":888,"x_min":76,"x_max":811,"o":"m 444 -14 q 166 103 256 -14 q 76 431 76 219 q 161 788 76 667 q 444 908 246 908 q 726 788 642 908 q 811 431 811 667 q 722 103 811 219 q 444 -14 632 -14 m 444 51 q 666 153 596 51 q 736 431 736 254 q 669 740 736 638 q 444 842 603 842 q 218 740 285 842 q 151 431 151 638 q 222 153 151 254 q 444 51 292 51 z "},"1":{"ha":397,"x_min":76,"x_max":293,"o":"m 217 833 l 76 810 l 76 874 l 293 908 l 293 0 l 217 0 l 217 833 z "},"2":{"ha":693,"x_min":76,"x_max":617,"o":"m 76 47 q 170 201 107 129 q 329 353 233 272 q 453 469 411 424 q 513 558 494 514 q 532 660 532 603 q 317 842 532 842 q 111 804 210 842 l 111 874 q 213 899 154 889 q 322 908 271 908 q 533 843 460 908 q 607 660 607 778 q 583 541 607 593 q 519 445 560 489 q 408 338 479 401 l 376 308 q 243 182 293 236 q 165 61 193 128 l 617 61 l 617 0 l 76 0 l 76 47 z "},"3":{"ha":703,"x_min":76,"x_max":626,"o":"m 303 -14 q 178 -4 242 -14 q 76 21 115 6 l 76 89 q 296 51 179 51 q 489 97 426 51 q 551 242 551 143 q 492 378 551 333 q 324 424 433 424 l 201 424 l 210 483 l 313 483 q 476 533 421 483 q 531 672 531 582 q 475 800 531 758 q 301 842 419 842 q 93 804 194 842 l 93 872 q 190 898 129 888 q 308 908 251 908 q 532 845 458 908 q 606 672 606 782 q 565 535 606 596 q 444 456 525 475 q 581 379 536 436 q 626 242 626 322 q 542 51 626 115 q 303 -14 457 -14 z "},"4":{"ha":744,"x_min":49,"x_max":696,"o":"m 522 215 l 49 215 l 49 281 l 528 894 l 599 894 l 599 279 l 696 279 l 696 215 l 599 215 l 599 0 l 522 0 l 522 215 m 529 278 l 529 800 l 122 278 l 529 278 z "},"5":{"ha":703,"x_min":76,"x_max":626,"o":"m 307 -14 q 181 -5 243 -14 q 81 21 118 4 l 81 90 q 301 51 182 51 q 551 263 551 51 q 503 415 551 367 q 329 463 454 463 l 76 463 l 76 528 l 100 894 l 560 894 l 551 832 l 163 832 l 143 525 l 328 525 q 556 461 485 525 q 626 263 626 397 q 544 58 626 131 q 307 -14 461 -14 z "},"6":{"ha":779,"x_min":76,"x_max":703,"o":"m 390 -14 q 155 67 233 -14 q 76 321 76 147 l 76 542 q 118 735 76 651 q 238 863 160 818 q 419 908 315 908 q 619 881 533 908 l 619 814 q 422 842 540 842 q 219 764 288 842 q 150 554 150 686 l 150 474 q 276 537 207 515 q 404 558 344 558 q 628 486 553 558 q 703 274 703 414 q 622 63 703 140 q 390 -14 542 -14 m 389 49 q 569 108 508 49 q 631 272 631 168 q 578 440 631 383 q 397 497 525 497 q 266 474 331 497 q 150 413 201 451 l 150 292 q 389 49 150 49 z "},"7":{"ha":688,"x_min":63,"x_max":625,"o":"m 549 832 l 63 832 l 63 894 l 625 894 l 625 832 l 274 0 l 197 0 l 549 832 z "},"8":{"ha":799,"x_min":76,"x_max":722,"o":"m 399 -14 q 160 49 243 -14 q 76 231 76 111 q 124 378 76 317 q 261 463 172 440 q 141 538 181 483 q 101 664 101 593 q 178 843 101 778 q 399 908 254 908 q 621 844 546 908 q 696 664 696 779 q 528 447 696 501 q 676 372 629 425 q 722 231 722 318 q 639 49 722 111 q 399 -14 556 -14 m 439 472 q 583 539 539 496 q 626 664 626 582 q 568 799 626 751 q 399 846 510 846 q 231 799 289 846 q 172 664 172 753 q 211 553 172 597 q 326 494 250 510 l 439 472 m 399 49 q 651 231 651 49 q 608 348 651 310 q 467 407 564 386 l 340 433 q 196 367 246 414 q 146 232 146 319 q 210 94 146 140 q 399 49 274 49 z "},"9":{"ha":779,"x_min":76,"x_max":703,"o":"m 363 -14 q 160 13 239 -14 l 160 81 q 360 51 238 51 q 562 130 494 51 q 629 339 629 208 l 629 417 q 507 353 572 374 q 376 332 442 332 q 152 405 228 332 q 76 617 76 478 q 158 830 76 751 q 392 908 239 908 q 626 828 549 908 q 703 572 703 747 l 703 353 q 662 159 703 242 q 544 31 621 76 q 363 -14 467 -14 m 383 393 q 515 416 453 393 q 629 478 578 439 l 629 603 q 393 846 629 846 q 209 785 272 846 q 146 618 146 724 q 200 451 146 508 q 383 393 254 393 z "},"\r":{"ha":556,"x_min":0,"x_max":0,"o":""}," ":{"ha":542,"x_min":0,"x_max":0,"o":""},"A":{"ha":926,"x_min":76,"x_max":850,"o":"m 415 894 l 513 894 l 850 0 l 772 0 l 674 261 l 254 261 l 156 0 l 76 0 l 415 894 m 656 324 l 463 833 l 271 324 l 656 324 z "},"Á":{"ha":926,"x_min":76,"x_max":850,"o":"m 510 1175 l 582 1175 l 479 956 l 417 956 l 510 1175 m 415 894 l 513 894 l 850 0 l 772 0 l 674 261 l 254 261 l 156 0 l 76 0 l 415 894 m 656 324 l 463 833 l 271 324 l 656 324 z "},"Ă":{"ha":926,"x_min":76,"x_max":850,"o":"m 463 954 q 351 997 393 954 q 308 1108 308 1040 l 367 1108 q 393 1035 367 1061 q 463 1008 419 1008 q 533 1035 507 1008 q 560 1108 560 1061 l 618 1108 q 576 997 618 1040 q 463 954 533 954 m 415 894 l 513 894 l 850 0 l 772 0 l 674 261 l 254 261 l 156 0 l 76 0 l 415 894 m 656 324 l 463 833 l 271 324 l 656 324 z "},"Ắ":{"ha":926,"x_min":76,"x_max":850,"o":"m 503 1254 l 568 1254 l 476 1092 l 419 1092 l 503 1254 m 464 956 q 325 1000 379 956 q 271 1139 271 1044 l 325 1139 q 363 1039 325 1072 q 464 1006 400 1006 q 565 1039 528 1006 q 603 1139 603 1072 l 656 1139 q 601 1000 656 1044 q 464 956 547 956 m 415 894 l 513 894 l 850 0 l 772 0 l 674 261 l 254 261 l 156 0 l 76 0 l 415 894 m 656 324 l 463 833 l 271 324 l 656 324 z "},"Ặ":{"ha":926,"x_min":76,"x_max":850,"o":"m 463 954 q 351 997 393 954 q 308 1108 308 1040 l 367 1108 q 393 1035 367 1061 q 463 1008 419 1008 q 533 1035 507 1008 q 560 1108 560 1061 l 618 1108 q 576 997 618 1040 q 463 954 533 954 m 415 894 l 513 894 l 850 0 l 772 0 l 674 261 l 254 261 l 156 0 l 76 0 l 415 894 m 656 324 l 463 833 l 271 324 l 656 324 m 422 -132 l 504 -132 l 504 -211 l 422 -211 l 422 -132 z "},"Ằ":{"ha":926,"x_min":76,"x_max":850,"o":"m 360 1254 l 425 1254 l 507 1092 l 451 1092 l 360 1254 m 464 956 q 325 1000 379 956 q 271 1139 271 1044 l 325 1139 q 363 1039 325 1072 q 464 1006 400 1006 q 565 1039 528 1006 q 603 1139 603 1072 l 656 1139 q 601 1000 656 1044 q 464 956 547 956 m 415 894 l 513 894 l 850 0 l 772 0 l 674 261 l 254 261 l 156 0 l 76 0 l 415 894 m 656 324 l 463 833 l 271 324 l 656 324 z "},"Ẳ":{"ha":926,"x_min":76,"x_max":850,"o":"m 415 1157 q 507 1175 483 1160 q 531 1222 531 1190 q 456 1281 531 1281 q 374 1263 414 1281 l 374 1308 q 467 1325 417 1325 q 556 1299 524 1325 q 588 1226 588 1274 q 562 1158 588 1182 q 476 1126 536 1135 l 476 1078 l 415 1078 l 415 1157 m 464 956 q 325 1000 379 956 q 271 1139 271 1044 l 325 1139 q 363 1039 325 1072 q 464 1006 400 1006 q 565 1039 528 1006 q 603 1139 603 1072 l 656 1139 q 601 1000 656 1044 q 464 956 547 956 m 415 894 l 513 894 l 850 0 l 772 0 l 674 261 l 254 261 l 156 0 l 76 0 l 415 894 m 656 324 l 463 833 l 271 324 l 656 324 z "},"Ẵ":{"ha":926,"x_min":76,"x_max":850,"o":"m 549 1178 q 505 1184 525 1178 q 456 1203 485 1190 q 414 1219 431 1214 q 381 1225 397 1225 q 324 1215 349 1225 q 276 1181 299 1206 l 276 1240 q 321 1268 293 1258 q 378 1278 349 1278 q 422 1272 401 1278 q 468 1253 443 1265 q 510 1236 493 1242 q 547 1231 528 1231 q 603 1241 579 1231 q 647 1276 628 1251 l 647 1215 q 607 1188 633 1197 q 549 1178 581 1178 m 463 956 q 324 1000 378 956 q 269 1139 269 1044 l 324 1139 q 361 1039 324 1072 q 463 1006 399 1006 q 564 1039 526 1006 q 601 1139 601 1072 l 654 1139 q 600 1000 654 1044 q 463 956 546 956 m 415 894 l 513 894 l 850 0 l 772 0 l 674 261 l 254 261 l 156 0 l 76 0 l 415 894 m 656 324 l 463 833 l 271 324 l 656 324 z "},"Ǎ":{"ha":926,"x_min":76,"x_max":850,"o":"m 283 1143 l 353 1143 l 463 1000 l 572 1143 l 642 1143 l 496 956 l 429 956 l 283 1143 m 415 894 l 513 894 l 850 0 l 772 0 l 674 261 l 254 261 l 156 0 l 76 0 l 415 894 m 656 324 l 463 833 l 271 324 l 656 324 z "},"Â":{"ha":926,"x_min":76,"x_max":850,"o":"m 429 1142 l 496 1142 l 642 954 l 572 954 l 463 1097 l 353 954 l 283 954 l 429 1142 m 415 894 l 513 894 l 850 0 l 772 0 l 674 261 l 254 261 l 156 0 l 76 0 l 415 894 m 656 324 l 463 833 l 271 324 l 656 324 z "},"Ấ":{"ha":926,"x_min":76,"x_max":850,"o":"m 638 1264 l 703 1264 l 611 1101 l 554 1101 l 638 1264 m 425 1107 l 492 1107 l 635 954 l 567 954 l 458 1072 l 350 954 l 282 954 l 425 1107 m 415 894 l 513 894 l 850 0 l 772 0 l 674 261 l 254 261 l 156 0 l 76 0 l 415 894 m 656 324 l 463 833 l 271 324 l 656 324 z "},"Ậ":{"ha":926,"x_min":76,"x_max":850,"o":"m 429 1142 l 496 1142 l 642 954 l 572 954 l 463 1097 l 353 954 l 283 954 l 429 1142 m 415 894 l 513 894 l 850 0 l 772 0 l 674 261 l 254 261 l 156 0 l 76 0 l 415 894 m 656 324 l 463 833 l 271 324 l 656 324 m 422 -132 l 504 -132 l 504 -211 l 422 -211 l 422 -132 z "},"Ầ":{"ha":926,"x_min":76,"x_max":850,"o":"m 221 1264 l 286 1264 l 368 1101 l 313 1101 l 221 1264 m 432 1107 l 499 1107 l 642 954 l 572 954 l 465 1072 l 357 954 l 289 954 l 432 1107 m 415 894 l 513 894 l 850 0 l 772 0 l 674 261 l 254 261 l 156 0 l 76 0 l 415 894 m 656 324 l 463 833 l 271 324 l 656 324 z "},"Ẩ":{"ha":926,"x_min":76,"x_max":850,"o":"m 569 1154 q 662 1173 639 1158 q 685 1218 685 1188 q 611 1275 685 1275 q 529 1257 568 1275 l 529 1304 q 621 1321 569 1321 q 710 1294 678 1321 q 743 1221 743 1268 q 717 1152 743 1176 q 632 1122 690 1128 l 632 1072 l 569 1072 l 569 1154 m 429 1107 l 496 1107 l 639 954 l 571 954 l 463 1072 l 356 954 l 286 954 l 429 1107 m 415 894 l 513 894 l 850 0 l 772 0 l 674 261 l 254 261 l 156 0 l 76 0 l 415 894 m 656 324 l 463 833 l 271 324 l 656 324 z "},"Ẫ":{"ha":926,"x_min":76,"x_max":850,"o":"m 550 1118 q 506 1124 526 1118 q 457 1143 486 1131 q 382 1164 410 1164 q 325 1154 350 1164 q 278 1119 300 1144 l 278 1181 q 322 1207 294 1197 q 379 1217 350 1217 q 422 1211 403 1217 q 469 1193 440 1206 q 512 1176 494 1182 q 549 1171 529 1171 q 605 1181 581 1171 q 649 1215 629 1192 l 649 1154 q 607 1128 633 1138 q 550 1118 581 1118 m 426 1107 l 493 1107 l 636 954 l 568 954 l 460 1072 l 353 954 l 283 954 l 426 1107 m 415 894 l 513 894 l 850 0 l 772 0 l 674 261 l 254 261 l 156 0 l 76 0 l 415 894 m 656 324 l 463 833 l 271 324 l 656 324 z "},"Ä":{"ha":926,"x_min":76,"x_max":850,"o":"m 308 1067 l 388 1067 l 388 990 l 308 990 l 308 1067 m 540 1067 l 618 1067 l 618 990 l 540 990 l 540 1067 m 415 894 l 513 894 l 850 0 l 772 0 l 674 261 l 254 261 l 156 0 l 76 0 l 415 894 m 656 324 l 463 833 l 271 324 l 656 324 z "},"Ạ":{"ha":926,"x_min":76,"x_max":850,"o":"m 415 894 l 513 894 l 850 0 l 772 0 l 674 261 l 254 261 l 156 0 l 76 0 l 415 894 m 656 324 l 463 833 l 271 324 l 656 324 m 422 -132 l 504 -132 l 504 -211 l 422 -211 l 422 -132 z "},"À":{"ha":926,"x_min":76,"x_max":850,"o":"m 319 1175 l 392 1175 l 485 956 l 422 956 l 319 1175 m 415 894 l 513 894 l 850 0 l 772 0 l 674 261 l 254 261 l 156 0 l 76 0 l 415 894 m 656 324 l 463 833 l 271 324 l 656 324 z "},"Ả":{"ha":926,"x_min":76,"x_max":850,"o":"m 429 1065 q 512 1077 483 1068 q 550 1103 540 1086 q 560 1147 560 1119 q 532 1203 560 1185 q 444 1221 504 1221 q 396 1216 422 1221 q 351 1204 369 1211 l 351 1257 q 401 1269 369 1264 q 458 1274 432 1274 q 578 1242 538 1274 q 619 1151 619 1210 q 591 1065 619 1094 q 494 1028 563 1035 l 494 956 l 429 956 l 429 1065 m 415 894 l 513 894 l 850 0 l 772 0 l 674 261 l 254 261 l 156 0 l 76 0 l 415 894 m 656 324 l 463 833 l 271 324 l 656 324 z "},"Ā":{"ha":926,"x_min":76,"x_max":850,"o":"m 271 1051 l 656 1051 l 656 993 l 271 993 l 271 1051 m 415 894 l 513 894 l 850 0 l 772 0 l 674 261 l 254 261 l 156 0 l 76 0 l 415 894 m 656 324 l 463 833 l 271 324 l 656 324 z "},"Ą":{"ha":926,"x_min":76,"x_max":876,"o":"m 794 -306 q 703 -277 738 -306 q 668 -186 668 -249 q 697 -82 668 -132 q 772 0 726 -32 l 674 261 l 254 261 l 156 0 l 76 0 l 415 894 l 513 894 l 850 0 q 733 -178 733 -62 q 751 -232 733 -215 q 807 -249 768 -249 q 844 -244 825 -249 q 876 -233 864 -240 l 876 -290 q 794 -306 847 -306 m 656 324 l 463 833 l 271 324 l 656 324 z "},"Å":{"ha":926,"x_min":76,"x_max":850,"o":"m 406 869 q 344 920 367 885 q 321 999 321 956 q 361 1099 321 1058 q 463 1140 401 1140 q 565 1099 525 1140 q 606 999 606 1058 q 583 921 606 956 q 521 869 560 886 l 850 0 l 772 0 l 674 261 l 254 261 l 156 0 l 76 0 l 406 869 m 463 908 q 528 934 503 908 q 554 999 554 960 q 528 1065 554 1039 q 463 1090 503 1090 q 397 1065 424 1090 q 371 999 371 1039 q 397 934 371 960 q 463 908 424 908 m 656 324 l 463 833 l 271 324 l 656 324 z "},"Ǻ":{"ha":926,"x_min":76,"x_max":850,"o":"m 510 1381 l 582 1381 l 478 1182 l 417 1182 l 510 1381 m 406 869 q 344 920 367 885 q 321 999 321 956 q 361 1099 321 1058 q 463 1140 401 1140 q 565 1099 525 1140 q 606 999 606 1058 q 583 921 606 956 q 521 869 560 886 l 850 0 l 772 0 l 674 261 l 254 261 l 156 0 l 76 0 l 406 869 m 463 908 q 528 934 503 908 q 554 999 554 960 q 528 1065 554 1039 q 463 1090 503 1090 q 397 1065 424 1090 q 371 999 371 1039 q 397 934 371 960 q 463 908 424 908 m 656 324 l 463 833 l 271 324 l 656 324 z "},"Ã":{"ha":926,"x_min":76,"x_max":850,"o":"m 561 986 q 514 993 538 986 q 460 1014 490 1000 q 376 1038 404 1038 q 267 989 307 1038 l 267 1054 q 313 1083 283 1072 q 375 1094 343 1094 q 420 1088 400 1094 q 472 1068 440 1082 q 519 1049 500 1056 q 558 1043 538 1043 q 617 1055 592 1043 q 660 1092 642 1067 l 660 1026 q 620 997 646 1007 q 561 986 594 986 m 415 894 l 513 894 l 850 0 l 772 0 l 674 261 l 254 261 l 156 0 l 76 0 l 415 894 m 656 324 l 463 833 l 271 324 l 656 324 z "},"Æ":{"ha":1156,"x_min":76,"x_max":1079,"o":"m 415 894 l 1079 894 l 1079 831 l 646 831 l 646 478 l 1031 478 l 1031 415 l 646 415 l 646 61 l 1079 61 l 1079 0 l 569 0 l 569 263 l 257 263 l 157 0 l 76 0 l 415 894 m 569 324 l 569 831 l 472 831 l 281 324 l 569 324 z "},"Ǽ":{"ha":1156,"x_min":76,"x_max":1079,"o":"m 700 1175 l 772 1175 l 669 956 l 607 956 l 700 1175 m 415 894 l 1079 894 l 1079 831 l 646 831 l 646 478 l 1031 478 l 1031 415 l 646 415 l 646 61 l 1079 61 l 1079 0 l 569 0 l 569 263 l 257 263 l 157 0 l 76 0 l 415 894 m 569 324 l 569 831 l 472 831 l 281 324 l 569 324 z "},"B":{"ha":860,"x_min":104,"x_max":783,"o":"m 104 894 l 497 894 q 687 835 626 894 q 747 661 747 775 q 717 538 747 588 q 631 463 686 488 q 783 253 783 428 q 719 61 783 122 q 524 0 654 0 l 104 0 l 104 894 m 504 492 q 634 536 593 492 q 675 657 675 581 q 633 790 675 747 q 481 833 590 833 l 181 833 l 181 492 l 504 492 m 517 60 q 663 105 617 60 q 708 256 708 150 q 660 389 708 346 q 496 432 613 432 l 181 432 l 181 60 l 517 60 z "},"C":{"ha":818,"x_min":76,"x_max":742,"o":"m 488 -14 q 179 103 282 -14 q 76 422 76 219 q 174 781 76 653 q 486 908 272 908 q 742 868 628 908 l 742 800 q 493 842 629 842 q 230 734 308 842 q 151 422 151 626 q 497 51 151 51 q 626 61 561 51 q 742 89 690 71 l 742 21 q 488 -14 631 -14 z "},"Ć":{"ha":818,"x_min":76,"x_max":742,"o":"m 529 1175 l 601 1175 l 499 956 l 436 956 l 529 1175 m 488 -14 q 179 103 282 -14 q 76 422 76 219 q 174 781 76 653 q 486 908 272 908 q 742 868 628 908 l 742 800 q 493 842 629 842 q 230 734 308 842 q 151 422 151 626 q 497 51 151 51 q 626 61 561 51 q 742 89 690 71 l 742 21 q 488 -14 631 -14 z "},"Č":{"ha":818,"x_min":76,"x_max":742,"o":"m 319 1142 l 389 1142 l 499 999 l 608 1142 l 678 1142 l 532 954 l 465 954 l 319 1142 m 488 -14 q 179 103 282 -14 q 76 422 76 219 q 174 781 76 653 q 486 908 272 908 q 742 868 628 908 l 742 800 q 493 842 629 842 q 230 734 308 842 q 151 422 151 626 q 497 51 151 51 q 626 61 561 51 q 742 89 690 71 l 742 21 q 488 -14 631 -14 z "},"Ç":{"ha":818,"x_min":76,"x_max":742,"o":"m 493 842 q 230 734 308 842 q 151 422 151 626 q 497 51 151 51 q 626 61 561 51 q 742 89 690 71 l 742 21 q 504 -14 638 -12 l 485 -71 q 603 -102 563 -71 q 643 -193 643 -133 q 597 -298 643 -262 q 450 -333 550 -333 q 402 -330 429 -333 q 358 -322 375 -326 l 358 -271 q 446 -282 399 -282 q 551 -262 518 -282 q 583 -193 583 -242 q 553 -133 583 -150 q 456 -117 524 -117 l 410 -117 l 444 -12 q 169 115 261 0 q 76 422 76 231 q 174 781 76 653 q 486 908 272 908 q 742 868 628 908 l 742 800 q 493 842 629 842 z "},"Ĉ":{"ha":818,"x_min":76,"x_max":742,"o":"m 432 1142 l 499 1142 l 644 954 l 575 954 l 465 1097 l 356 954 l 286 954 l 432 1142 m 488 -14 q 179 103 282 -14 q 76 422 76 219 q 174 781 76 653 q 486 908 272 908 q 742 868 628 908 l 742 800 q 493 842 629 842 q 230 734 308 842 q 151 422 151 626 q 497 51 151 51 q 626 61 561 51 q 742 89 690 71 l 742 21 q 488 -14 631 -14 z "},"Ċ":{"ha":818,"x_min":76,"x_max":742,"o":"m 446 1069 l 525 1069 l 525 992 l 446 992 l 446 1069 m 488 -14 q 179 103 282 -14 q 76 422 76 219 q 174 781 76 653 q 486 908 272 908 q 742 868 628 908 l 742 800 q 493 842 629 842 q 230 734 308 842 q 151 422 151 626 q 497 51 151 51 q 626 61 561 51 q 742 89 690 71 l 742 21 q 488 -14 631 -14 z "},"D":{"ha":878,"x_min":104,"x_max":801,"o":"m 104 894 l 440 894 q 649 848 569 894 q 765 702 728 801 q 801 440 801 603 q 765 190 801 286 q 650 47 729 93 q 440 0 571 0 l 104 0 l 104 894 m 424 61 q 595 93 531 61 q 692 207 660 125 q 725 440 725 289 q 695 678 725 593 q 601 797 665 763 q 424 832 536 832 l 181 832 l 181 61 l 424 61 z "},"Ð":{"ha":935,"x_min":49,"x_max":858,"o":"m 161 408 l 49 408 l 49 471 l 161 471 l 161 894 l 499 894 q 706 848 628 894 q 822 702 785 801 q 858 440 858 603 q 822 190 858 286 q 707 47 786 93 q 499 0 628 0 l 161 0 l 161 408 m 481 61 q 653 93 589 61 q 751 207 718 125 q 783 440 783 289 q 753 677 783 593 q 659 796 724 761 q 481 831 594 831 l 238 831 l 238 471 l 501 471 l 501 408 l 238 408 l 238 61 l 481 61 z "},"Ď":{"ha":878,"x_min":104,"x_max":801,"o":"m 242 1172 l 311 1172 l 421 1029 l 531 1172 l 600 1172 l 454 985 l 388 985 l 242 1172 m 104 894 l 440 894 q 649 848 569 894 q 765 702 728 801 q 801 440 801 603 q 765 190 801 286 q 650 47 729 93 q 440 0 571 0 l 104 0 l 104 894 m 424 61 q 595 93 531 61 q 692 207 660 125 q 725 440 725 289 q 695 678 725 593 q 601 797 665 763 q 424 832 536 832 l 181 832 l 181 61 l 424 61 z "},"Đ":{"ha":921,"x_min":35,"x_max":844,"o":"m 147 408 l 35 408 l 35 471 l 147 471 l 147 894 l 485 894 q 692 848 614 894 q 808 702 771 801 q 844 440 844 603 q 808 190 844 286 q 693 47 772 93 q 485 0 614 0 l 147 0 l 147 408 m 467 61 q 640 93 575 61 q 737 207 704 125 q 769 440 769 289 q 740 677 769 593 q 645 796 710 761 q 467 831 581 831 l 224 831 l 224 471 l 488 471 l 488 408 l 224 408 l 224 61 l 467 61 z "},"Ḍ":{"ha":878,"x_min":104,"x_max":801,"o":"m 104 894 l 440 894 q 649 848 569 894 q 765 702 728 801 q 801 440 801 603 q 765 190 801 286 q 650 47 729 93 q 440 0 571 0 l 104 0 l 104 894 m 424 61 q 595 93 531 61 q 692 207 660 125 q 725 440 725 289 q 695 678 725 593 q 601 797 665 763 q 424 832 536 832 l 181 832 l 181 61 l 424 61 m 411 -132 l 493 -132 l 493 -211 l 411 -211 l 411 -132 z "},"Ḏ":{"ha":878,"x_min":104,"x_max":801,"o":"m 104 894 l 440 894 q 649 848 569 894 q 765 702 728 801 q 801 440 801 603 q 765 190 801 286 q 650 47 729 93 q 440 0 571 0 l 104 0 l 104 894 m 424 61 q 595 93 531 61 q 692 207 660 125 q 725 440 725 289 q 695 678 725 593 q 601 797 665 763 q 424 832 536 832 l 181 832 l 181 61 l 424 61 m 207 -112 l 592 -112 l 592 -171 l 207 -171 l 207 -112 z "},"E":{"ha":751,"x_min":104,"x_max":689,"o":"m 104 894 l 689 894 l 689 832 l 181 832 l 181 478 l 640 478 l 640 417 l 181 417 l 181 61 l 689 61 l 689 0 l 104 0 l 104 894 z "},"É":{"ha":751,"x_min":104,"x_max":689,"o":"m 450 1175 l 522 1175 l 419 956 l 357 956 l 450 1175 m 104 894 l 689 894 l 689 832 l 181 832 l 181 478 l 640 478 l 640 417 l 181 417 l 181 61 l 689 61 l 689 0 l 104 0 l 104 894 z "},"Ĕ":{"ha":751,"x_min":104,"x_max":689,"o":"m 404 954 q 292 997 335 954 q 250 1108 250 1040 l 308 1108 q 335 1035 308 1061 q 404 1008 361 1008 q 475 1035 449 1008 q 501 1108 501 1061 l 560 1108 q 517 997 560 1040 q 404 954 475 954 m 104 894 l 689 894 l 689 832 l 181 832 l 181 478 l 640 478 l 640 417 l 181 417 l 181 61 l 689 61 l 689 0 l 104 0 l 104 894 z "},"Ě":{"ha":751,"x_min":104,"x_max":689,"o":"m 226 1142 l 296 1142 l 406 999 l 515 1142 l 585 1142 l 439 954 l 372 954 l 226 1142 m 104 894 l 689 894 l 689 832 l 181 832 l 181 478 l 640 478 l 640 417 l 181 417 l 181 61 l 689 61 l 689 0 l 104 0 l 104 894 z "},"Ê":{"ha":751,"x_min":104,"x_max":689,"o":"m 351 1142 l 418 1142 l 564 954 l 494 954 l 385 1097 l 275 954 l 206 954 l 351 1142 m 104 894 l 689 894 l 689 832 l 181 832 l 181 478 l 640 478 l 640 417 l 181 417 l 181 61 l 689 61 l 689 0 l 104 0 l 104 894 z "},"Ế":{"ha":751,"x_min":104,"x_max":689,"o":"m 565 1264 l 631 1264 l 539 1101 l 482 1101 l 565 1264 m 353 1107 l 419 1107 l 563 954 l 494 954 l 386 1072 l 278 954 l 210 954 l 353 1107 m 104 894 l 689 894 l 689 832 l 181 832 l 181 478 l 640 478 l 640 417 l 181 417 l 181 61 l 689 61 l 689 0 l 104 0 l 104 894 z "},"Ệ":{"ha":751,"x_min":104,"x_max":689,"o":"m 346 1142 l 413 1142 l 558 954 l 489 954 l 379 1097 l 269 954 l 200 954 l 346 1142 m 104 894 l 689 894 l 689 832 l 181 832 l 181 478 l 640 478 l 640 417 l 181 417 l 181 61 l 689 61 l 689 0 l 104 0 l 104 894 m 339 -132 l 421 -132 l 421 -211 l 339 -211 l 339 -132 z "},"Ề":{"ha":751,"x_min":104,"x_max":689,"o":"m 164 1264 l 229 1264 l 311 1101 l 256 1101 l 164 1264 m 375 1107 l 442 1107 l 585 954 l 515 954 l 408 1072 l 300 954 l 232 954 l 375 1107 m 104 894 l 689 894 l 689 832 l 181 832 l 181 478 l 640 478 l 640 417 l 181 417 l 181 61 l 689 61 l 689 0 l 104 0 l 104 894 z "},"Ể":{"ha":751,"x_min":104,"x_max":689,"o":"m 503 1154 q 595 1173 572 1158 q 618 1218 618 1188 q 544 1275 618 1275 q 463 1257 501 1275 l 463 1304 q 554 1321 503 1321 q 644 1294 611 1321 q 676 1221 676 1268 q 650 1152 676 1176 q 565 1122 624 1128 l 565 1072 l 503 1072 l 503 1154 m 363 1107 l 429 1107 l 572 954 l 504 954 l 396 1072 l 289 954 l 219 954 l 363 1107 m 104 894 l 689 894 l 689 832 l 181 832 l 181 478 l 640 478 l 640 417 l 181 417 l 181 61 l 689 61 l 689 0 l 104 0 l 104 894 z "},"Ễ":{"ha":751,"x_min":104,"x_max":689,"o":"m 488 1118 q 444 1124 464 1118 q 394 1143 424 1131 q 319 1164 347 1164 q 263 1154 288 1164 q 215 1119 238 1144 l 215 1181 q 260 1207 232 1197 q 317 1217 288 1217 q 359 1211 340 1217 q 407 1193 378 1206 q 449 1176 432 1182 q 486 1171 467 1171 q 542 1181 518 1171 q 586 1215 567 1192 l 586 1154 q 544 1128 571 1138 q 488 1118 518 1118 m 364 1107 l 431 1107 l 574 954 l 506 954 l 397 1072 l 290 954 l 221 954 l 364 1107 m 104 894 l 689 894 l 689 832 l 181 832 l 181 478 l 640 478 l 640 417 l 181 417 l 181 61 l 689 61 l 689 0 l 104 0 l 104 894 z "},"Ë":{"ha":751,"x_min":104,"x_max":689,"o":"m 239 1068 l 318 1068 l 318 992 l 239 992 l 239 1068 m 471 1068 l 549 1068 l 549 992 l 471 992 l 471 1068 m 104 894 l 689 894 l 689 832 l 181 832 l 181 478 l 640 478 l 640 417 l 181 417 l 181 61 l 689 61 l 689 0 l 104 0 l 104 894 z "},"Ė":{"ha":751,"x_min":104,"x_max":689,"o":"m 356 1069 l 435 1069 l 435 992 l 356 992 l 356 1069 m 104 894 l 689 894 l 689 832 l 181 832 l 181 478 l 640 478 l 640 417 l 181 417 l 181 61 l 689 61 l 689 0 l 104 0 l 104 894 z "},"Ẹ":{"ha":751,"x_min":104,"x_max":689,"o":"m 104 894 l 689 894 l 689 832 l 181 832 l 181 478 l 640 478 l 640 417 l 181 417 l 181 61 l 689 61 l 689 0 l 104 0 l 104 894 m 350 -132 l 432 -132 l 432 -211 l 350 -211 l 350 -132 z "},"È":{"ha":751,"x_min":104,"x_max":689,"o":"m 274 1175 l 346 1175 l 439 956 l 376 956 l 274 1175 m 104 894 l 689 894 l 689 832 l 181 832 l 181 478 l 640 478 l 640 417 l 181 417 l 181 61 l 689 61 l 689 0 l 104 0 l 104 894 z "},"Ẻ":{"ha":751,"x_min":104,"x_max":689,"o":"m 351 1065 q 434 1077 406 1068 q 472 1103 463 1086 q 482 1147 482 1119 q 454 1203 482 1185 q 367 1221 426 1221 q 318 1216 344 1221 q 274 1204 292 1211 l 274 1257 q 323 1269 292 1264 q 381 1274 354 1274 q 501 1242 460 1274 q 542 1151 542 1210 q 513 1065 542 1094 q 417 1028 485 1035 l 417 956 l 351 956 l 351 1065 m 104 894 l 689 894 l 689 832 l 181 832 l 181 478 l 640 478 l 640 417 l 181 417 l 181 61 l 689 61 l 689 0 l 104 0 l 104 894 z "},"Ē":{"ha":751,"x_min":104,"x_max":689,"o":"m 197 1057 l 582 1057 l 582 999 l 197 999 l 197 1057 m 104 894 l 689 894 l 689 832 l 181 832 l 181 478 l 640 478 l 640 417 l 181 417 l 181 61 l 689 61 l 689 0 l 104 0 l 104 894 z "},"Ę":{"ha":751,"x_min":104,"x_max":689,"o":"m 181 832 l 181 478 l 640 478 l 640 417 l 181 417 l 181 61 l 689 61 l 689 0 l 632 0 q 555 -83 581 -37 q 529 -178 529 -129 q 547 -232 529 -215 q 603 -249 564 -249 q 640 -244 621 -249 q 672 -233 660 -240 l 672 -290 q 590 -306 643 -306 q 499 -277 533 -306 q 464 -186 464 -249 q 493 -82 464 -132 q 568 0 522 -32 l 104 0 l 104 894 l 689 894 l 689 832 l 181 832 z "},"Ẽ":{"ha":751,"x_min":104,"x_max":689,"o":"m 489 990 q 442 997 465 990 q 388 1018 418 1004 q 304 1042 332 1042 q 194 993 235 1042 l 194 1058 q 241 1088 211 1076 q 303 1099 271 1099 q 348 1092 328 1099 q 400 1072 368 1086 q 447 1053 428 1060 q 486 1047 465 1047 q 544 1059 519 1047 q 588 1096 569 1071 l 588 1031 q 548 1001 574 1011 q 489 990 522 990 m 104 894 l 689 894 l 689 832 l 181 832 l 181 478 l 640 478 l 640 417 l 181 417 l 181 61 l 689 61 l 689 0 l 104 0 l 104 894 z "},"F":{"ha":717,"x_min":104,"x_max":668,"o":"m 104 894 l 668 894 l 668 832 l 181 832 l 181 478 l 617 478 l 617 417 l 181 417 l 181 0 l 104 0 l 104 894 z "},"G":{"ha":879,"x_min":76,"x_max":803,"o":"m 488 -14 q 179 103 282 -14 q 76 422 76 219 q 174 781 76 653 q 486 908 272 908 q 742 871 629 908 l 742 803 q 494 842 625 842 q 230 734 308 842 q 151 422 151 626 q 496 51 151 51 q 624 63 560 51 q 733 93 688 74 l 733 411 l 479 411 l 479 472 l 803 472 l 803 54 q 681 6 758 25 q 488 -14 603 -14 z "},"Ğ":{"ha":879,"x_min":76,"x_max":803,"o":"m 486 954 q 374 997 417 954 q 332 1108 332 1040 l 390 1108 q 417 1035 390 1061 q 486 1008 443 1008 q 557 1035 531 1008 q 583 1108 583 1061 l 642 1108 q 599 997 642 1040 q 486 954 557 954 m 488 -14 q 179 103 282 -14 q 76 422 76 219 q 174 781 76 653 q 486 908 272 908 q 742 871 629 908 l 742 803 q 494 842 625 842 q 230 734 308 842 q 151 422 151 626 q 496 51 151 51 q 624 63 560 51 q 733 93 688 74 l 733 411 l 479 411 l 479 472 l 803 472 l 803 54 q 681 6 758 25 q 488 -14 603 -14 z "},"Ǧ":{"ha":879,"x_min":76,"x_max":803,"o":"m 308 1142 l 378 1142 l 488 999 l 597 1142 l 667 1142 l 521 954 l 454 954 l 308 1142 m 488 -14 q 179 103 282 -14 q 76 422 76 219 q 174 781 76 653 q 486 908 272 908 q 742 871 629 908 l 742 803 q 494 842 625 842 q 230 734 308 842 q 151 422 151 626 q 496 51 151 51 q 624 63 560 51 q 733 93 688 74 l 733 411 l 479 411 l 479 472 l 803 472 l 803 54 q 681 6 758 25 q 488 -14 603 -14 z "},"Ĝ":{"ha":879,"x_min":76,"x_max":803,"o":"m 457 1142 l 524 1142 l 669 954 l 600 954 l 490 1097 l 381 954 l 311 954 l 457 1142 m 488 -14 q 179 103 282 -14 q 76 422 76 219 q 174 781 76 653 q 486 908 272 908 q 742 871 629 908 l 742 803 q 494 842 625 842 q 230 734 308 842 q 151 422 151 626 q 496 51 151 51 q 624 63 560 51 q 733 93 688 74 l 733 411 l 479 411 l 479 472 l 803 472 l 803 54 q 681 6 758 25 q 488 -14 603 -14 z "},"Ģ":{"ha":879,"x_min":76,"x_max":803,"o":"m 488 -14 q 179 103 282 -14 q 76 422 76 219 q 174 781 76 653 q 486 908 272 908 q 742 871 629 908 l 742 803 q 494 842 625 842 q 230 734 308 842 q 151 422 151 626 q 496 51 151 51 q 624 63 560 51 q 733 93 688 74 l 733 411 l 479 411 l 479 472 l 803 472 l 803 54 q 681 6 758 25 q 488 -14 603 -14 m 469 -58 l 543 -58 l 490 -287 l 433 -287 l 469 -58 z "},"Ġ":{"ha":879,"x_min":76,"x_max":803,"o":"m 447 1069 l 526 1069 l 526 992 l 447 992 l 447 1069 m 488 -14 q 179 103 282 -14 q 76 422 76 219 q 174 781 76 653 q 486 908 272 908 q 742 871 629 908 l 742 803 q 494 842 625 842 q 230 734 308 842 q 151 422 151 626 q 496 51 151 51 q 624 63 560 51 q 733 93 688 74 l 733 411 l 479 411 l 479 472 l 803 472 l 803 54 q 681 6 758 25 q 488 -14 603 -14 z "},"Ḡ":{"ha":879,"x_min":76,"x_max":803,"o":"m 296 1054 l 681 1054 l 681 996 l 296 996 l 296 1054 m 488 -14 q 179 103 282 -14 q 76 422 76 219 q 174 781 76 653 q 486 908 272 908 q 742 871 629 908 l 742 803 q 494 842 625 842 q 230 734 308 842 q 151 422 151 626 q 496 51 151 51 q 624 63 560 51 q 733 93 688 74 l 733 411 l 479 411 l 479 472 l 803 472 l 803 54 q 681 6 758 25 q 488 -14 603 -14 z "},"H":{"ha":875,"x_min":104,"x_max":771,"o":"m 104 894 l 181 894 l 181 478 l 694 478 l 694 894 l 771 894 l 771 0 l 694 0 l 694 417 l 181 417 l 181 0 l 104 0 l 104 894 z "},"Ħ":{"ha":932,"x_min":35,"x_max":897,"o":"m 124 654 l 35 654 l 35 717 l 124 717 l 124 894 l 200 894 l 200 717 l 714 717 l 714 894 l 790 894 l 790 717 l 897 717 l 897 654 l 790 654 l 790 0 l 714 0 l 714 417 l 200 417 l 200 0 l 124 0 l 124 654 m 714 478 l 714 654 l 200 654 l 200 478 l 714 478 z "},"Ḫ":{"ha":875,"x_min":104,"x_max":771,"o":"m 104 894 l 181 894 l 181 478 l 694 478 l 694 894 l 771 894 l 771 0 l 694 0 l 694 417 l 181 417 l 181 0 l 104 0 l 104 894 m 438 -257 q 301 -211 353 -257 q 249 -76 249 -165 l 307 -76 q 342 -173 307 -142 q 438 -204 378 -204 q 534 -173 499 -204 q 569 -76 569 -142 l 626 -76 q 574 -211 626 -165 q 438 -257 522 -257 z "},"Ĥ":{"ha":875,"x_min":104,"x_max":771,"o":"m 404 1142 l 471 1142 l 617 954 l 547 954 l 438 1097 l 328 954 l 258 954 l 404 1142 m 104 894 l 181 894 l 181 478 l 694 478 l 694 894 l 771 894 l 771 0 l 694 0 l 694 417 l 181 417 l 181 0 l 104 0 l 104 894 z "},"Ḥ":{"ha":875,"x_min":104,"x_max":771,"o":"m 104 894 l 181 894 l 181 478 l 694 478 l 694 894 l 771 894 l 771 0 l 694 0 l 694 417 l 181 417 l 181 0 l 104 0 l 104 894 m 397 -132 l 479 -132 l 479 -211 l 397 -211 l 397 -132 z "},"I":{"ha":285,"x_min":104,"x_max":181,"o":"m 104 894 l 181 894 l 181 0 l 104 0 l 104 894 z "},"Ĳ":{"ha":836,"x_min":104,"x_max":739,"o":"m 104 894 l 181 894 l 181 0 l 104 0 l 104 894 m 483 -14 q 303 18 382 -14 l 303 85 q 382 60 336 69 q 474 51 428 51 q 619 94 576 51 q 663 233 663 138 l 663 894 l 739 894 l 739 229 q 483 -14 739 -14 z "},"Í":{"ha":285,"x_min":104,"x_max":274,"o":"m 201 1175 l 274 1175 l 171 956 l 108 956 l 201 1175 m 104 894 l 181 894 l 181 0 l 104 0 l 104 894 z "},"Ĭ":{"ha":285,"x_min":-12,"x_max":297,"o":"m 142 960 q 30 1003 72 960 q -12 1114 -12 1046 l 46 1114 q 72 1040 46 1067 q 142 1014 99 1014 q 213 1040 186 1014 q 239 1114 239 1067 l 297 1114 q 255 1003 297 1046 q 142 960 213 960 m 104 894 l 181 894 l 181 0 l 104 0 l 104 894 z "},"Ǐ":{"ha":285,"x_min":-37,"x_max":321,"o":"m -37 1142 l 32 1142 l 142 999 l 251 1142 l 321 1142 l 175 954 l 108 954 l -37 1142 m 104 894 l 181 894 l 181 0 l 104 0 l 104 894 z "},"Î":{"ha":285,"x_min":-37,"x_max":321,"o":"m 108 1142 l 175 1142 l 321 954 l 251 954 l 142 1097 l 32 954 l -37 954 l 108 1142 m 104 894 l 181 894 l 181 0 l 104 0 l 104 894 z "},"Ï":{"ha":285,"x_min":-14,"x_max":296,"o":"m -14 1069 l 65 1069 l 65 993 l -14 993 l -14 1069 m 218 1069 l 296 1069 l 296 993 l 218 993 l 218 1069 m 104 894 l 181 894 l 181 0 l 104 0 l 104 894 z "},"İ":{"ha":285,"x_min":103,"x_max":182,"o":"m 103 1071 l 182 1071 l 182 993 l 103 993 l 103 1071 m 104 894 l 181 894 l 181 0 l 104 0 l 104 894 z "},"Ị":{"ha":285,"x_min":101,"x_max":183,"o":"m 104 894 l 181 894 l 181 0 l 104 0 l 104 894 m 101 -132 l 183 -132 l 183 -211 l 101 -211 l 101 -132 z "},"Ì":{"ha":285,"x_min":8,"x_max":181,"o":"m 8 1175 l 81 1175 l 174 956 l 111 956 l 8 1175 m 104 894 l 181 894 l 181 0 l 104 0 l 104 894 z "},"Ỉ":{"ha":285,"x_min":31,"x_max":299,"o":"m 108 1065 q 191 1077 163 1068 q 229 1103 219 1086 q 239 1147 239 1119 q 211 1203 239 1185 q 124 1221 183 1221 q 75 1216 101 1221 q 31 1204 49 1211 l 31 1257 q 80 1269 49 1264 q 138 1274 111 1274 q 258 1242 217 1274 q 299 1151 299 1210 q 270 1065 299 1094 q 174 1028 242 1035 l 174 956 l 108 956 l 108 1065 m 104 894 l 181 894 l 181 0 l 104 0 l 104 894 z "},"Ī":{"ha":285,"x_min":-50,"x_max":335,"o":"m -50 1057 l 335 1057 l 335 999 l -50 999 l -50 1057 m 104 894 l 181 894 l 181 0 l 104 0 l 104 894 z "},"Į":{"ha":285,"x_min":7,"x_max":215,"o":"m 146 -249 q 183 -244 164 -249 q 215 -233 203 -240 l 215 -290 q 133 -306 186 -306 q 42 -277 76 -306 q 7 -186 7 -249 q 36 -82 7 -132 q 111 0 65 -32 l 104 0 l 104 894 l 181 894 l 181 0 l 175 0 q 98 -83 124 -37 q 72 -178 72 -129 q 90 -232 72 -215 q 146 -249 107 -249 z "},"Ĩ":{"ha":285,"x_min":-54,"x_max":339,"o":"m 240 958 q 193 965 217 958 q 139 986 169 972 q 56 1010 83 1010 q -54 961 -14 1010 l -54 1026 q -8 1056 -37 1044 q 54 1067 22 1067 q 99 1060 79 1067 q 151 1040 119 1054 q 198 1022 179 1028 q 238 1015 217 1015 q 296 1027 271 1015 q 339 1064 321 1039 l 339 999 q 299 969 325 979 q 240 958 274 958 m 104 894 l 181 894 l 181 0 l 104 0 l 104 894 z "},"J":{"ha":582,"x_min":49,"x_max":485,"o":"m 229 -14 q 49 18 128 -14 l 49 85 q 128 60 82 69 q 219 51 174 51 q 365 94 322 51 q 408 233 408 138 l 408 894 l 485 894 l 485 229 q 229 -14 485 -14 z "},"Ĵ":{"ha":582,"x_min":49,"x_max":622,"o":"m 410 1142 l 476 1142 l 622 954 l 553 954 l 443 1097 l 333 954 l 264 954 l 410 1142 m 229 -14 q 49 18 128 -14 l 49 85 q 128 60 82 69 q 219 51 174 51 q 365 94 322 51 q 408 233 408 138 l 408 894 l 485 894 l 485 229 q 229 -14 485 -14 z "},"K":{"ha":813,"x_min":104,"x_max":736,"o":"m 104 894 l 181 894 l 181 419 l 635 894 l 728 894 l 388 539 l 736 0 l 653 0 l 340 489 l 181 321 l 181 0 l 104 0 l 104 894 z "},"Ķ":{"ha":813,"x_min":104,"x_max":736,"o":"m 104 894 l 181 894 l 181 419 l 635 894 l 728 894 l 388 539 l 736 0 l 653 0 l 340 489 l 181 321 l 181 0 l 104 0 l 104 894 m 371 -51 l 444 -51 l 392 -281 l 335 -281 l 371 -51 z "},"L":{"ha":724,"x_min":104,"x_max":675,"o":"m 104 894 l 181 894 l 181 61 l 675 61 l 675 0 l 104 0 l 104 894 z "},"Ĺ":{"ha":724,"x_min":104,"x_max":675,"o":"m 200 1175 l 272 1175 l 169 956 l 107 956 l 200 1175 m 104 894 l 181 894 l 181 61 l 675 61 l 675 0 l 104 0 l 104 894 z "},"Ľ":{"ha":724,"x_min":104,"x_max":675,"o":"m 440 1021 l 514 1021 l 461 792 l 404 792 l 440 1021 m 104 894 l 181 894 l 181 61 l 675 61 l 675 0 l 104 0 l 104 894 z "},"Ļ":{"ha":724,"x_min":104,"x_max":675,"o":"m 104 894 l 181 894 l 181 61 l 675 61 l 675 0 l 104 0 l 104 894 m 349 -51 l 422 -51 l 369 -281 l 313 -281 l 349 -51 z "},"Ŀ":{"ha":724,"x_min":104,"x_max":675,"o":"m 104 894 l 181 894 l 181 61 l 675 61 l 675 0 l 104 0 l 104 894 m 426 429 l 508 429 l 508 350 l 426 350 l 426 429 z "},"Ḷ":{"ha":724,"x_min":104,"x_max":675,"o":"m 104 894 l 181 894 l 181 61 l 675 61 l 675 0 l 104 0 l 104 894 m 342 -132 l 424 -132 l 424 -211 l 342 -211 l 342 -132 z "},"Ḹ":{"ha":724,"x_min":0,"x_max":675,"o":"m 0 1054 l 385 1054 l 385 996 l 0 996 l 0 1054 m 104 894 l 181 894 l 181 61 l 675 61 l 675 0 l 104 0 l 104 894 m 342 -132 l 424 -132 l 424 -211 l 342 -211 l 342 -132 z "},"Ḻ":{"ha":724,"x_min":104,"x_max":675,"o":"m 104 894 l 181 894 l 181 61 l 675 61 l 675 0 l 104 0 l 104 894 m 186 -104 l 571 -104 l 571 -162 l 186 -162 l 186 -104 z "},"Ł":{"ha":757,"x_min":0,"x_max":708,"o":"m 136 406 l 0 346 l 0 413 l 136 472 l 136 894 l 213 894 l 213 506 l 425 599 l 425 532 l 213 439 l 213 61 l 708 61 l 708 0 l 136 0 l 136 406 z "},"M":{"ha":1033,"x_min":104,"x_max":929,"o":"m 104 894 l 193 894 l 517 232 l 840 894 l 929 894 l 929 0 l 854 0 l 854 783 l 547 156 l 488 156 l 179 783 l 179 0 l 104 0 l 104 894 z "},"Ṃ":{"ha":1033,"x_min":104,"x_max":929,"o":"m 104 894 l 193 894 l 517 232 l 840 894 l 929 894 l 929 0 l 854 0 l 854 783 l 547 156 l 488 156 l 179 783 l 179 0 l 104 0 l 104 894 m 476 -132 l 558 -132 l 558 -211 l 476 -211 l 476 -132 z "},"N":{"ha":911,"x_min":104,"x_max":807,"o":"m 104 894 l 176 894 l 731 114 l 731 894 l 807 894 l 807 0 l 733 0 l 181 779 l 181 0 l 104 0 l 104 894 z "},"Ń":{"ha":911,"x_min":104,"x_max":807,"o":"m 522 1175 l 594 1175 l 492 956 l 429 956 l 522 1175 m 104 894 l 176 894 l 731 114 l 731 894 l 807 894 l 807 0 l 733 0 l 181 779 l 181 0 l 104 0 l 104 894 z "},"Ň":{"ha":911,"x_min":104,"x_max":807,"o":"m 304 1142 l 374 1142 l 483 999 l 593 1142 l 663 1142 l 517 954 l 450 954 l 304 1142 m 104 894 l 176 894 l 731 114 l 731 894 l 807 894 l 807 0 l 733 0 l 181 779 l 181 0 l 104 0 l 104 894 z "},"Ņ":{"ha":911,"x_min":104,"x_max":807,"o":"m 104 894 l 176 894 l 731 114 l 731 894 l 807 894 l 807 0 l 733 0 l 181 779 l 181 0 l 104 0 l 104 894 m 425 -51 l 499 -51 l 446 -281 l 389 -281 l 425 -51 z "},"Ṅ":{"ha":911,"x_min":104,"x_max":807,"o":"m 438 1069 l 517 1069 l 517 992 l 438 992 l 438 1069 m 104 894 l 176 894 l 731 114 l 731 894 l 807 894 l 807 0 l 733 0 l 181 779 l 181 0 l 104 0 l 104 894 z "},"Ṇ":{"ha":911,"x_min":104,"x_max":807,"o":"m 104 894 l 176 894 l 731 114 l 731 894 l 807 894 l 807 0 l 733 0 l 181 779 l 181 0 l 104 0 l 104 894 m 411 -132 l 493 -132 l 493 -211 l 411 -211 l 411 -132 z "},"Ŋ":{"ha":911,"x_min":104,"x_max":807,"o":"m 619 -325 q 508 -308 554 -325 l 508 -246 q 593 -260 554 -260 q 699 -231 668 -260 q 731 -137 731 -201 l 731 4 l 181 779 l 181 0 l 104 0 l 104 894 l 176 894 l 731 114 l 731 894 l 807 894 l 807 -142 q 758 -276 807 -228 q 619 -325 708 -325 z "},"Ṉ":{"ha":911,"x_min":104,"x_max":807,"o":"m 104 894 l 176 894 l 731 114 l 731 894 l 807 894 l 807 0 l 733 0 l 181 779 l 181 0 l 104 0 l 104 894 m 264 -103 l 649 -103 l 649 -161 l 264 -161 l 264 -103 z "},"Ñ":{"ha":911,"x_min":104,"x_max":807,"o":"m 554 990 q 507 997 531 990 q 453 1018 483 1004 q 369 1042 397 1042 q 260 993 300 1042 l 260 1058 q 306 1088 276 1076 q 368 1099 336 1099 q 413 1092 393 1099 q 465 1072 433 1086 q 512 1053 493 1060 q 551 1047 531 1047 q 610 1059 585 1047 q 653 1096 635 1071 l 653 1031 q 613 1001 639 1011 q 554 990 588 990 m 104 894 l 176 894 l 731 114 l 731 894 l 807 894 l 807 0 l 733 0 l 181 779 l 181 0 l 104 0 l 104 894 z "},"O":{"ha":956,"x_min":76,"x_max":879,"o":"m 478 -14 q 175 101 274 -14 q 76 443 76 217 q 174 796 76 683 q 478 908 271 908 q 782 796 685 908 q 879 443 879 683 q 781 101 879 217 q 478 -14 682 -14 m 478 51 q 723 147 643 51 q 803 443 803 242 q 767 676 803 589 q 661 803 732 764 q 478 842 590 842 q 294 803 365 842 q 187 676 222 764 q 151 443 151 589 q 231 147 151 242 q 478 51 311 51 z "},"Ó":{"ha":956,"x_min":76,"x_max":879,"o":"m 540 1175 l 613 1175 l 510 956 l 447 956 l 540 1175 m 478 -14 q 175 101 274 -14 q 76 443 76 217 q 174 796 76 683 q 478 908 271 908 q 782 796 685 908 q 879 443 879 683 q 781 101 879 217 q 478 -14 682 -14 m 478 51 q 723 147 643 51 q 803 443 803 242 q 767 676 803 589 q 661 803 732 764 q 478 842 590 842 q 294 803 365 842 q 187 676 222 764 q 151 443 151 589 q 231 147 151 242 q 478 51 311 51 z "},"Ŏ":{"ha":956,"x_min":76,"x_max":879,"o":"m 478 954 q 366 997 408 954 q 324 1108 324 1040 l 382 1108 q 408 1035 382 1061 q 478 1008 435 1008 q 549 1035 522 1008 q 575 1108 575 1061 l 633 1108 q 591 997 633 1040 q 478 954 549 954 m 478 -14 q 175 101 274 -14 q 76 443 76 217 q 174 796 76 683 q 478 908 271 908 q 782 796 685 908 q 879 443 879 683 q 781 101 879 217 q 478 -14 682 -14 m 478 51 q 723 147 643 51 q 803 443 803 242 q 767 676 803 589 q 661 803 732 764 q 478 842 590 842 q 294 803 365 842 q 187 676 222 764 q 151 443 151 589 q 231 147 151 242 q 478 51 311 51 z "},"Ǒ":{"ha":956,"x_min":76,"x_max":879,"o":"m 299 1142 l 368 1142 l 478 999 l 588 1142 l 657 1142 l 511 954 l 444 954 l 299 1142 m 478 -14 q 175 101 274 -14 q 76 443 76 217 q 174 796 76 683 q 478 908 271 908 q 782 796 685 908 q 879 443 879 683 q 781 101 879 217 q 478 -14 682 -14 m 478 51 q 723 147 643 51 q 803 443 803 242 q 767 676 803 589 q 661 803 732 764 q 478 842 590 842 q 294 803 365 842 q 187 676 222 764 q 151 443 151 589 q 231 147 151 242 q 478 51 311 51 z "},"Ô":{"ha":956,"x_min":76,"x_max":879,"o":"m 444 1142 l 511 1142 l 657 954 l 588 954 l 478 1097 l 368 954 l 299 954 l 444 1142 m 478 -14 q 175 101 274 -14 q 76 443 76 217 q 174 796 76 683 q 478 908 271 908 q 782 796 685 908 q 879 443 879 683 q 781 101 879 217 q 478 -14 682 -14 m 478 51 q 723 147 643 51 q 803 443 803 242 q 767 676 803 589 q 661 803 732 764 q 478 842 590 842 q 294 803 365 842 q 187 676 222 764 q 151 443 151 589 q 231 147 151 242 q 478 51 311 51 z "},"Ố":{"ha":956,"x_min":76,"x_max":879,"o":"m 664 1264 l 729 1264 l 638 1101 l 581 1101 l 664 1264 m 451 1107 l 518 1107 l 661 954 l 593 954 l 485 1072 l 376 954 l 308 954 l 451 1107 m 478 -14 q 175 101 274 -14 q 76 443 76 217 q 174 796 76 683 q 478 908 271 908 q 782 796 685 908 q 879 443 879 683 q 781 101 879 217 q 478 -14 682 -14 m 478 51 q 723 147 643 51 q 803 443 803 242 q 767 676 803 589 q 661 803 732 764 q 478 842 590 842 q 294 803 365 842 q 187 676 222 764 q 151 443 151 589 q 231 147 151 242 q 478 51 311 51 z "},"Ộ":{"ha":956,"x_min":76,"x_max":879,"o":"m 444 1156 l 511 1156 l 657 968 l 588 968 l 478 1111 l 368 968 l 299 968 l 444 1156 m 478 -14 q 175 101 274 -14 q 76 443 76 217 q 174 796 76 683 q 478 908 271 908 q 782 796 685 908 q 879 443 879 683 q 781 101 879 217 q 478 -14 682 -14 m 478 51 q 723 147 643 51 q 803 443 803 242 q 767 676 803 589 q 661 803 732 764 q 478 842 590 842 q 294 803 365 842 q 187 676 222 764 q 151 443 151 589 q 231 147 151 242 q 478 51 311 51 m 438 -132 l 519 -132 l 519 -211 l 438 -211 l 438 -132 z "},"Ồ":{"ha":956,"x_min":76,"x_max":879,"o":"m 226 1264 l 292 1264 l 374 1101 l 318 1101 l 226 1264 m 438 1107 l 504 1107 l 647 954 l 578 954 l 471 1072 l 363 954 l 294 954 l 438 1107 m 478 -14 q 175 101 274 -14 q 76 443 76 217 q 174 796 76 683 q 478 908 271 908 q 782 796 685 908 q 879 443 879 683 q 781 101 879 217 q 478 -14 682 -14 m 478 51 q 723 147 643 51 q 803 443 803 242 q 767 676 803 589 q 661 803 732 764 q 478 842 590 842 q 294 803 365 842 q 187 676 222 764 q 151 443 151 589 q 231 147 151 242 q 478 51 311 51 z "},"Ổ":{"ha":956,"x_min":76,"x_max":879,"o":"m 585 1154 q 677 1173 654 1158 q 700 1218 700 1188 q 626 1275 700 1275 q 544 1257 583 1275 l 544 1304 q 636 1321 585 1321 q 726 1294 693 1321 q 758 1221 758 1268 q 732 1152 758 1176 q 647 1122 706 1128 l 647 1072 l 585 1072 l 585 1154 m 444 1107 l 511 1107 l 654 954 l 586 954 l 478 1072 l 371 954 l 301 954 l 444 1107 m 478 -14 q 175 101 274 -14 q 76 443 76 217 q 174 796 76 683 q 478 908 271 908 q 782 796 685 908 q 879 443 879 683 q 781 101 879 217 q 478 -14 682 -14 m 478 51 q 723 147 643 51 q 803 443 803 242 q 767 676 803 589 q 661 803 732 764 q 478 842 590 842 q 294 803 365 842 q 187 676 222 764 q 151 443 151 589 q 231 147 151 242 q 478 51 311 51 z "},"Ỗ":{"ha":956,"x_min":76,"x_max":879,"o":"m 564 1178 q 520 1184 540 1178 q 471 1203 500 1190 q 429 1219 446 1214 q 396 1225 413 1225 q 339 1215 364 1225 q 292 1181 314 1206 l 292 1240 q 336 1268 308 1258 q 393 1278 364 1278 q 438 1272 417 1278 q 483 1253 458 1265 q 526 1236 508 1242 q 563 1231 543 1231 q 619 1241 594 1231 q 663 1276 643 1251 l 663 1215 q 622 1188 649 1197 q 564 1178 596 1178 m 478 956 q 339 1000 393 956 q 285 1139 285 1044 l 339 1139 q 376 1039 339 1072 q 478 1006 414 1006 q 579 1039 542 1006 q 617 1139 617 1072 l 669 1139 q 615 1000 669 1044 q 478 956 561 956 m 478 -14 q 175 101 274 -14 q 76 443 76 217 q 174 796 76 683 q 478 908 271 908 q 782 796 685 908 q 879 443 879 683 q 781 101 879 217 q 478 -14 682 -14 m 478 51 q 723 147 643 51 q 803 443 803 242 q 767 676 803 589 q 661 803 732 764 q 478 842 590 842 q 294 803 365 842 q 187 676 222 764 q 151 443 151 589 q 231 147 151 242 q 478 51 311 51 z "},"Ö":{"ha":956,"x_min":76,"x_max":879,"o":"m 324 1068 l 403 1068 l 403 992 l 324 992 l 324 1068 m 556 1068 l 633 1068 l 633 992 l 556 992 l 556 1068 m 478 -14 q 175 101 274 -14 q 76 443 76 217 q 174 796 76 683 q 478 908 271 908 q 782 796 685 908 q 879 443 879 683 q 781 101 879 217 q 478 -14 682 -14 m 478 51 q 723 147 643 51 q 803 443 803 242 q 767 676 803 589 q 661 803 732 764 q 478 842 590 842 q 294 803 365 842 q 187 676 222 764 q 151 443 151 589 q 231 147 151 242 q 478 51 311 51 z "},"Ọ":{"ha":956,"x_min":76,"x_max":879,"o":"m 478 -14 q 175 101 274 -14 q 76 443 76 217 q 174 796 76 683 q 478 908 271 908 q 782 796 685 908 q 879 443 879 683 q 781 101 879 217 q 478 -14 682 -14 m 478 51 q 723 147 643 51 q 803 443 803 242 q 767 676 803 589 q 661 803 732 764 q 478 842 590 842 q 294 803 365 842 q 187 676 222 764 q 151 443 151 589 q 231 147 151 242 q 478 51 311 51 m 436 -132 l 518 -132 l 518 -211 l 436 -211 l 436 -132 z "},"Ò":{"ha":956,"x_min":76,"x_max":879,"o":"m 351 1175 l 424 1175 l 517 956 l 454 956 l 351 1175 m 478 -14 q 175 101 274 -14 q 76 443 76 217 q 174 796 76 683 q 478 908 271 908 q 782 796 685 908 q 879 443 879 683 q 781 101 879 217 q 478 -14 682 -14 m 478 51 q 723 147 643 51 q 803 443 803 242 q 767 676 803 589 q 661 803 732 764 q 478 842 590 842 q 294 803 365 842 q 187 676 222 764 q 151 443 151 589 q 231 147 151 242 q 478 51 311 51 z "},"Ỏ":{"ha":956,"x_min":76,"x_max":879,"o":"m 449 1065 q 531 1077 503 1068 q 569 1103 560 1086 q 579 1147 579 1119 q 551 1203 579 1185 q 464 1221 524 1221 q 415 1216 442 1221 q 371 1204 389 1211 l 371 1257 q 420 1269 389 1264 q 478 1274 451 1274 q 598 1242 557 1274 q 639 1151 639 1210 q 610 1065 639 1094 q 514 1028 582 1035 l 514 956 l 449 956 l 449 1065 m 478 -14 q 175 101 274 -14 q 76 443 76 217 q 174 796 76 683 q 478 908 271 908 q 782 796 685 908 q 879 443 879 683 q 781 101 879 217 q 478 -14 682 -14 m 478 51 q 723 147 643 51 q 803 443 803 242 q 767 676 803 589 q 661 803 732 764 q 478 842 590 842 q 294 803 365 842 q 187 676 222 764 q 151 443 151 589 q 231 147 151 242 q 478 51 311 51 z "},"Ơ":{"ha":1040,"x_min":76,"x_max":1006,"o":"m 478 -14 q 175 101 274 -14 q 76 443 76 217 q 174 796 76 683 q 478 908 271 908 q 789 786 689 908 q 878 803 846 788 q 925 854 911 818 q 939 956 939 890 l 1006 956 q 961 786 1006 839 q 826 725 917 733 q 879 443 879 615 q 781 101 879 217 q 478 -14 682 -14 m 478 51 q 723 147 643 51 q 803 443 803 242 q 767 676 803 589 q 661 803 732 764 q 478 842 590 842 q 294 803 365 842 q 187 676 222 764 q 151 443 151 589 q 231 147 151 242 q 478 51 311 51 z "},"Ớ":{"ha":1040,"x_min":76,"x_max":1006,"o":"m 556 1175 l 628 1175 l 525 956 l 463 956 l 556 1175 m 478 -14 q 175 101 274 -14 q 76 443 76 217 q 174 796 76 683 q 478 908 271 908 q 789 786 689 908 q 878 803 846 788 q 925 854 911 818 q 939 956 939 890 l 1006 956 q 961 786 1006 839 q 826 725 917 733 q 879 443 879 615 q 781 101 879 217 q 478 -14 682 -14 m 478 51 q 723 147 643 51 q 803 443 803 242 q 767 676 803 589 q 661 803 732 764 q 478 842 590 842 q 294 803 365 842 q 187 676 222 764 q 151 443 151 589 q 231 147 151 242 q 478 51 311 51 z "},"Ợ":{"ha":1040,"x_min":76,"x_max":1006,"o":"m 478 -14 q 175 101 274 -14 q 76 443 76 217 q 174 796 76 683 q 478 908 271 908 q 789 786 689 908 q 878 803 846 788 q 925 854 911 818 q 939 956 939 890 l 1006 956 q 961 786 1006 839 q 826 725 917 733 q 879 443 879 615 q 781 101 879 217 q 478 -14 682 -14 m 478 51 q 723 147 643 51 q 803 443 803 242 q 767 676 803 589 q 661 803 732 764 q 478 842 590 842 q 294 803 365 842 q 187 676 222 764 q 151 443 151 589 q 231 147 151 242 q 478 51 311 51 m 442 -132 l 524 -132 l 524 -211 l 442 -211 l 442 -132 z "},"Ờ":{"ha":1040,"x_min":76,"x_max":1006,"o":"m 376 1175 l 449 1175 l 542 956 l 479 956 l 376 1175 m 478 -14 q 175 101 274 -14 q 76 443 76 217 q 174 796 76 683 q 478 908 271 908 q 789 786 689 908 q 878 803 846 788 q 925 854 911 818 q 939 956 939 890 l 1006 956 q 961 786 1006 839 q 826 725 917 733 q 879 443 879 615 q 781 101 879 217 q 478 -14 682 -14 m 478 51 q 723 147 643 51 q 803 443 803 242 q 767 676 803 589 q 661 803 732 764 q 478 842 590 842 q 294 803 365 842 q 187 676 222 764 q 151 443 151 589 q 231 147 151 242 q 478 51 311 51 z "},"Ở":{"ha":1040,"x_min":76,"x_max":1006,"o":"m 458 1065 q 541 1077 513 1068 q 579 1103 569 1086 q 589 1147 589 1119 q 561 1203 589 1185 q 474 1221 533 1221 q 425 1216 451 1221 q 381 1204 399 1211 l 381 1257 q 430 1269 399 1264 q 488 1274 461 1274 q 608 1242 567 1274 q 649 1151 649 1210 q 620 1065 649 1094 q 524 1028 592 1035 l 524 956 l 458 956 l 458 1065 m 478 -14 q 175 101 274 -14 q 76 443 76 217 q 174 796 76 683 q 478 908 271 908 q 789 786 689 908 q 878 803 846 788 q 925 854 911 818 q 939 956 939 890 l 1006 956 q 961 786 1006 839 q 826 725 917 733 q 879 443 879 615 q 781 101 879 217 q 478 -14 682 -14 m 478 51 q 723 147 643 51 q 803 443 803 242 q 767 676 803 589 q 661 803 732 764 q 478 842 590 842 q 294 803 365 842 q 187 676 222 764 q 151 443 151 589 q 231 147 151 242 q 478 51 311 51 z "},"Ỡ":{"ha":1040,"x_min":76,"x_max":1006,"o":"m 600 989 q 553 996 576 989 q 499 1017 529 1003 q 415 1040 443 1040 q 306 992 346 1040 l 306 1057 q 352 1086 322 1075 q 414 1097 382 1097 q 459 1091 439 1097 q 511 1071 479 1085 q 558 1052 539 1058 q 597 1046 576 1046 q 656 1058 631 1046 q 699 1094 681 1069 l 699 1029 q 659 999 685 1010 q 600 989 633 989 m 478 -14 q 175 101 274 -14 q 76 443 76 217 q 174 796 76 683 q 478 908 271 908 q 789 786 689 908 q 878 803 846 788 q 925 854 911 818 q 939 956 939 890 l 1006 956 q 961 786 1006 839 q 826 725 917 733 q 879 443 879 615 q 781 101 879 217 q 478 -14 682 -14 m 478 51 q 723 147 643 51 q 803 443 803 242 q 767 676 803 589 q 661 803 732 764 q 478 842 590 842 q 294 803 365 842 q 187 676 222 764 q 151 443 151 589 q 231 147 151 242 q 478 51 311 51 z "},"Ő":{"ha":956,"x_min":76,"x_max":879,"o":"m 374 1150 l 449 1150 l 343 954 l 281 954 l 374 1150 m 650 1150 l 725 1150 l 619 954 l 557 954 l 650 1150 m 478 -14 q 175 101 274 -14 q 76 443 76 217 q 174 796 76 683 q 478 908 271 908 q 782 796 685 908 q 879 443 879 683 q 781 101 879 217 q 478 -14 682 -14 m 478 51 q 723 147 643 51 q 803 443 803 242 q 767 676 803 589 q 661 803 732 764 q 478 842 590 842 q 294 803 365 842 q 187 676 222 764 q 151 443 151 589 q 231 147 151 242 q 478 51 311 51 z "},"Ō":{"ha":956,"x_min":76,"x_max":879,"o":"m 285 1057 l 669 1057 l 669 999 l 285 999 l 285 1057 m 478 -14 q 175 101 274 -14 q 76 443 76 217 q 174 796 76 683 q 478 908 271 908 q 782 796 685 908 q 879 443 879 683 q 781 101 879 217 q 478 -14 682 -14 m 478 51 q 723 147 643 51 q 803 443 803 242 q 767 676 803 589 q 661 803 732 764 q 478 842 590 842 q 294 803 365 842 q 187 676 222 764 q 151 443 151 589 q 231 147 151 242 q 478 51 311 51 z "},"Ø":{"ha":956,"x_min":76,"x_max":879,"o":"m 276 24 q 76 443 76 118 q 174 796 76 683 q 478 908 271 908 q 592 899 543 908 l 615 963 l 685 963 l 656 881 q 824 731 769 839 q 879 443 879 624 q 781 101 879 217 q 478 -14 682 -14 q 339 3 400 -14 l 311 -74 l 242 -74 l 276 24 m 568 833 q 478 842 526 842 q 294 803 365 842 q 187 676 222 764 q 151 443 151 589 q 188 218 151 306 q 300 89 225 131 l 568 833 m 478 51 q 723 147 643 51 q 803 443 803 242 q 761 692 803 601 q 632 817 719 782 l 361 65 q 478 51 411 51 z "},"Ǿ":{"ha":956,"x_min":76,"x_max":879,"o":"m 531 1175 l 603 1175 l 500 956 l 438 956 l 531 1175 m 276 24 q 76 443 76 118 q 174 796 76 683 q 478 908 271 908 q 592 899 543 908 l 615 963 l 685 963 l 656 881 q 824 731 769 839 q 879 443 879 624 q 781 101 879 217 q 478 -14 682 -14 q 339 3 400 -14 l 311 -74 l 242 -74 l 276 24 m 568 833 q 478 842 526 842 q 294 803 365 842 q 187 676 222 764 q 151 443 151 589 q 188 218 151 306 q 300 89 225 131 l 568 833 m 478 51 q 723 147 643 51 q 803 443 803 242 q 761 692 803 601 q 632 817 719 782 l 361 65 q 478 51 411 51 z "},"Õ":{"ha":956,"x_min":76,"x_max":879,"o":"m 576 993 q 529 1000 553 993 q 475 1021 506 1007 q 392 1044 419 1044 q 282 996 322 1044 l 282 1061 q 328 1090 299 1079 q 390 1101 358 1101 q 435 1095 415 1101 q 488 1075 456 1089 q 534 1056 515 1063 q 574 1050 553 1050 q 632 1062 607 1050 q 675 1099 657 1074 l 675 1033 q 635 1003 661 1014 q 576 993 610 993 m 478 -14 q 175 101 274 -14 q 76 443 76 217 q 174 796 76 683 q 478 908 271 908 q 782 796 685 908 q 879 443 879 683 q 781 101 879 217 q 478 -14 682 -14 m 478 51 q 723 147 643 51 q 803 443 803 242 q 767 676 803 589 q 661 803 732 764 q 478 842 590 842 q 294 803 365 842 q 187 676 222 764 q 151 443 151 589 q 231 147 151 242 q 478 51 311 51 z "},"Œ":{"ha":1467,"x_min":76,"x_max":1389,"o":"m 881 832 l 881 478 l 1340 478 l 1340 417 l 881 417 l 881 61 l 1389 61 l 1389 0 l 804 0 l 804 132 q 478 -14 704 -14 q 175 101 274 -14 q 76 443 76 217 q 174 796 76 683 q 478 908 271 908 q 804 767 710 908 l 804 894 l 1389 894 l 1389 832 l 881 832 m 478 51 q 723 147 643 51 q 803 443 803 242 q 767 676 803 589 q 661 803 732 764 q 478 842 590 842 q 294 803 365 842 q 187 676 222 764 q 151 443 151 589 q 231 147 151 242 q 478 51 311 51 z "},"P":{"ha":793,"x_min":104,"x_max":744,"o":"m 104 894 l 460 894 q 673 819 601 894 q 744 615 744 744 q 667 416 744 489 q 454 343 589 343 l 181 343 l 181 0 l 104 0 l 104 894 m 447 404 q 611 460 554 404 q 668 615 668 517 q 614 776 668 721 q 454 832 560 832 l 181 832 l 181 404 l 447 404 z "},"Þ":{"ha":793,"x_min":104,"x_max":744,"o":"m 104 894 l 181 894 l 181 721 l 460 721 q 673 647 601 721 q 744 444 744 574 q 667 243 744 317 q 454 169 589 169 l 181 169 l 181 0 l 104 0 l 104 894 m 447 232 q 611 289 554 232 q 668 444 668 346 q 615 603 668 549 q 454 658 561 658 l 181 658 l 181 232 l 447 232 z "},"Q":{"ha":956,"x_min":76,"x_max":879,"o":"m 610 -239 q 474 -181 515 -239 q 432 -11 433 -124 q 164 115 251 0 q 76 443 76 229 q 174 796 76 683 q 478 908 271 908 q 782 796 685 908 q 879 443 879 683 q 507 -12 879 4 q 531 -137 507 -101 q 621 -172 556 -172 q 719 -158 674 -172 l 719 -225 q 610 -239 671 -239 m 478 51 q 723 147 643 51 q 803 443 803 242 q 767 676 803 589 q 661 803 732 764 q 478 842 590 842 q 294 803 365 842 q 187 676 222 764 q 151 443 151 589 q 231 147 151 242 q 478 51 311 51 z "},"R":{"ha":822,"x_min":104,"x_max":744,"o":"m 104 894 l 478 894 q 679 824 614 894 q 744 628 744 754 q 694 458 744 524 q 547 375 644 393 q 591 341 576 361 q 625 279 606 321 l 744 0 l 667 0 l 549 269 q 517 322 533 304 q 471 349 500 340 q 390 358 442 358 l 181 358 l 181 0 l 104 0 l 104 894 m 456 419 q 668 628 668 419 q 472 832 668 832 l 181 832 l 181 419 l 456 419 z "},"Ŕ":{"ha":822,"x_min":104,"x_max":744,"o":"m 456 1175 l 528 1175 l 425 956 l 363 956 l 456 1175 m 104 894 l 478 894 q 679 824 614 894 q 744 628 744 754 q 694 458 744 524 q 547 375 644 393 q 591 341 576 361 q 625 279 606 321 l 744 0 l 667 0 l 549 269 q 517 322 533 304 q 471 349 500 340 q 390 358 442 358 l 181 358 l 181 0 l 104 0 l 104 894 m 456 419 q 668 628 668 419 q 472 832 668 832 l 181 832 l 181 419 l 456 419 z "},"Ř":{"ha":822,"x_min":104,"x_max":744,"o":"m 228 1142 l 297 1142 l 407 999 l 517 1142 l 586 1142 l 440 954 l 374 954 l 228 1142 m 104 894 l 478 894 q 679 824 614 894 q 744 628 744 754 q 694 458 744 524 q 547 375 644 393 q 591 341 576 361 q 625 279 606 321 l 744 0 l 667 0 l 549 269 q 517 322 533 304 q 471 349 500 340 q 390 358 442 358 l 181 358 l 181 0 l 104 0 l 104 894 m 456 419 q 668 628 668 419 q 472 832 668 832 l 181 832 l 181 419 l 456 419 z "},"Ŗ":{"ha":822,"x_min":104,"x_max":744,"o":"m 104 894 l 478 894 q 679 824 614 894 q 744 628 744 754 q 694 458 744 524 q 547 375 644 393 q 591 341 576 361 q 625 279 606 321 l 744 0 l 667 0 l 549 269 q 517 322 533 304 q 471 349 500 340 q 390 358 442 358 l 181 358 l 181 0 l 104 0 l 104 894 m 456 419 q 668 628 668 419 q 472 832 668 832 l 181 832 l 181 419 l 456 419 m 349 -51 l 422 -51 l 369 -281 l 313 -281 l 349 -51 z "},"Ṛ":{"ha":822,"x_min":104,"x_max":744,"o":"m 104 894 l 478 894 q 679 824 614 894 q 744 628 744 754 q 694 458 744 524 q 547 375 644 393 q 591 341 576 361 q 625 279 606 321 l 744 0 l 667 0 l 549 269 q 517 322 533 304 q 471 349 500 340 q 390 358 442 358 l 181 358 l 181 0 l 104 0 l 104 894 m 456 419 q 668 628 668 419 q 472 832 668 832 l 181 832 l 181 419 l 456 419 m 369 -132 l 451 -132 l 451 -211 l 369 -211 l 369 -132 z "},"Ṝ":{"ha":822,"x_min":104,"x_max":744,"o":"m 213 1054 l 597 1054 l 597 996 l 213 996 l 213 1054 m 104 894 l 478 894 q 679 824 614 894 q 744 628 744 754 q 694 458 744 524 q 547 375 644 393 q 591 341 576 361 q 625 279 606 321 l 744 0 l 667 0 l 549 269 q 517 322 533 304 q 471 349 500 340 q 390 358 442 358 l 181 358 l 181 0 l 104 0 l 104 894 m 456 419 q 668 628 668 419 q 472 832 668 832 l 181 832 l 181 419 l 456 419 m 369 -132 l 451 -132 l 451 -211 l 369 -211 l 369 -132 z "},"Ṟ":{"ha":822,"x_min":104,"x_max":744,"o":"m 104 894 l 478 894 q 679 824 614 894 q 744 628 744 754 q 694 458 744 524 q 547 375 644 393 q 591 341 576 361 q 625 279 606 321 l 744 0 l 667 0 l 549 269 q 517 322 533 304 q 471 349 500 340 q 390 358 442 358 l 181 358 l 181 0 l 104 0 l 104 894 m 456 419 q 668 628 668 419 q 472 832 668 832 l 181 832 l 181 419 l 456 419 m 207 -103 l 592 -103 l 592 -161 l 207 -161 l 207 -103 z "},"S":{"ha":768,"x_min":76,"x_max":692,"o":"m 358 -14 q 99 25 197 -14 l 99 93 q 353 51 213 51 q 551 93 486 51 q 617 228 617 135 q 591 321 617 285 q 509 381 565 357 q 351 428 453 406 q 138 517 200 461 q 76 668 76 572 q 157 844 76 781 q 397 908 238 908 q 533 898 467 908 q 638 875 599 888 l 638 807 q 413 842 538 842 q 217 800 283 842 q 151 668 151 758 q 174 585 151 617 q 250 530 197 553 q 406 483 303 507 q 628 386 565 446 q 692 228 692 326 q 607 47 692 108 q 358 -14 522 -14 z "},"Ś":{"ha":768,"x_min":76,"x_max":692,"o":"m 425 1183 l 497 1183 l 394 964 l 332 964 l 425 1183 m 358 -14 q 99 25 197 -14 l 99 93 q 353 51 213 51 q 551 93 486 51 q 617 228 617 135 q 591 321 617 285 q 509 381 565 357 q 351 428 453 406 q 138 517 200 461 q 76 668 76 572 q 157 844 76 781 q 397 908 238 908 q 533 898 467 908 q 638 875 599 888 l 638 807 q 413 842 538 842 q 217 800 283 842 q 151 668 151 758 q 174 585 151 617 q 250 530 197 553 q 406 483 303 507 q 628 386 565 446 q 692 228 692 326 q 607 47 692 108 q 358 -14 522 -14 z "},"Š":{"ha":768,"x_min":76,"x_max":692,"o":"m 225 1142 l 294 1142 l 404 999 l 514 1142 l 583 1142 l 438 954 l 371 954 l 225 1142 m 358 -14 q 99 25 197 -14 l 99 93 q 353 51 213 51 q 551 93 486 51 q 617 228 617 135 q 591 321 617 285 q 509 381 565 357 q 351 428 453 406 q 138 517 200 461 q 76 668 76 572 q 157 844 76 781 q 397 908 238 908 q 533 898 467 908 q 638 875 599 888 l 638 807 q 413 842 538 842 q 217 800 283 842 q 151 668 151 758 q 174 585 151 617 q 250 530 197 553 q 406 483 303 507 q 628 386 565 446 q 692 228 692 326 q 607 47 692 108 q 358 -14 522 -14 z "},"Ş":{"ha":768,"x_min":76,"x_max":692,"o":"m 692 228 q 617 55 692 115 q 399 -12 543 -6 l 379 -71 q 497 -102 457 -71 q 538 -193 538 -133 q 491 -298 538 -262 q 344 -333 444 -333 q 297 -330 324 -333 q 253 -322 269 -326 l 253 -271 q 340 -282 293 -282 q 445 -262 413 -282 q 478 -193 478 -242 q 448 -133 478 -150 q 350 -117 418 -117 l 304 -117 l 339 -14 q 99 25 190 -12 l 99 93 q 353 51 213 51 q 551 93 486 51 q 617 228 617 135 q 591 321 617 285 q 509 381 565 357 q 351 428 453 406 q 138 517 200 461 q 76 668 76 572 q 157 844 76 781 q 397 908 238 908 q 533 898 467 908 q 638 875 599 888 l 638 807 q 413 842 538 842 q 217 800 283 842 q 151 668 151 758 q 174 585 151 617 q 250 530 197 553 q 406 483 303 507 q 628 386 565 446 q 692 228 692 326 z "},"Ŝ":{"ha":768,"x_min":76,"x_max":692,"o":"m 350 1164 l 417 1164 l 563 976 l 493 976 l 383 1119 l 274 976 l 204 976 l 350 1164 m 358 -14 q 99 25 197 -14 l 99 93 q 353 51 213 51 q 551 93 486 51 q 617 228 617 135 q 591 321 617 285 q 509 381 565 357 q 351 428 453 406 q 138 517 200 461 q 76 668 76 572 q 157 844 76 781 q 397 908 238 908 q 533 898 467 908 q 638 875 599 888 l 638 807 q 413 842 538 842 q 217 800 283 842 q 151 668 151 758 q 174 585 151 617 q 250 530 197 553 q 406 483 303 507 q 628 386 565 446 q 692 228 692 326 q 607 47 692 108 q 358 -14 522 -14 z "},"Ș":{"ha":768,"x_min":76,"x_max":692,"o":"m 358 -14 q 99 25 197 -14 l 99 93 q 353 51 213 51 q 551 93 486 51 q 617 228 617 135 q 591 321 617 285 q 509 381 565 357 q 351 428 453 406 q 138 517 200 461 q 76 668 76 572 q 157 844 76 781 q 397 908 238 908 q 533 898 467 908 q 638 875 599 888 l 638 807 q 413 842 538 842 q 217 800 283 842 q 151 668 151 758 q 174 585 151 617 q 250 530 197 553 q 406 483 303 507 q 628 386 565 446 q 692 228 692 326 q 607 47 692 108 q 358 -14 522 -14 m 342 -76 l 417 -76 l 365 -299 l 306 -299 l 342 -76 z "},"Ṡ":{"ha":768,"x_min":76,"x_max":692,"o":"m 342 1069 l 421 1069 l 421 992 l 342 992 l 342 1069 m 358 -14 q 99 25 197 -14 l 99 93 q 353 51 213 51 q 551 93 486 51 q 617 228 617 135 q 591 321 617 285 q 509 381 565 357 q 351 428 453 406 q 138 517 200 461 q 76 668 76 572 q 157 844 76 781 q 397 908 238 908 q 533 898 467 908 q 638 875 599 888 l 638 807 q 413 842 538 842 q 217 800 283 842 q 151 668 151 758 q 174 585 151 617 q 250 530 197 553 q 406 483 303 507 q 628 386 565 446 q 692 228 692 326 q 607 47 692 108 q 358 -14 522 -14 z "},"Ṣ":{"ha":768,"x_min":76,"x_max":692,"o":"m 358 -14 q 99 25 197 -14 l 99 93 q 353 51 213 51 q 551 93 486 51 q 617 228 617 135 q 591 321 617 285 q 509 381 565 357 q 351 428 453 406 q 138 517 200 461 q 76 668 76 572 q 157 844 76 781 q 397 908 238 908 q 533 898 467 908 q 638 875 599 888 l 638 807 q 413 842 538 842 q 217 800 283 842 q 151 668 151 758 q 174 585 151 617 q 250 530 197 553 q 406 483 303 507 q 628 386 565 446 q 692 228 692 326 q 607 47 692 108 q 358 -14 522 -14 m 332 -132 l 414 -132 l 414 -211 l 332 -211 l 332 -132 z "},"ẞ":{"ha":858,"x_min":97,"x_max":782,"o":"m 513 -14 q 313 17 389 -14 l 313 83 q 504 51 388 51 q 656 101 606 51 q 706 250 706 150 q 662 379 706 339 q 514 419 618 419 l 375 419 l 375 493 l 663 672 q 606 796 663 750 q 424 842 549 842 q 235 787 296 842 q 174 614 174 732 l 174 0 l 97 0 l 97 617 q 182 834 97 760 q 424 908 267 908 q 659 837 582 908 q 736 647 736 765 l 463 479 l 543 479 q 721 419 660 479 q 782 249 782 358 q 713 54 782 122 q 513 -14 643 -14 z "},"Ə":{"ha":919,"x_min":76,"x_max":843,"o":"m 438 -14 q 166 84 256 -14 q 76 343 76 182 l 76 488 l 772 488 q 729 689 768 611 q 605 806 690 767 q 375 844 519 844 q 133 796 251 844 l 133 860 q 258 895 190 882 q 392 908 326 908 q 736 794 629 908 q 843 439 843 681 q 746 103 843 219 q 438 -14 649 -14 m 438 49 q 692 144 611 49 q 772 428 772 239 l 146 428 l 146 335 q 221 122 146 196 q 438 49 296 49 z "},"T":{"ha":790,"x_min":49,"x_max":742,"o":"m 357 832 l 49 832 l 49 894 l 742 894 l 742 832 l 433 832 l 433 0 l 357 0 l 357 832 z "},"Ŧ":{"ha":790,"x_min":49,"x_max":742,"o":"m 357 463 l 135 463 l 135 524 l 357 524 l 357 832 l 49 832 l 49 894 l 742 894 l 742 832 l 433 832 l 433 524 l 632 524 l 632 463 l 433 463 l 433 0 l 357 0 l 357 463 z "},"Ť":{"ha":790,"x_min":49,"x_max":742,"o":"m 215 1164 l 285 1164 l 394 1021 l 504 1164 l 574 1164 l 428 976 l 361 976 l 215 1164 m 357 832 l 49 832 l 49 894 l 742 894 l 742 832 l 433 832 l 433 0 l 357 0 l 357 832 z "},"Ţ":{"ha":790,"x_min":49,"x_max":742,"o":"m 424 0 l 400 -71 q 518 -102 478 -71 q 558 -193 558 -133 q 512 -298 558 -262 q 365 -333 465 -333 q 317 -330 344 -333 q 274 -322 290 -326 l 274 -271 q 361 -282 314 -282 q 466 -262 433 -282 q 499 -193 499 -242 q 469 -133 499 -150 q 371 -117 439 -117 l 325 -117 l 364 0 l 357 0 l 357 832 l 49 832 l 49 894 l 742 894 l 742 832 l 433 832 l 433 0 l 424 0 z "},"Ț":{"ha":790,"x_min":49,"x_max":742,"o":"m 357 832 l 49 832 l 49 894 l 742 894 l 742 832 l 433 832 l 433 0 l 357 0 l 357 832 m 358 -56 l 432 -56 l 379 -285 l 322 -285 l 358 -56 z "},"Ṭ":{"ha":790,"x_min":49,"x_max":742,"o":"m 357 832 l 49 832 l 49 894 l 742 894 l 742 832 l 433 832 l 433 0 l 357 0 l 357 832 m 354 -129 l 436 -129 l 436 -208 l 354 -208 l 354 -129 z "},"Ṯ":{"ha":790,"x_min":49,"x_max":742,"o":"m 357 832 l 49 832 l 49 894 l 742 894 l 742 832 l 433 832 l 433 0 l 357 0 l 357 832 m 203 -100 l 588 -100 l 588 -158 l 203 -158 l 203 -100 z "},"U":{"ha":921,"x_min":97,"x_max":824,"o":"m 461 -14 q 189 72 281 -14 q 97 324 97 158 l 97 894 l 174 894 l 174 315 q 248 119 174 185 q 461 53 322 53 q 673 119 599 53 q 747 315 747 185 l 747 894 l 824 894 l 824 324 q 733 72 824 158 q 461 -14 642 -14 z "},"Ú":{"ha":921,"x_min":97,"x_max":824,"o":"m 511 1175 l 583 1175 l 481 956 l 418 956 l 511 1175 m 461 -14 q 189 72 281 -14 q 97 324 97 158 l 97 894 l 174 894 l 174 315 q 248 119 174 185 q 461 53 322 53 q 673 119 599 53 q 747 315 747 185 l 747 894 l 824 894 l 824 324 q 733 72 824 158 q 461 -14 642 -14 z "},"Ŭ":{"ha":921,"x_min":97,"x_max":824,"o":"m 460 954 q 348 997 390 954 q 306 1108 306 1040 l 364 1108 q 390 1035 364 1061 q 460 1008 417 1008 q 531 1035 504 1008 q 557 1108 557 1061 l 615 1108 q 573 997 615 1040 q 460 954 531 954 m 461 -14 q 189 72 281 -14 q 97 324 97 158 l 97 894 l 174 894 l 174 315 q 248 119 174 185 q 461 53 322 53 q 673 119 599 53 q 747 315 747 185 l 747 894 l 824 894 l 824 324 q 733 72 824 158 q 461 -14 642 -14 z "},"Ǔ":{"ha":921,"x_min":97,"x_max":824,"o":"m 281 1142 l 350 1142 l 460 999 l 569 1142 l 639 1142 l 493 954 l 426 954 l 281 1142 m 461 -14 q 189 72 281 -14 q 97 324 97 158 l 97 894 l 174 894 l 174 315 q 248 119 174 185 q 461 53 322 53 q 673 119 599 53 q 747 315 747 185 l 747 894 l 824 894 l 824 324 q 733 72 824 158 q 461 -14 642 -14 z "},"Û":{"ha":921,"x_min":97,"x_max":824,"o":"m 426 1142 l 493 1142 l 639 954 l 569 954 l 460 1097 l 350 954 l 281 954 l 426 1142 m 461 -14 q 189 72 281 -14 q 97 324 97 158 l 97 894 l 174 894 l 174 315 q 248 119 174 185 q 461 53 322 53 q 673 119 599 53 q 747 315 747 185 l 747 894 l 824 894 l 824 324 q 733 72 824 158 q 461 -14 642 -14 z "},"Ü":{"ha":921,"x_min":97,"x_max":824,"o":"m 296 1068 l 375 1068 l 375 992 l 296 992 l 296 1068 m 528 1068 l 606 1068 l 606 992 l 528 992 l 528 1068 m 461 -14 q 189 72 281 -14 q 97 324 97 158 l 97 894 l 174 894 l 174 315 q 248 119 174 185 q 461 53 322 53 q 673 119 599 53 q 747 315 747 185 l 747 894 l 824 894 l 824 324 q 733 72 824 158 q 461 -14 642 -14 z "},"Ǘ":{"ha":921,"x_min":97,"x_max":824,"o":"m 507 1224 l 578 1224 l 486 1061 l 424 1061 l 507 1224 m 294 1031 l 374 1031 l 374 954 l 294 954 l 294 1031 m 540 1031 l 618 1031 l 618 954 l 540 954 l 540 1031 m 461 -14 q 189 72 281 -14 q 97 324 97 158 l 97 894 l 174 894 l 174 315 q 248 119 174 185 q 461 53 322 53 q 673 119 599 53 q 747 315 747 185 l 747 894 l 824 894 l 824 324 q 733 72 824 158 q 461 -14 642 -14 z "},"Ǚ":{"ha":921,"x_min":97,"x_max":824,"o":"m 283 1214 l 351 1214 l 460 1096 l 568 1214 l 636 1214 l 493 1061 l 426 1061 l 283 1214 m 294 1031 l 374 1031 l 374 954 l 294 954 l 294 1031 m 540 1031 l 618 1031 l 618 954 l 540 954 l 540 1031 m 461 -14 q 189 72 281 -14 q 97 324 97 158 l 97 894 l 174 894 l 174 315 q 248 119 174 185 q 461 53 322 53 q 673 119 599 53 q 747 315 747 185 l 747 894 l 824 894 l 824 324 q 733 72 824 158 q 461 -14 642 -14 z "},"Ǜ":{"ha":921,"x_min":97,"x_max":824,"o":"m 339 1224 l 410 1224 l 493 1061 l 431 1061 l 339 1224 m 299 1031 l 376 1031 l 376 954 l 299 954 l 299 1031 m 543 1031 l 622 1031 l 622 954 l 543 954 l 543 1031 m 461 -14 q 189 72 281 -14 q 97 324 97 158 l 97 894 l 174 894 l 174 315 q 248 119 174 185 q 461 53 322 53 q 673 119 599 53 q 747 315 747 185 l 747 894 l 824 894 l 824 324 q 733 72 824 158 q 461 -14 642 -14 z "},"Ǖ":{"ha":921,"x_min":97,"x_max":824,"o":"m 268 1196 l 653 1196 l 653 1138 l 268 1138 l 268 1196 m 306 1064 l 385 1064 l 385 988 l 306 988 l 306 1064 m 538 1064 l 615 1064 l 615 988 l 538 988 l 538 1064 m 461 -14 q 189 72 281 -14 q 97 324 97 158 l 97 894 l 174 894 l 174 315 q 248 119 174 185 q 461 53 322 53 q 673 119 599 53 q 747 315 747 185 l 747 894 l 824 894 l 824 324 q 733 72 824 158 q 461 -14 642 -14 z "},"Ụ":{"ha":921,"x_min":97,"x_max":824,"o":"m 461 -14 q 189 72 281 -14 q 97 324 97 158 l 97 894 l 174 894 l 174 315 q 248 119 174 185 q 461 53 322 53 q 673 119 599 53 q 747 315 747 185 l 747 894 l 824 894 l 824 324 q 733 72 824 158 q 461 -14 642 -14 m 419 -132 l 501 -132 l 501 -211 l 419 -211 l 419 -132 z "},"Ù":{"ha":921,"x_min":97,"x_max":824,"o":"m 354 1175 l 426 1175 l 519 956 l 457 956 l 354 1175 m 461 -14 q 189 72 281 -14 q 97 324 97 158 l 97 894 l 174 894 l 174 315 q 248 119 174 185 q 461 53 322 53 q 673 119 599 53 q 747 315 747 185 l 747 894 l 824 894 l 824 324 q 733 72 824 158 q 461 -14 642 -14 z "},"Ủ":{"ha":921,"x_min":97,"x_max":824,"o":"m 424 1065 q 506 1077 478 1068 q 544 1103 535 1086 q 554 1147 554 1119 q 526 1203 554 1185 q 439 1221 499 1221 q 390 1216 417 1221 q 346 1204 364 1211 l 346 1257 q 395 1269 364 1264 q 453 1274 426 1274 q 573 1242 532 1274 q 614 1151 614 1210 q 585 1065 614 1094 q 489 1028 557 1035 l 489 956 l 424 956 l 424 1065 m 461 -14 q 189 72 281 -14 q 97 324 97 158 l 97 894 l 174 894 l 174 315 q 248 119 174 185 q 461 53 322 53 q 673 119 599 53 q 747 315 747 185 l 747 894 l 824 894 l 824 324 q 733 72 824 158 q 461 -14 642 -14 z "},"Ư":{"ha":1090,"x_min":97,"x_max":1042,"o":"m 461 -14 q 189 72 281 -14 q 97 324 97 158 l 97 894 l 174 894 l 174 315 q 248 119 174 185 q 461 53 322 53 q 673 119 599 53 q 747 315 747 185 l 747 894 l 824 894 l 824 783 q 915 799 882 783 q 961 852 947 815 q 975 956 975 889 l 1042 956 q 988 774 1042 826 q 824 721 935 722 l 824 324 q 733 72 824 158 q 461 -14 642 -14 z "},"Ứ":{"ha":1090,"x_min":97,"x_max":1042,"o":"m 535 1175 l 607 1175 l 504 956 l 442 956 l 535 1175 m 461 -14 q 189 72 281 -14 q 97 324 97 158 l 97 894 l 174 894 l 174 315 q 248 119 174 185 q 461 53 322 53 q 673 119 599 53 q 747 315 747 185 l 747 894 l 824 894 l 824 783 q 915 799 882 783 q 961 852 947 815 q 975 956 975 889 l 1042 956 q 988 774 1042 826 q 824 721 935 722 l 824 324 q 733 72 824 158 q 461 -14 642 -14 z "},"Ự":{"ha":1090,"x_min":97,"x_max":1042,"o":"m 461 -14 q 189 72 281 -14 q 97 324 97 158 l 97 894 l 174 894 l 174 315 q 248 119 174 185 q 461 53 322 53 q 673 119 599 53 q 747 315 747 185 l 747 894 l 824 894 l 824 783 q 915 799 882 783 q 961 852 947 815 q 975 956 975 889 l 1042 956 q 988 774 1042 826 q 824 721 935 722 l 824 324 q 733 72 824 158 q 461 -14 642 -14 m 415 -132 l 497 -132 l 497 -211 l 415 -211 l 415 -132 z "},"Ừ":{"ha":1090,"x_min":97,"x_max":1042,"o":"m 340 1175 l 413 1175 l 506 956 l 443 956 l 340 1175 m 461 -14 q 189 72 281 -14 q 97 324 97 158 l 97 894 l 174 894 l 174 315 q 248 119 174 185 q 461 53 322 53 q 673 119 599 53 q 747 315 747 185 l 747 894 l 824 894 l 824 783 q 915 799 882 783 q 961 852 947 815 q 975 956 975 889 l 1042 956 q 988 774 1042 826 q 824 721 935 722 l 824 324 q 733 72 824 158 q 461 -14 642 -14 z "},"Ử":{"ha":1090,"x_min":97,"x_max":1042,"o":"m 438 1065 q 520 1077 492 1068 q 558 1103 549 1086 q 568 1147 568 1119 q 540 1203 568 1185 q 453 1221 513 1221 q 404 1216 431 1221 q 360 1204 378 1211 l 360 1257 q 409 1269 378 1264 q 467 1274 440 1274 q 587 1242 546 1274 q 628 1151 628 1210 q 599 1065 628 1094 q 503 1028 571 1035 l 503 956 l 438 956 l 438 1065 m 461 -14 q 189 72 281 -14 q 97 324 97 158 l 97 894 l 174 894 l 174 315 q 248 119 174 185 q 461 53 322 53 q 673 119 599 53 q 747 315 747 185 l 747 894 l 824 894 l 824 783 q 915 799 882 783 q 961 852 947 815 q 975 956 975 889 l 1042 956 q 988 774 1042 826 q 824 721 935 722 l 824 324 q 733 72 824 158 q 461 -14 642 -14 z "},"Ữ":{"ha":1090,"x_min":97,"x_max":1042,"o":"m 556 989 q 508 996 532 989 q 454 1017 485 1003 q 371 1040 399 1040 q 261 992 301 1040 l 261 1057 q 308 1086 278 1075 q 369 1097 338 1097 q 415 1091 394 1097 q 467 1071 435 1085 q 513 1052 494 1058 q 553 1046 532 1046 q 611 1058 586 1046 q 654 1094 636 1069 l 654 1029 q 615 999 640 1010 q 556 989 589 989 m 461 -14 q 189 72 281 -14 q 97 324 97 158 l 97 894 l 174 894 l 174 315 q 248 119 174 185 q 461 53 322 53 q 673 119 599 53 q 747 315 747 185 l 747 894 l 824 894 l 824 783 q 915 799 882 783 q 961 852 947 815 q 975 956 975 889 l 1042 956 q 988 774 1042 826 q 824 721 935 722 l 824 324 q 733 72 824 158 q 461 -14 642 -14 z "},"Ű":{"ha":921,"x_min":97,"x_max":824,"o":"m 336 1150 l 411 1150 l 306 954 l 243 954 l 336 1150 m 613 1150 l 688 1150 l 582 954 l 519 954 l 613 1150 m 461 -14 q 189 72 281 -14 q 97 324 97 158 l 97 894 l 174 894 l 174 315 q 248 119 174 185 q 461 53 322 53 q 673 119 599 53 q 747 315 747 185 l 747 894 l 824 894 l 824 324 q 733 72 824 158 q 461 -14 642 -14 z "},"Ū":{"ha":921,"x_min":97,"x_max":824,"o":"m 268 1057 l 653 1057 l 653 999 l 268 999 l 268 1057 m 461 -14 q 189 72 281 -14 q 97 324 97 158 l 97 894 l 174 894 l 174 315 q 248 119 174 185 q 461 53 322 53 q 673 119 599 53 q 747 315 747 185 l 747 894 l 824 894 l 824 324 q 733 72 824 158 q 461 -14 642 -14 z "},"Ų":{"ha":921,"x_min":97,"x_max":824,"o":"m 824 894 l 824 324 q 747 86 824 171 q 515 -11 669 1 q 428 -178 428 -86 q 445 -232 428 -215 q 501 -249 463 -249 q 539 -244 519 -249 q 571 -233 558 -240 l 571 -290 q 489 -306 542 -306 q 397 -277 432 -306 q 363 -186 363 -249 q 386 -92 363 -137 q 449 -14 410 -46 q 185 75 274 -11 q 97 324 97 161 l 97 894 l 174 894 l 174 315 q 248 119 174 185 q 461 53 322 53 q 673 119 599 53 q 747 315 747 185 l 747 894 l 824 894 z "},"Ů":{"ha":921,"x_min":97,"x_max":824,"o":"m 460 954 q 358 995 399 954 q 318 1094 318 1036 q 358 1195 318 1154 q 460 1236 399 1236 q 563 1195 522 1236 q 603 1094 603 1154 q 563 995 603 1036 q 460 954 522 954 m 460 1004 q 526 1030 500 1004 q 551 1094 551 1056 q 526 1160 551 1135 q 460 1186 500 1186 q 394 1160 421 1186 q 368 1094 368 1135 q 394 1030 368 1056 q 460 1004 421 1004 m 461 -14 q 189 72 281 -14 q 97 324 97 158 l 97 894 l 174 894 l 174 315 q 248 119 174 185 q 461 53 322 53 q 673 119 599 53 q 747 315 747 185 l 747 894 l 824 894 l 824 324 q 733 72 824 158 q 461 -14 642 -14 z "},"Ũ":{"ha":921,"x_min":97,"x_max":824,"o":"m 558 990 q 511 997 535 990 q 457 1018 488 1004 q 374 1042 401 1042 q 264 993 304 1042 l 264 1058 q 310 1088 281 1076 q 372 1099 340 1099 q 417 1092 397 1099 q 469 1072 438 1086 q 516 1053 497 1060 q 556 1047 535 1047 q 614 1059 589 1047 q 657 1096 639 1071 l 657 1031 q 617 1001 643 1011 q 558 990 592 990 m 461 -14 q 189 72 281 -14 q 97 324 97 158 l 97 894 l 174 894 l 174 315 q 248 119 174 185 q 461 53 322 53 q 673 119 599 53 q 747 315 747 185 l 747 894 l 824 894 l 824 324 q 733 72 824 158 q 461 -14 642 -14 z "},"V":{"ha":928,"x_min":76,"x_max":851,"o":"m 76 894 l 156 894 l 464 68 l 772 894 l 851 894 l 514 0 l 414 0 l 76 894 z "},"W":{"ha":1181,"x_min":76,"x_max":1104,"o":"m 76 894 l 153 894 l 338 93 l 554 804 l 554 894 l 617 894 l 843 93 l 1029 894 l 1104 894 l 897 0 l 806 0 l 599 736 l 378 0 l 285 0 l 76 894 z "},"Ẃ":{"ha":1181,"x_min":76,"x_max":1104,"o":"m 661 1175 l 733 1175 l 631 956 l 568 956 l 661 1175 m 76 894 l 153 894 l 338 93 l 554 804 l 554 894 l 617 894 l 843 93 l 1029 894 l 1104 894 l 897 0 l 806 0 l 599 736 l 378 0 l 285 0 l 76 894 z "},"Ŵ":{"ha":1181,"x_min":76,"x_max":1104,"o":"m 564 1142 l 631 1142 l 776 954 l 707 954 l 597 1097 l 488 954 l 418 954 l 564 1142 m 76 894 l 153 894 l 338 93 l 554 804 l 554 894 l 617 894 l 843 93 l 1029 894 l 1104 894 l 897 0 l 806 0 l 599 736 l 378 0 l 285 0 l 76 894 z "},"Ẅ":{"ha":1181,"x_min":76,"x_max":1104,"o":"m 443 1065 l 522 1065 l 522 989 l 443 989 l 443 1065 m 675 1065 l 753 1065 l 753 989 l 675 989 l 675 1065 m 76 894 l 153 894 l 338 93 l 554 804 l 554 894 l 617 894 l 843 93 l 1029 894 l 1104 894 l 897 0 l 806 0 l 599 736 l 378 0 l 285 0 l 76 894 z "},"Ẁ":{"ha":1181,"x_min":76,"x_max":1104,"o":"m 454 1175 l 526 1175 l 619 956 l 557 956 l 454 1175 m 76 894 l 153 894 l 338 93 l 554 804 l 554 894 l 617 894 l 843 93 l 1029 894 l 1104 894 l 897 0 l 806 0 l 599 736 l 378 0 l 285 0 l 76 894 z "},"X":{"ha":867,"x_min":76,"x_max":790,"o":"m 388 442 l 78 894 l 164 894 l 433 496 l 703 894 l 788 894 l 478 442 l 790 0 l 704 0 l 433 386 l 163 0 l 76 0 l 388 442 z "},"Y":{"ha":867,"x_min":76,"x_max":790,"o":"m 394 335 l 76 894 l 156 894 l 433 401 l 711 894 l 790 894 l 471 335 l 471 0 l 394 0 l 394 335 z "},"Ý":{"ha":867,"x_min":76,"x_max":790,"o":"m 476 1175 l 549 1175 l 446 956 l 383 956 l 476 1175 m 394 335 l 76 894 l 156 894 l 433 401 l 711 894 l 790 894 l 471 335 l 471 0 l 394 0 l 394 335 z "},"Ŷ":{"ha":867,"x_min":76,"x_max":790,"o":"m 399 1142 l 465 1142 l 611 954 l 542 954 l 432 1097 l 322 954 l 253 954 l 399 1142 m 394 335 l 76 894 l 156 894 l 433 401 l 711 894 l 790 894 l 471 335 l 471 0 l 394 0 l 394 335 z "},"Ÿ":{"ha":867,"x_min":76,"x_max":790,"o":"m 279 1068 l 358 1068 l 358 992 l 279 992 l 279 1068 m 511 1068 l 589 1068 l 589 992 l 511 992 l 511 1068 m 394 335 l 76 894 l 156 894 l 433 401 l 711 894 l 790 894 l 471 335 l 471 0 l 394 0 l 394 335 z "},"Ẏ":{"ha":867,"x_min":76,"x_max":790,"o":"m 393 1069 l 472 1069 l 472 992 l 393 992 l 393 1069 m 394 335 l 76 894 l 156 894 l 433 401 l 711 894 l 790 894 l 471 335 l 471 0 l 394 0 l 394 335 z "},"Ỵ":{"ha":867,"x_min":76,"x_max":790,"o":"m 394 335 l 76 894 l 156 894 l 433 401 l 711 894 l 790 894 l 471 335 l 471 0 l 394 0 l 394 335 m 393 -108 l 475 -108 l 475 -187 l 393 -187 l 393 -108 z "},"Ỳ":{"ha":867,"x_min":76,"x_max":790,"o":"m 318 1175 l 390 1175 l 483 956 l 421 956 l 318 1175 m 394 335 l 76 894 l 156 894 l 433 401 l 711 894 l 790 894 l 471 335 l 471 0 l 394 0 l 394 335 z "},"Ỷ":{"ha":867,"x_min":76,"x_max":790,"o":"m 385 1065 q 467 1077 439 1068 q 506 1103 496 1086 q 515 1147 515 1119 q 488 1203 515 1185 q 400 1221 460 1221 q 351 1216 378 1221 q 307 1204 325 1211 l 307 1257 q 356 1269 325 1264 q 414 1274 388 1274 q 534 1242 493 1274 q 575 1151 575 1210 q 547 1065 575 1094 q 450 1028 518 1035 l 450 956 l 385 956 l 385 1065 m 394 335 l 76 894 l 156 894 l 433 401 l 711 894 l 790 894 l 471 335 l 471 0 l 394 0 l 394 335 z "},"Ỹ":{"ha":867,"x_min":76,"x_max":790,"o":"m 532 990 q 485 997 508 990 q 431 1018 461 1004 q 347 1042 375 1042 q 238 993 278 1042 l 238 1058 q 284 1088 254 1076 q 346 1099 314 1099 q 391 1092 371 1099 q 443 1072 411 1086 q 490 1053 471 1060 q 529 1047 508 1047 q 588 1059 563 1047 q 631 1096 613 1071 l 631 1031 q 591 1001 617 1011 q 532 990 565 990 m 394 335 l 76 894 l 156 894 l 433 401 l 711 894 l 790 894 l 471 335 l 471 0 l 394 0 l 394 335 z "},"Z":{"ha":789,"x_min":76,"x_max":719,"o":"m 76 47 l 618 832 l 100 832 l 100 894 l 713 894 l 713 840 l 175 61 l 719 61 l 719 0 l 76 0 l 76 47 z "},"Ź":{"ha":789,"x_min":76,"x_max":719,"o":"m 481 1175 l 553 1175 l 450 956 l 388 956 l 481 1175 m 76 47 l 618 832 l 100 832 l 100 894 l 713 894 l 713 840 l 175 61 l 719 61 l 719 0 l 76 0 l 76 47 z "},"Ž":{"ha":789,"x_min":76,"x_max":719,"o":"m 247 1142 l 317 1142 l 426 999 l 536 1142 l 606 1142 l 460 954 l 393 954 l 247 1142 m 76 47 l 618 832 l 100 832 l 100 894 l 713 894 l 713 840 l 175 61 l 719 61 l 719 0 l 76 0 l 76 47 z "},"Ż":{"ha":789,"x_min":76,"x_max":719,"o":"m 376 1069 l 456 1069 l 456 992 l 376 992 l 376 1069 m 76 47 l 618 832 l 100 832 l 100 894 l 713 894 l 713 840 l 175 61 l 719 61 l 719 0 l 76 0 l 76 47 z "},"Ẓ":{"ha":789,"x_min":76,"x_max":719,"o":"m 76 47 l 618 832 l 100 832 l 100 894 l 713 894 l 713 840 l 175 61 l 719 61 l 719 0 l 76 0 l 76 47 m 363 -132 l 444 -132 l 444 -211 l 363 -211 l 363 -132 z "},"a":{"ha":738,"x_min":76,"x_max":640,"o":"m 306 -14 q 141 33 206 -14 q 76 175 76 81 q 135 320 76 268 q 321 372 193 372 l 567 372 l 567 435 q 550 537 567 500 q 489 590 533 574 q 361 607 444 607 q 151 571 253 607 l 151 636 q 375 672 244 672 q 576 617 513 672 q 640 436 640 561 l 640 0 l 578 0 l 571 82 q 462 9 525 32 q 306 -14 399 -14 m 325 50 q 567 153 479 50 l 567 311 l 324 311 q 190 278 229 311 q 151 175 151 244 q 196 79 151 108 q 325 50 240 50 z "},"á":{"ha":738,"x_min":76,"x_max":640,"o":"m 443 944 l 515 944 l 413 725 l 350 725 l 443 944 m 306 -14 q 141 33 206 -14 q 76 175 76 81 q 135 320 76 268 q 321 372 193 372 l 567 372 l 567 435 q 550 537 567 500 q 489 590 533 574 q 361 607 444 607 q 151 571 253 607 l 151 636 q 375 672 244 672 q 576 617 513 672 q 640 436 640 561 l 640 0 l 578 0 l 571 82 q 462 9 525 32 q 306 -14 399 -14 m 325 50 q 567 153 479 50 l 567 311 l 324 311 q 190 278 229 311 q 151 175 151 244 q 196 79 151 108 q 325 50 240 50 z "},"ă":{"ha":738,"x_min":76,"x_max":640,"o":"m 396 724 q 284 767 326 724 q 242 878 242 810 l 300 878 q 326 804 300 831 q 396 778 353 778 q 467 804 440 778 q 493 878 493 831 l 551 878 q 509 767 551 810 q 396 724 467 724 m 306 -14 q 141 33 206 -14 q 76 175 76 81 q 135 320 76 268 q 321 372 193 372 l 567 372 l 567 435 q 550 537 567 500 q 489 590 533 574 q 361 607 444 607 q 151 571 253 607 l 151 636 q 375 672 244 672 q 576 617 513 672 q 640 436 640 561 l 640 0 l 578 0 l 571 82 q 462 9 525 32 q 306 -14 399 -14 m 325 50 q 567 153 479 50 l 567 311 l 324 311 q 190 278 229 311 q 151 175 151 244 q 196 79 151 108 q 325 50 240 50 z "},"ắ":{"ha":738,"x_min":76,"x_max":640,"o":"m 439 1024 l 504 1024 l 413 861 l 356 861 l 439 1024 m 400 725 q 261 769 315 725 q 207 908 207 814 l 261 908 q 299 808 261 842 q 400 775 336 775 q 501 808 464 775 q 539 908 539 842 l 592 908 q 538 769 592 814 q 400 725 483 725 m 306 -14 q 141 33 206 -14 q 76 175 76 81 q 135 320 76 268 q 321 372 193 372 l 567 372 l 567 435 q 550 537 567 500 q 489 590 533 574 q 361 607 444 607 q 151 571 253 607 l 151 636 q 375 672 244 672 q 576 617 513 672 q 640 436 640 561 l 640 0 l 578 0 l 571 82 q 462 9 525 32 q 306 -14 399 -14 m 325 50 q 567 153 479 50 l 567 311 l 324 311 q 190 278 229 311 q 151 175 151 244 q 196 79 151 108 q 325 50 240 50 z "},"ặ":{"ha":738,"x_min":76,"x_max":640,"o":"m 388 724 q 276 767 318 724 q 233 878 233 810 l 292 878 q 318 804 292 831 q 388 778 344 778 q 458 804 432 778 q 485 878 485 831 l 543 878 q 501 767 543 810 q 388 724 458 724 m 306 -14 q 141 33 206 -14 q 76 175 76 81 q 135 320 76 268 q 321 372 193 372 l 567 372 l 567 435 q 550 537 567 500 q 489 590 533 574 q 361 607 444 607 q 151 571 253 607 l 151 636 q 375 672 244 672 q 576 617 513 672 q 640 436 640 561 l 640 0 l 578 0 l 571 82 q 462 9 525 32 q 306 -14 399 -14 m 325 50 q 567 153 479 50 l 567 311 l 324 311 q 190 278 229 311 q 151 175 151 244 q 196 79 151 108 q 325 50 240 50 m 349 -132 l 431 -132 l 431 -211 l 349 -211 l 349 -132 z "},"ằ":{"ha":738,"x_min":76,"x_max":640,"o":"m 283 1024 l 349 1024 l 431 861 l 375 861 l 283 1024 m 388 725 q 249 769 303 725 q 194 908 194 814 l 249 908 q 286 808 249 842 q 388 775 324 775 q 489 808 451 775 q 526 908 526 842 l 579 908 q 525 769 579 814 q 388 725 471 725 m 306 -14 q 141 33 206 -14 q 76 175 76 81 q 135 320 76 268 q 321 372 193 372 l 567 372 l 567 435 q 550 537 567 500 q 489 590 533 574 q 361 607 444 607 q 151 571 253 607 l 151 636 q 375 672 244 672 q 576 617 513 672 q 640 436 640 561 l 640 0 l 578 0 l 571 82 q 462 9 525 32 q 306 -14 399 -14 m 325 50 q 567 153 479 50 l 567 311 l 324 311 q 190 278 229 311 q 151 175 151 244 q 196 79 151 108 q 325 50 240 50 z "},"ẳ":{"ha":738,"x_min":76,"x_max":640,"o":"m 339 926 q 431 944 407 929 q 454 992 454 960 q 379 1050 454 1050 q 297 1032 338 1050 l 297 1078 q 390 1094 340 1094 q 479 1069 447 1094 q 511 996 511 1043 q 485 928 511 951 q 400 896 460 904 l 400 847 l 339 847 l 339 926 m 388 725 q 249 769 303 725 q 194 908 194 814 l 249 908 q 286 808 249 842 q 388 775 324 775 q 489 808 451 775 q 526 908 526 842 l 579 908 q 525 769 579 814 q 388 725 471 725 m 306 -14 q 141 33 206 -14 q 76 175 76 81 q 135 320 76 268 q 321 372 193 372 l 567 372 l 567 435 q 550 537 567 500 q 489 590 533 574 q 361 607 444 607 q 151 571 253 607 l 151 636 q 375 672 244 672 q 576 617 513 672 q 640 436 640 561 l 640 0 l 578 0 l 571 82 q 462 9 525 32 q 306 -14 399 -14 m 325 50 q 567 153 479 50 l 567 311 l 324 311 q 190 278 229 311 q 151 175 151 244 q 196 79 151 108 q 325 50 240 50 z "},"ẵ":{"ha":738,"x_min":76,"x_max":640,"o":"m 475 947 q 431 953 451 947 q 382 972 411 960 q 340 989 357 983 q 307 994 324 994 q 250 985 275 994 q 203 950 225 975 l 203 1010 q 247 1038 219 1028 q 304 1047 275 1047 q 349 1041 328 1047 q 394 1022 369 1035 q 437 1006 419 1011 q 474 1000 454 1000 q 530 1010 506 1000 q 574 1046 554 1021 l 574 985 q 533 957 560 967 q 475 947 507 947 m 389 725 q 250 769 304 725 q 196 908 196 814 l 250 908 q 288 808 250 842 q 389 775 325 775 q 490 808 453 775 q 528 908 528 842 l 581 908 q 526 769 581 814 q 389 725 472 725 m 306 -14 q 141 33 206 -14 q 76 175 76 81 q 135 320 76 268 q 321 372 193 372 l 567 372 l 567 435 q 550 537 567 500 q 489 590 533 574 q 361 607 444 607 q 151 571 253 607 l 151 636 q 375 672 244 672 q 576 617 513 672 q 640 436 640 561 l 640 0 l 578 0 l 571 82 q 462 9 525 32 q 306 -14 399 -14 m 325 50 q 567 153 479 50 l 567 311 l 324 311 q 190 278 229 311 q 151 175 151 244 q 196 79 151 108 q 325 50 240 50 z "},"ǎ":{"ha":738,"x_min":76,"x_max":640,"o":"m 204 911 l 274 911 l 383 768 l 493 911 l 563 911 l 417 724 l 350 724 l 204 911 m 306 -14 q 141 33 206 -14 q 76 175 76 81 q 135 320 76 268 q 321 372 193 372 l 567 372 l 567 435 q 550 537 567 500 q 489 590 533 574 q 361 607 444 607 q 151 571 253 607 l 151 636 q 375 672 244 672 q 576 617 513 672 q 640 436 640 561 l 640 0 l 578 0 l 571 82 q 462 9 525 32 q 306 -14 399 -14 m 325 50 q 567 153 479 50 l 567 311 l 324 311 q 190 278 229 311 q 151 175 151 244 q 196 79 151 108 q 325 50 240 50 z "},"â":{"ha":738,"x_min":76,"x_max":640,"o":"m 353 911 l 419 911 l 565 724 l 496 724 l 386 867 l 276 724 l 207 724 l 353 911 m 306 -14 q 141 33 206 -14 q 76 175 76 81 q 135 320 76 268 q 321 372 193 372 l 567 372 l 567 435 q 550 537 567 500 q 489 590 533 574 q 361 607 444 607 q 151 571 253 607 l 151 636 q 375 672 244 672 q 576 617 513 672 q 640 436 640 561 l 640 0 l 578 0 l 571 82 q 462 9 525 32 q 306 -14 399 -14 m 325 50 q 567 153 479 50 l 567 311 l 324 311 q 190 278 229 311 q 151 175 151 244 q 196 79 151 108 q 325 50 240 50 z "},"ấ":{"ha":738,"x_min":76,"x_max":640,"o":"m 569 1033 l 635 1033 l 543 871 l 486 871 l 569 1033 m 357 876 l 424 876 l 567 724 l 499 724 l 390 842 l 282 724 l 214 724 l 357 876 m 306 -14 q 141 33 206 -14 q 76 175 76 81 q 135 320 76 268 q 321 372 193 372 l 567 372 l 567 435 q 550 537 567 500 q 489 590 533 574 q 361 607 444 607 q 151 571 253 607 l 151 636 q 375 672 244 672 q 576 617 513 672 q 640 436 640 561 l 640 0 l 578 0 l 571 82 q 462 9 525 32 q 306 -14 399 -14 m 325 50 q 567 153 479 50 l 567 311 l 324 311 q 190 278 229 311 q 151 175 151 244 q 196 79 151 108 q 325 50 240 50 z "},"ậ":{"ha":738,"x_min":76,"x_max":640,"o":"m 350 911 l 417 911 l 563 724 l 493 724 l 383 867 l 274 724 l 204 724 l 350 911 m 306 -14 q 141 33 206 -14 q 76 175 76 81 q 135 320 76 268 q 321 372 193 372 l 567 372 l 567 435 q 550 537 567 500 q 489 590 533 574 q 361 607 444 607 q 151 571 253 607 l 151 636 q 375 672 244 672 q 576 617 513 672 q 640 436 640 561 l 640 0 l 578 0 l 571 82 q 462 9 525 32 q 306 -14 399 -14 m 325 50 q 567 153 479 50 l 567 311 l 324 311 q 190 278 229 311 q 151 175 151 244 q 196 79 151 108 q 325 50 240 50 m 343 -132 l 425 -132 l 425 -211 l 343 -211 l 343 -132 z "},"ầ":{"ha":738,"x_min":76,"x_max":640,"o":"m 135 1033 l 200 1033 l 282 871 l 226 871 l 135 1033 m 346 876 l 413 876 l 556 724 l 486 724 l 379 842 l 271 724 l 203 724 l 346 876 m 306 -14 q 141 33 206 -14 q 76 175 76 81 q 135 320 76 268 q 321 372 193 372 l 567 372 l 567 435 q 550 537 567 500 q 489 590 533 574 q 361 607 444 607 q 151 571 253 607 l 151 636 q 375 672 244 672 q 576 617 513 672 q 640 436 640 561 l 640 0 l 578 0 l 571 82 q 462 9 525 32 q 306 -14 399 -14 m 325 50 q 567 153 479 50 l 567 311 l 324 311 q 190 278 229 311 q 151 175 151 244 q 196 79 151 108 q 325 50 240 50 z "},"ẩ":{"ha":738,"x_min":76,"x_max":661,"o":"m 488 924 q 580 942 557 928 q 603 988 603 957 q 529 1044 603 1044 q 447 1026 486 1044 l 447 1074 q 539 1090 488 1090 q 628 1064 596 1090 q 661 990 661 1038 q 635 922 661 946 q 550 892 608 897 l 550 842 l 488 842 l 488 924 m 347 876 l 414 876 l 557 724 l 489 724 l 381 842 l 274 724 l 204 724 l 347 876 m 306 -14 q 141 33 206 -14 q 76 175 76 81 q 135 320 76 268 q 321 372 193 372 l 567 372 l 567 435 q 550 537 567 500 q 489 590 533 574 q 361 607 444 607 q 151 571 253 607 l 151 636 q 375 672 244 672 q 576 617 513 672 q 640 436 640 561 l 640 0 l 578 0 l 571 82 q 462 9 525 32 q 306 -14 399 -14 m 325 50 q 567 153 479 50 l 567 311 l 324 311 q 190 278 229 311 q 151 175 151 244 q 196 79 151 108 q 325 50 240 50 z "},"ẫ":{"ha":738,"x_min":76,"x_max":640,"o":"m 479 888 q 435 894 456 888 q 386 913 415 900 q 311 933 339 933 q 254 924 279 933 q 207 889 229 914 l 207 950 q 251 976 224 967 q 308 986 279 986 q 351 981 332 986 q 399 963 369 975 q 441 946 424 951 q 478 940 458 940 q 534 951 510 940 q 578 985 558 961 l 578 924 q 536 897 563 907 q 479 888 510 888 m 356 876 l 422 876 l 565 724 l 497 724 l 389 842 l 282 724 l 213 724 l 356 876 m 306 -14 q 141 33 206 -14 q 76 175 76 81 q 135 320 76 268 q 321 372 193 372 l 567 372 l 567 435 q 550 537 567 500 q 489 590 533 574 q 361 607 444 607 q 151 571 253 607 l 151 636 q 375 672 244 672 q 576 617 513 672 q 640 436 640 561 l 640 0 l 578 0 l 571 82 q 462 9 525 32 q 306 -14 399 -14 m 325 50 q 567 153 479 50 l 567 311 l 324 311 q 190 278 229 311 q 151 175 151 244 q 196 79 151 108 q 325 50 240 50 z "},"ä":{"ha":738,"x_min":76,"x_max":640,"o":"m 238 838 l 317 838 l 317 761 l 238 761 l 238 838 m 469 838 l 547 838 l 547 761 l 469 761 l 469 838 m 306 -14 q 141 33 206 -14 q 76 175 76 81 q 135 320 76 268 q 321 372 193 372 l 567 372 l 567 435 q 550 537 567 500 q 489 590 533 574 q 361 607 444 607 q 151 571 253 607 l 151 636 q 375 672 244 672 q 576 617 513 672 q 640 436 640 561 l 640 0 l 578 0 l 571 82 q 462 9 525 32 q 306 -14 399 -14 m 325 50 q 567 153 479 50 l 567 311 l 324 311 q 190 278 229 311 q 151 175 151 244 q 196 79 151 108 q 325 50 240 50 z "},"ạ":{"ha":738,"x_min":76,"x_max":640,"o":"m 306 -14 q 141 33 206 -14 q 76 175 76 81 q 135 320 76 268 q 321 372 193 372 l 567 372 l 567 435 q 550 537 567 500 q 489 590 533 574 q 361 607 444 607 q 151 571 253 607 l 151 636 q 375 672 244 672 q 576 617 513 672 q 640 436 640 561 l 640 0 l 578 0 l 571 82 q 462 9 525 32 q 306 -14 399 -14 m 325 50 q 567 153 479 50 l 567 311 l 324 311 q 190 278 229 311 q 151 175 151 244 q 196 79 151 108 q 325 50 240 50 m 346 -132 l 428 -132 l 428 -211 l 346 -211 l 346 -132 z "},"à":{"ha":738,"x_min":76,"x_max":640,"o":"m 269 944 l 342 944 l 435 725 l 372 725 l 269 944 m 306 -14 q 141 33 206 -14 q 76 175 76 81 q 135 320 76 268 q 321 372 193 372 l 567 372 l 567 435 q 550 537 567 500 q 489 590 533 574 q 361 607 444 607 q 151 571 253 607 l 151 636 q 375 672 244 672 q 576 617 513 672 q 640 436 640 561 l 640 0 l 578 0 l 571 82 q 462 9 525 32 q 306 -14 399 -14 m 325 50 q 567 153 479 50 l 567 311 l 324 311 q 190 278 229 311 q 151 175 151 244 q 196 79 151 108 q 325 50 240 50 z "},"ả":{"ha":738,"x_min":76,"x_max":640,"o":"m 342 828 q 424 840 396 831 q 463 865 453 849 q 472 910 472 882 q 444 965 472 947 q 357 983 417 983 q 308 978 335 983 q 264 967 282 974 l 264 1019 q 313 1031 282 1026 q 371 1036 344 1036 q 491 1004 450 1036 q 532 914 532 972 q 503 827 532 857 q 407 790 475 797 l 407 718 l 342 718 l 342 828 m 306 -14 q 141 33 206 -14 q 76 175 76 81 q 135 320 76 268 q 321 372 193 372 l 567 372 l 567 435 q 550 537 567 500 q 489 590 533 574 q 361 607 444 607 q 151 571 253 607 l 151 636 q 375 672 244 672 q 576 617 513 672 q 640 436 640 561 l 640 0 l 578 0 l 571 82 q 462 9 525 32 q 306 -14 399 -14 m 325 50 q 567 153 479 50 l 567 311 l 324 311 q 190 278 229 311 q 151 175 151 244 q 196 79 151 108 q 325 50 240 50 z "},"ɑ":{"ha":783,"x_min":76,"x_max":679,"o":"m 371 -14 q 154 61 232 -14 q 76 307 76 136 q 115 506 76 424 q 224 630 154 588 q 385 672 294 672 q 503 656 453 672 q 603 603 553 640 l 603 658 l 679 658 l 679 0 l 615 0 l 608 74 q 503 7 560 28 q 371 -14 446 -14 m 389 49 q 603 138 519 49 l 603 536 q 515 590 561 572 q 407 608 469 608 q 217 531 283 608 q 151 307 151 453 q 208 108 151 168 q 389 49 265 49 z "},"ā":{"ha":738,"x_min":76,"x_max":640,"o":"m 192 821 l 576 821 l 576 763 l 192 763 l 192 821 m 306 -14 q 141 33 206 -14 q 76 175 76 81 q 135 320 76 268 q 321 372 193 372 l 567 372 l 567 435 q 550 537 567 500 q 489 590 533 574 q 361 607 444 607 q 151 571 253 607 l 151 636 q 375 672 244 672 q 576 617 513 672 q 640 436 640 561 l 640 0 l 578 0 l 571 82 q 462 9 525 32 q 306 -14 399 -14 m 325 50 q 567 153 479 50 l 567 311 l 324 311 q 190 278 229 311 q 151 175 151 244 q 196 79 151 108 q 325 50 240 50 z "},"ą":{"ha":738,"x_min":76,"x_max":681,"o":"m 599 -306 q 507 -277 542 -306 q 472 -186 472 -249 q 502 -82 472 -132 q 578 0 532 -32 l 571 82 q 462 9 525 32 q 306 -14 399 -14 q 141 33 206 -14 q 76 175 76 81 q 135 320 76 268 q 321 372 193 372 l 567 372 l 567 435 q 550 537 567 500 q 489 590 533 574 q 361 607 444 607 q 151 571 253 607 l 151 636 q 375 672 244 672 q 576 617 513 672 q 640 436 640 561 l 640 0 q 563 -83 589 -37 q 538 -178 538 -129 q 555 -232 538 -215 q 611 -249 572 -249 q 649 -244 629 -249 q 681 -233 668 -240 l 681 -290 q 599 -306 651 -306 m 325 50 q 567 153 479 50 l 567 311 l 324 311 q 190 278 229 311 q 151 175 151 244 q 196 79 151 108 q 325 50 240 50 z "},"å":{"ha":738,"x_min":76,"x_max":640,"o":"m 394 724 q 293 765 333 724 q 253 864 253 806 q 293 965 253 924 q 394 1006 333 1006 q 497 965 457 1006 q 538 864 538 924 q 497 765 538 806 q 394 724 457 724 m 394 774 q 460 799 435 774 q 486 864 486 825 q 460 930 486 904 q 394 956 435 956 q 329 930 356 956 q 303 864 303 904 q 329 799 303 825 q 394 774 356 774 m 306 -14 q 141 33 206 -14 q 76 175 76 81 q 135 320 76 268 q 321 372 193 372 l 567 372 l 567 435 q 550 537 567 500 q 489 590 533 574 q 361 607 444 607 q 151 571 253 607 l 151 636 q 375 672 244 672 q 576 617 513 672 q 640 436 640 561 l 640 0 l 578 0 l 571 82 q 462 9 525 32 q 306 -14 399 -14 m 325 50 q 567 153 479 50 l 567 311 l 324 311 q 190 278 229 311 q 151 175 151 244 q 196 79 151 108 q 325 50 240 50 z "},"ǻ":{"ha":738,"x_min":76,"x_max":640,"o":"m 443 1260 l 515 1260 l 413 1085 l 350 1085 l 443 1260 m 385 722 q 283 763 324 722 q 243 863 243 804 q 283 963 243 922 q 385 1004 324 1004 q 488 963 447 1004 q 528 863 528 922 q 488 763 528 804 q 385 722 447 722 m 385 772 q 451 798 425 772 q 476 863 476 824 q 451 928 476 903 q 385 954 425 954 q 319 928 346 954 q 293 863 293 903 q 319 798 293 824 q 385 772 346 772 m 306 -14 q 141 33 206 -14 q 76 175 76 81 q 135 320 76 268 q 321 372 193 372 l 567 372 l 567 435 q 550 537 567 500 q 489 590 533 574 q 361 607 444 607 q 151 571 253 607 l 151 636 q 375 672 244 672 q 576 617 513 672 q 640 436 640 561 l 640 0 l 578 0 l 571 82 q 462 9 525 32 q 306 -14 399 -14 m 325 50 q 567 153 479 50 l 567 311 l 324 311 q 190 278 229 311 q 151 175 151 244 q 196 79 151 108 q 325 50 240 50 z "},"ã":{"ha":738,"x_min":76,"x_max":640,"o":"m 485 760 q 438 767 461 760 q 383 788 414 774 q 300 811 328 811 q 190 763 231 811 l 190 828 q 237 857 207 846 q 299 868 267 868 q 344 862 324 868 q 396 842 364 856 q 442 823 424 829 q 482 817 461 817 q 540 828 515 817 q 583 865 565 840 l 583 800 q 544 770 569 781 q 485 760 518 760 m 306 -14 q 141 33 206 -14 q 76 175 76 81 q 135 320 76 268 q 321 372 193 372 l 567 372 l 567 435 q 550 537 567 500 q 489 590 533 574 q 361 607 444 607 q 151 571 253 607 l 151 636 q 375 672 244 672 q 576 617 513 672 q 640 436 640 561 l 640 0 l 578 0 l 571 82 q 462 9 525 32 q 306 -14 399 -14 m 325 50 q 567 153 479 50 l 567 311 l 324 311 q 190 278 229 311 q 151 175 151 244 q 196 79 151 108 q 325 50 240 50 z "},"æ":{"ha":1221,"x_min":76,"x_max":1144,"o":"m 306 -14 q 141 33 206 -14 q 76 175 76 81 q 135 320 76 268 q 321 372 193 372 l 567 372 l 567 418 q 520 560 567 513 q 364 607 474 607 q 151 571 253 607 l 151 636 q 375 672 244 672 q 610 546 561 672 q 708 640 643 608 q 868 672 774 672 q 1074 599 1004 672 q 1144 408 1144 525 l 1144 289 l 643 289 q 674 148 646 200 q 761 72 701 96 q 922 49 821 49 q 1101 83 1013 49 l 1101 21 q 908 -14 1014 -14 q 719 21 792 -14 q 610 131 646 56 q 494 25 569 64 q 306 -14 418 -14 m 1074 349 l 1074 411 q 1024 557 1074 506 q 869 608 974 608 q 693 547 743 608 q 643 349 643 485 l 1074 349 m 325 50 q 567 189 518 50 l 567 311 l 324 311 q 190 278 229 311 q 151 175 151 244 q 196 79 151 108 q 325 50 240 50 z "},"ǽ":{"ha":1221,"x_min":76,"x_max":1144,"o":"m 665 944 l 738 944 l 635 725 l 572 725 l 665 944 m 306 -14 q 141 33 206 -14 q 76 175 76 81 q 135 320 76 268 q 321 372 193 372 l 567 372 l 567 418 q 520 560 567 513 q 364 607 474 607 q 151 571 253 607 l 151 636 q 375 672 244 672 q 610 546 561 672 q 708 640 643 608 q 868 672 774 672 q 1074 599 1004 672 q 1144 408 1144 525 l 1144 289 l 643 289 q 674 148 646 200 q 761 72 701 96 q 922 49 821 49 q 1101 83 1013 49 l 1101 21 q 908 -14 1014 -14 q 719 21 792 -14 q 610 131 646 56 q 494 25 569 64 q 306 -14 418 -14 m 1074 349 l 1074 411 q 1024 557 1074 506 q 869 608 974 608 q 693 547 743 608 q 643 349 643 485 l 1074 349 m 325 50 q 567 189 518 50 l 567 311 l 324 311 q 190 278 229 311 q 151 175 151 244 q 196 79 151 108 q 325 50 240 50 z "},"b":{"ha":783,"x_min":104,"x_max":707,"o":"m 413 -14 q 281 7 338 -14 q 175 74 224 28 l 168 0 l 104 0 l 104 936 l 181 936 l 181 603 q 413 672 276 672 q 707 335 707 672 q 631 72 707 158 q 413 -14 554 -14 m 394 49 q 576 119 519 49 q 632 335 632 190 q 574 544 632 479 q 392 608 515 608 q 181 536 267 608 l 181 138 q 394 49 264 49 z "},"c":{"ha":671,"x_min":76,"x_max":594,"o":"m 403 -14 q 76 329 76 -14 q 166 585 76 499 q 414 672 256 672 q 513 664 474 672 q 593 636 553 656 l 593 574 q 426 608 519 608 q 151 329 151 608 q 214 116 151 183 q 421 49 276 49 q 594 85 511 49 l 594 21 q 403 -14 513 -14 z "},"ć":{"ha":671,"x_min":76,"x_max":594,"o":"m 431 944 l 503 944 l 400 725 l 338 725 l 431 944 m 403 -14 q 76 329 76 -14 q 166 585 76 499 q 414 672 256 672 q 513 664 474 672 q 593 636 553 656 l 593 574 q 426 608 519 608 q 151 329 151 608 q 214 116 151 183 q 421 49 276 49 q 594 85 511 49 l 594 21 q 403 -14 513 -14 z "},"č":{"ha":671,"x_min":76,"x_max":594,"o":"m 200 911 l 269 911 l 379 768 l 489 911 l 558 911 l 413 724 l 346 724 l 200 911 m 403 -14 q 76 329 76 -14 q 166 585 76 499 q 414 672 256 672 q 513 664 474 672 q 593 636 553 656 l 593 574 q 426 608 519 608 q 151 329 151 608 q 214 116 151 183 q 421 49 276 49 q 594 85 511 49 l 594 21 q 403 -14 513 -14 z "},"ç":{"ha":671,"x_min":76,"x_max":594,"o":"m 594 21 q 407 -14 514 -14 l 388 -71 q 506 -102 465 -71 q 546 -193 546 -133 q 499 -298 546 -262 q 353 -333 453 -333 q 305 -330 332 -333 q 261 -322 278 -326 l 261 -271 q 349 -282 301 -282 q 453 -262 421 -282 q 486 -193 486 -242 q 456 -133 486 -150 q 358 -117 426 -117 l 313 -117 l 347 -11 q 76 329 76 17 q 166 585 76 499 q 414 672 256 672 q 513 664 474 672 q 593 636 553 656 l 593 574 q 426 608 519 608 q 151 329 151 608 q 214 116 151 183 q 421 49 276 49 q 594 85 511 49 l 594 21 z "},"ĉ":{"ha":671,"x_min":76,"x_max":594,"o":"m 349 911 l 415 911 l 561 724 l 492 724 l 382 867 l 272 724 l 203 724 l 349 911 m 403 -14 q 76 329 76 -14 q 166 585 76 499 q 414 672 256 672 q 513 664 474 672 q 593 636 553 656 l 593 574 q 426 608 519 608 q 151 329 151 608 q 214 116 151 183 q 421 49 276 49 q 594 85 511 49 l 594 21 q 403 -14 513 -14 z "},"ċ":{"ha":671,"x_min":76,"x_max":594,"o":"m 353 839 l 432 839 l 432 761 l 353 761 l 353 839 m 403 -14 q 76 329 76 -14 q 166 585 76 499 q 414 672 256 672 q 513 664 474 672 q 593 636 553 656 l 593 574 q 426 608 519 608 q 151 329 151 608 q 214 116 151 183 q 421 49 276 49 q 594 85 511 49 l 594 21 q 403 -14 513 -14 z "},"d":{"ha":783,"x_min":76,"x_max":679,"o":"m 371 -14 q 155 69 233 -14 q 76 324 76 151 q 156 585 76 499 q 378 672 235 672 q 499 656 446 672 q 603 603 553 640 l 603 936 l 679 936 l 679 0 l 615 0 l 608 74 q 503 7 560 28 q 371 -14 446 -14 m 389 49 q 603 138 519 49 l 603 536 q 399 608 519 608 q 213 539 275 608 q 151 324 151 469 q 210 116 151 183 q 389 49 268 49 z "},"ð":{"ha":792,"x_min":76,"x_max":750,"o":"m 389 -14 q 156 62 236 -14 q 76 271 76 138 q 154 482 76 408 q 379 556 232 556 q 506 534 439 556 q 629 471 572 513 l 629 549 q 585 760 629 686 l 396 676 l 396 731 l 551 799 q 394 849 494 849 q 199 819 282 849 l 199 881 q 401 908 292 908 q 617 828 540 908 l 750 886 l 750 832 l 647 786 q 703 543 703 696 l 703 321 q 624 67 703 147 q 389 -14 546 -14 m 389 46 q 629 289 629 46 l 629 411 q 514 473 576 450 q 392 496 451 496 q 203 438 261 496 q 146 271 146 379 q 208 105 146 164 q 389 46 269 46 z "},"ď":{"ha":951,"x_min":76,"x_max":917,"o":"m 846 983 l 917 983 l 813 760 l 751 760 l 846 983 m 371 -14 q 155 69 233 -14 q 76 324 76 151 q 156 585 76 499 q 378 672 235 672 q 499 656 446 672 q 603 603 553 640 l 603 936 l 679 936 l 679 0 l 615 0 l 608 74 q 503 7 560 28 q 371 -14 446 -14 m 389 49 q 603 138 519 49 l 603 536 q 399 608 519 608 q 213 539 275 608 q 151 324 151 469 q 210 116 151 183 q 389 49 268 49 z "},"đ":{"ha":796,"x_min":76,"x_max":761,"o":"m 371 -14 q 155 69 233 -14 q 76 324 76 151 q 156 585 76 499 q 378 672 235 672 q 499 656 446 672 q 603 603 553 640 l 603 772 l 358 772 l 358 835 l 603 835 l 603 947 l 679 947 l 679 835 l 761 835 l 761 772 l 679 772 l 679 0 l 615 0 l 608 74 q 503 7 560 28 q 371 -14 446 -14 m 389 49 q 603 138 519 49 l 603 536 q 399 608 519 608 q 213 539 275 608 q 151 324 151 469 q 210 116 151 183 q 389 49 268 49 z "},"ḍ":{"ha":783,"x_min":76,"x_max":679,"o":"m 371 -14 q 155 69 233 -14 q 76 324 76 151 q 156 585 76 499 q 378 672 235 672 q 499 656 446 672 q 603 603 553 640 l 603 936 l 679 936 l 679 0 l 615 0 l 608 74 q 503 7 560 28 q 371 -14 446 -14 m 389 49 q 603 138 519 49 l 603 536 q 399 608 519 608 q 213 539 275 608 q 151 324 151 469 q 210 116 151 183 q 389 49 268 49 m 379 -132 l 461 -132 l 461 -211 l 379 -211 l 379 -132 z "},"ḏ":{"ha":783,"x_min":76,"x_max":679,"o":"m 371 -14 q 155 69 233 -14 q 76 324 76 151 q 156 585 76 499 q 378 672 235 672 q 499 656 446 672 q 603 603 553 640 l 603 936 l 679 936 l 679 0 l 615 0 l 608 74 q 503 7 560 28 q 371 -14 446 -14 m 389 49 q 603 138 519 49 l 603 536 q 399 608 519 608 q 213 539 275 608 q 151 324 151 469 q 210 116 151 183 q 389 49 268 49 m 213 -112 l 597 -112 l 597 -171 l 213 -171 l 213 -112 z "},"e":{"ha":729,"x_min":76,"x_max":653,"o":"m 417 -14 q 158 70 239 -14 q 76 333 76 154 q 381 672 76 672 q 585 599 517 672 q 653 408 653 526 l 653 289 l 153 289 q 185 149 157 201 q 272 73 213 97 q 432 49 331 49 q 610 83 524 49 l 610 21 q 417 -14 525 -14 m 583 349 l 583 411 q 382 608 583 608 q 205 544 257 608 q 153 349 153 479 l 583 349 z "},"é":{"ha":729,"x_min":76,"x_max":653,"o":"m 425 944 l 497 944 l 394 725 l 332 725 l 425 944 m 417 -14 q 158 70 239 -14 q 76 333 76 154 q 381 672 76 672 q 585 599 517 672 q 653 408 653 526 l 653 289 l 153 289 q 185 149 157 201 q 272 73 213 97 q 432 49 331 49 q 610 83 524 49 l 610 21 q 417 -14 525 -14 m 583 349 l 583 411 q 382 608 583 608 q 205 544 257 608 q 153 349 153 479 l 583 349 z "},"ĕ":{"ha":729,"x_min":76,"x_max":653,"o":"m 378 724 q 266 767 308 724 q 224 878 224 810 l 282 878 q 308 804 282 831 q 378 778 335 778 q 449 804 422 778 q 475 878 475 831 l 533 878 q 491 767 533 810 q 378 724 449 724 m 417 -14 q 158 70 239 -14 q 76 333 76 154 q 381 672 76 672 q 585 599 517 672 q 653 408 653 526 l 653 289 l 153 289 q 185 149 157 201 q 272 73 213 97 q 432 49 331 49 q 610 83 524 49 l 610 21 q 417 -14 525 -14 m 583 349 l 583 411 q 382 608 583 608 q 205 544 257 608 q 153 349 153 479 l 583 349 z "},"ě":{"ha":729,"x_min":76,"x_max":653,"o":"m 207 911 l 276 911 l 386 768 l 496 911 l 565 911 l 419 724 l 353 724 l 207 911 m 417 -14 q 158 70 239 -14 q 76 333 76 154 q 381 672 76 672 q 585 599 517 672 q 653 408 653 526 l 653 289 l 153 289 q 185 149 157 201 q 272 73 213 97 q 432 49 331 49 q 610 83 524 49 l 610 21 q 417 -14 525 -14 m 583 349 l 583 411 q 382 608 583 608 q 205 544 257 608 q 153 349 153 479 l 583 349 z "},"ê":{"ha":729,"x_min":76,"x_max":653,"o":"m 339 911 l 406 911 l 551 724 l 482 724 l 372 867 l 263 724 l 193 724 l 339 911 m 417 -14 q 158 70 239 -14 q 76 333 76 154 q 381 672 76 672 q 585 599 517 672 q 653 408 653 526 l 653 289 l 153 289 q 185 149 157 201 q 272 73 213 97 q 432 49 331 49 q 610 83 524 49 l 610 21 q 417 -14 525 -14 m 583 349 l 583 411 q 382 608 583 608 q 205 544 257 608 q 153 349 153 479 l 583 349 z "},"ế":{"ha":729,"x_min":76,"x_max":653,"o":"m 556 1033 l 621 1033 l 529 871 l 472 871 l 556 1033 m 343 876 l 410 876 l 553 724 l 485 724 l 376 842 l 268 724 l 200 724 l 343 876 m 417 -14 q 158 70 239 -14 q 76 333 76 154 q 381 672 76 672 q 585 599 517 672 q 653 408 653 526 l 653 289 l 153 289 q 185 149 157 201 q 272 73 213 97 q 432 49 331 49 q 610 83 524 49 l 610 21 q 417 -14 525 -14 m 583 349 l 583 411 q 382 608 583 608 q 205 544 257 608 q 153 349 153 479 l 583 349 z "},"ệ":{"ha":729,"x_min":76,"x_max":653,"o":"m 347 911 l 414 911 l 560 724 l 490 724 l 381 867 l 271 724 l 201 724 l 347 911 m 417 -14 q 158 70 239 -14 q 76 333 76 154 q 381 672 76 672 q 585 599 517 672 q 653 408 653 526 l 653 289 l 153 289 q 185 149 157 201 q 272 73 213 97 q 432 49 331 49 q 610 83 524 49 l 610 21 q 417 -14 525 -14 m 583 349 l 583 411 q 382 608 583 608 q 205 544 257 608 q 153 349 153 479 l 583 349 m 340 -132 l 422 -132 l 422 -211 l 340 -211 l 340 -132 z "},"ề":{"ha":729,"x_min":76,"x_max":653,"o":"m 147 1057 l 213 1057 l 294 894 l 239 894 l 147 1057 m 358 900 l 425 900 l 568 747 l 499 747 l 392 865 l 283 747 l 215 747 l 358 900 m 417 -14 q 158 70 239 -14 q 76 333 76 154 q 381 672 76 672 q 585 599 517 672 q 653 408 653 526 l 653 289 l 153 289 q 185 149 157 201 q 272 73 213 97 q 432 49 331 49 q 610 83 524 49 l 610 21 q 417 -14 525 -14 m 583 349 l 583 411 q 382 608 583 608 q 205 544 257 608 q 153 349 153 479 l 583 349 z "},"ể":{"ha":729,"x_min":76,"x_max":654,"o":"m 481 924 q 573 942 550 928 q 596 988 596 957 q 522 1044 596 1044 q 440 1026 479 1044 l 440 1074 q 532 1090 481 1090 q 622 1064 589 1090 q 654 990 654 1038 q 628 922 654 946 q 543 892 601 897 l 543 842 l 481 842 l 481 924 m 340 876 l 407 876 l 550 724 l 482 724 l 374 842 l 267 724 l 197 724 l 340 876 m 417 -14 q 158 70 239 -14 q 76 333 76 154 q 381 672 76 672 q 585 599 517 672 q 653 408 653 526 l 653 289 l 153 289 q 185 149 157 201 q 272 73 213 97 q 432 49 331 49 q 610 83 524 49 l 610 21 q 417 -14 525 -14 m 583 349 l 583 411 q 382 608 583 608 q 205 544 257 608 q 153 349 153 479 l 583 349 z "},"ễ":{"ha":729,"x_min":76,"x_max":653,"o":"m 471 888 q 427 894 447 888 q 378 913 407 900 q 303 933 331 933 q 246 924 271 933 q 199 889 221 914 l 199 950 q 243 976 215 967 q 300 986 271 986 q 342 981 324 986 q 390 963 361 975 q 433 946 415 951 q 469 940 450 940 q 526 951 501 940 q 569 985 550 961 l 569 924 q 528 897 554 907 q 471 888 501 888 m 347 876 l 414 876 l 557 724 l 489 724 l 381 842 l 274 724 l 204 724 l 347 876 m 417 -14 q 158 70 239 -14 q 76 333 76 154 q 381 672 76 672 q 585 599 517 672 q 653 408 653 526 l 653 289 l 153 289 q 185 149 157 201 q 272 73 213 97 q 432 49 331 49 q 610 83 524 49 l 610 21 q 417 -14 525 -14 m 583 349 l 583 411 q 382 608 583 608 q 205 544 257 608 q 153 349 153 479 l 583 349 z "},"ë":{"ha":729,"x_min":76,"x_max":653,"o":"m 215 838 l 294 838 l 294 761 l 215 761 l 215 838 m 447 838 l 525 838 l 525 761 l 447 761 l 447 838 m 417 -14 q 158 70 239 -14 q 76 333 76 154 q 381 672 76 672 q 585 599 517 672 q 653 408 653 526 l 653 289 l 153 289 q 185 149 157 201 q 272 73 213 97 q 432 49 331 49 q 610 83 524 49 l 610 21 q 417 -14 525 -14 m 583 349 l 583 411 q 382 608 583 608 q 205 544 257 608 q 153 349 153 479 l 583 349 z "},"ė":{"ha":729,"x_min":76,"x_max":653,"o":"m 336 839 l 415 839 l 415 761 l 336 761 l 336 839 m 417 -14 q 158 70 239 -14 q 76 333 76 154 q 381 672 76 672 q 585 599 517 672 q 653 408 653 526 l 653 289 l 153 289 q 185 149 157 201 q 272 73 213 97 q 432 49 331 49 q 610 83 524 49 l 610 21 q 417 -14 525 -14 m 583 349 l 583 411 q 382 608 583 608 q 205 544 257 608 q 153 349 153 479 l 583 349 z "},"ẹ":{"ha":729,"x_min":76,"x_max":653,"o":"m 417 -14 q 158 70 239 -14 q 76 333 76 154 q 381 672 76 672 q 585 599 517 672 q 653 408 653 526 l 653 289 l 153 289 q 185 149 157 201 q 272 73 213 97 q 432 49 331 49 q 610 83 524 49 l 610 21 q 417 -14 525 -14 m 583 349 l 583 411 q 382 608 583 608 q 205 544 257 608 q 153 349 153 479 l 583 349 m 332 -132 l 414 -132 l 414 -211 l 332 -211 l 332 -132 z "},"è":{"ha":729,"x_min":76,"x_max":653,"o":"m 240 944 l 313 944 l 406 725 l 343 725 l 240 944 m 417 -14 q 158 70 239 -14 q 76 333 76 154 q 381 672 76 672 q 585 599 517 672 q 653 408 653 526 l 653 289 l 153 289 q 185 149 157 201 q 272 73 213 97 q 432 49 331 49 q 610 83 524 49 l 610 21 q 417 -14 525 -14 m 583 349 l 583 411 q 382 608 583 608 q 205 544 257 608 q 153 349 153 479 l 583 349 z "},"ẻ":{"ha":729,"x_min":76,"x_max":653,"o":"m 346 835 q 428 847 400 838 q 467 872 457 856 q 476 917 476 889 q 449 972 476 954 q 361 990 421 990 q 313 985 339 990 q 268 974 286 981 l 268 1026 q 317 1038 286 1033 q 375 1043 349 1043 q 495 1011 454 1043 q 536 921 536 979 q 508 834 536 864 q 411 797 479 804 l 411 725 l 346 725 l 346 835 m 417 -14 q 158 70 239 -14 q 76 333 76 154 q 381 672 76 672 q 585 599 517 672 q 653 408 653 526 l 653 289 l 153 289 q 185 149 157 201 q 272 73 213 97 q 432 49 331 49 q 610 83 524 49 l 610 21 q 417 -14 525 -14 m 583 349 l 583 411 q 382 608 583 608 q 205 544 257 608 q 153 349 153 479 l 583 349 z "},"ē":{"ha":729,"x_min":76,"x_max":653,"o":"m 183 826 l 568 826 l 568 768 l 183 768 l 183 826 m 417 -14 q 158 70 239 -14 q 76 333 76 154 q 381 672 76 672 q 585 599 517 672 q 653 408 653 526 l 653 289 l 153 289 q 185 149 157 201 q 272 73 213 97 q 432 49 331 49 q 610 83 524 49 l 610 21 q 417 -14 525 -14 m 583 349 l 583 411 q 382 608 583 608 q 205 544 257 608 q 153 349 153 479 l 583 349 z "},"ę":{"ha":729,"x_min":76,"x_max":653,"o":"m 653 289 l 153 289 q 185 149 157 201 q 272 73 213 97 q 432 49 331 49 q 610 83 524 49 l 610 21 q 542 0 581 10 q 465 -83 490 -37 q 439 -178 439 -129 q 456 -232 439 -215 q 513 -249 474 -249 q 550 -244 531 -249 q 582 -233 569 -240 l 582 -290 q 500 -306 553 -306 q 408 -277 443 -306 q 374 -186 374 -249 q 398 -92 374 -137 q 461 -12 422 -46 q 417 -14 447 -14 q 158 70 239 -14 q 76 333 76 154 q 381 672 76 672 q 585 599 517 672 q 653 408 653 526 l 653 289 m 583 411 q 382 608 583 608 q 205 544 257 608 q 153 349 153 479 l 583 349 l 583 411 z "},"ẽ":{"ha":729,"x_min":76,"x_max":653,"o":"m 472 760 q 425 767 449 760 q 371 788 401 774 q 288 811 315 811 q 178 763 218 811 l 178 828 q 224 857 194 846 q 286 868 254 868 q 331 862 311 868 q 383 842 351 856 q 430 823 411 829 q 469 817 449 817 q 528 828 503 817 q 571 865 553 840 l 571 800 q 531 770 557 781 q 472 760 506 760 m 417 -14 q 158 70 239 -14 q 76 333 76 154 q 381 672 76 672 q 585 599 517 672 q 653 408 653 526 l 653 289 l 153 289 q 185 149 157 201 q 272 73 213 97 q 432 49 331 49 q 610 83 524 49 l 610 21 q 417 -14 525 -14 m 583 349 l 583 411 q 382 608 583 608 q 205 544 257 608 q 153 349 153 479 l 583 349 z "},"f":{"ha":471,"x_min":49,"x_max":450,"o":"m 150 594 l 49 594 l 49 658 l 150 658 l 150 769 q 200 909 150 860 q 343 958 250 958 q 450 940 403 958 l 450 879 q 363 894 407 894 q 256 866 286 894 q 226 771 226 838 l 226 658 l 410 658 l 406 594 l 226 594 l 226 0 l 150 0 l 150 594 z "},"g":{"ha":753,"x_min":79,"x_max":697,"o":"m 354 -244 q 99 -211 190 -244 l 99 -146 q 351 -182 207 -182 q 522 -163 471 -182 q 574 -86 574 -144 q 544 -20 574 -39 q 436 -1 514 -1 l 257 -1 q 123 27 167 -1 q 79 114 79 56 q 109 190 79 156 q 193 238 139 224 q 79 436 79 283 q 147 615 79 558 q 358 672 215 672 q 465 658 403 672 l 697 658 l 694 601 l 567 601 q 635 436 635 543 q 372 206 635 206 q 283 214 333 206 q 191 184 228 208 q 154 122 154 160 q 179 78 154 92 q 268 64 204 64 l 453 64 q 650 -82 650 64 q 577 -209 650 -174 q 354 -244 504 -244 m 358 265 q 515 304 471 265 q 560 436 560 343 q 513 571 560 529 q 358 613 467 613 q 203 572 250 613 q 156 436 156 532 q 201 306 156 346 q 358 265 247 265 z "},"ğ":{"ha":753,"x_min":79,"x_max":697,"o":"m 379 724 q 267 767 310 724 q 225 878 225 810 l 283 878 q 310 804 283 831 q 379 778 336 778 q 450 804 424 778 q 476 878 476 831 l 535 878 q 492 767 535 810 q 379 724 450 724 m 354 -244 q 99 -211 190 -244 l 99 -146 q 351 -182 207 -182 q 522 -163 471 -182 q 574 -86 574 -144 q 544 -20 574 -39 q 436 -1 514 -1 l 257 -1 q 123 27 167 -1 q 79 114 79 56 q 109 190 79 156 q 193 238 139 224 q 79 436 79 283 q 147 615 79 558 q 358 672 215 672 q 465 658 403 672 l 697 658 l 694 601 l 567 601 q 635 436 635 543 q 372 206 635 206 q 283 214 333 206 q 191 184 228 208 q 154 122 154 160 q 179 78 154 92 q 268 64 204 64 l 453 64 q 650 -82 650 64 q 577 -209 650 -174 q 354 -244 504 -244 m 358 265 q 515 304 471 265 q 560 436 560 343 q 513 571 560 529 q 358 613 467 613 q 203 572 250 613 q 156 436 156 532 q 201 306 156 346 q 358 265 247 265 z "},"ǧ":{"ha":753,"x_min":79,"x_max":697,"o":"m 217 911 l 286 911 l 396 768 l 506 911 l 575 911 l 429 724 l 363 724 l 217 911 m 354 -244 q 99 -211 190 -244 l 99 -146 q 351 -182 207 -182 q 522 -163 471 -182 q 574 -86 574 -144 q 544 -20 574 -39 q 436 -1 514 -1 l 257 -1 q 123 27 167 -1 q 79 114 79 56 q 109 190 79 156 q 193 238 139 224 q 79 436 79 283 q 147 615 79 558 q 358 672 215 672 q 465 658 403 672 l 697 658 l 694 601 l 567 601 q 635 436 635 543 q 372 206 635 206 q 283 214 333 206 q 191 184 228 208 q 154 122 154 160 q 179 78 154 92 q 268 64 204 64 l 453 64 q 650 -82 650 64 q 577 -209 650 -174 q 354 -244 504 -244 m 358 265 q 515 304 471 265 q 560 436 560 343 q 513 571 560 529 q 358 613 467 613 q 203 572 250 613 q 156 436 156 532 q 201 306 156 346 q 358 265 247 265 z "},"ĝ":{"ha":753,"x_min":79,"x_max":697,"o":"m 339 911 l 406 911 l 551 724 l 482 724 l 372 867 l 263 724 l 193 724 l 339 911 m 354 -244 q 99 -211 190 -244 l 99 -146 q 351 -182 207 -182 q 522 -163 471 -182 q 574 -86 574 -144 q 544 -20 574 -39 q 436 -1 514 -1 l 257 -1 q 123 27 167 -1 q 79 114 79 56 q 109 190 79 156 q 193 238 139 224 q 79 436 79 283 q 147 615 79 558 q 358 672 215 672 q 465 658 403 672 l 697 658 l 694 601 l 567 601 q 635 436 635 543 q 372 206 635 206 q 283 214 333 206 q 191 184 228 208 q 154 122 154 160 q 179 78 154 92 q 268 64 204 64 l 453 64 q 650 -82 650 64 q 577 -209 650 -174 q 354 -244 504 -244 m 358 265 q 515 304 471 265 q 560 436 560 343 q 513 571 560 529 q 358 613 467 613 q 203 572 250 613 q 156 436 156 532 q 201 306 156 346 q 358 265 247 265 z "},"ģ":{"ha":753,"x_min":79,"x_max":697,"o":"m 364 954 l 421 954 l 385 725 l 311 725 l 364 954 m 354 -244 q 99 -211 190 -244 l 99 -146 q 351 -182 207 -182 q 522 -163 471 -182 q 574 -86 574 -144 q 544 -20 574 -39 q 436 -1 514 -1 l 257 -1 q 123 27 167 -1 q 79 114 79 56 q 109 190 79 156 q 193 238 139 224 q 79 436 79 283 q 147 615 79 558 q 358 672 215 672 q 465 658 403 672 l 697 658 l 694 601 l 567 601 q 635 436 635 543 q 372 206 635 206 q 283 214 333 206 q 191 184 228 208 q 154 122 154 160 q 179 78 154 92 q 268 64 204 64 l 453 64 q 650 -82 650 64 q 577 -209 650 -174 q 354 -244 504 -244 m 358 265 q 515 304 471 265 q 560 436 560 343 q 513 571 560 529 q 358 613 467 613 q 203 572 250 613 q 156 436 156 532 q 201 306 156 346 q 358 265 247 265 z "},"ġ":{"ha":753,"x_min":79,"x_max":697,"o":"m 333 835 l 413 835 l 413 757 l 333 757 l 333 835 m 354 -244 q 99 -211 190 -244 l 99 -146 q 351 -182 207 -182 q 522 -163 471 -182 q 574 -86 574 -144 q 544 -20 574 -39 q 436 -1 514 -1 l 257 -1 q 123 27 167 -1 q 79 114 79 56 q 109 190 79 156 q 193 238 139 224 q 79 436 79 283 q 147 615 79 558 q 358 672 215 672 q 465 658 403 672 l 697 658 l 694 601 l 567 601 q 635 436 635 543 q 372 206 635 206 q 283 214 333 206 q 191 184 228 208 q 154 122 154 160 q 179 78 154 92 q 268 64 204 64 l 453 64 q 650 -82 650 64 q 577 -209 650 -174 q 354 -244 504 -244 m 358 265 q 515 304 471 265 q 560 436 560 343 q 513 571 560 529 q 358 613 467 613 q 203 572 250 613 q 156 436 156 532 q 201 306 156 346 q 358 265 247 265 z "},"ḡ":{"ha":753,"x_min":79,"x_max":697,"o":"m 199 824 l 583 824 l 583 765 l 199 765 l 199 824 m 354 -244 q 99 -211 190 -244 l 99 -146 q 351 -182 207 -182 q 522 -163 471 -182 q 574 -86 574 -144 q 544 -20 574 -39 q 436 -1 514 -1 l 257 -1 q 123 27 167 -1 q 79 114 79 56 q 109 190 79 156 q 193 238 139 224 q 79 436 79 283 q 147 615 79 558 q 358 672 215 672 q 465 658 403 672 l 697 658 l 694 601 l 567 601 q 635 436 635 543 q 372 206 635 206 q 283 214 333 206 q 191 184 228 208 q 154 122 154 160 q 179 78 154 92 q 268 64 204 64 l 453 64 q 650 -82 650 64 q 577 -209 650 -174 q 354 -244 504 -244 m 358 265 q 515 304 471 265 q 560 436 560 343 q 513 571 560 529 q 358 613 467 613 q 203 572 250 613 q 156 436 156 532 q 201 306 156 346 q 358 265 247 265 z "},"h":{"ha":776,"x_min":104,"x_max":679,"o":"m 104 936 l 181 936 l 181 579 q 297 648 233 624 q 444 672 361 672 q 622 615 565 672 q 679 435 679 557 l 679 0 l 603 0 l 603 433 q 561 569 603 531 q 415 608 519 608 q 288 582 350 608 q 181 511 226 556 l 181 0 l 104 0 l 104 936 z "},"ħ":{"ha":807,"x_min":49,"x_max":710,"o":"m 135 761 l 49 761 l 49 824 l 135 824 l 135 936 l 211 936 l 211 824 l 454 824 l 454 761 l 211 761 l 211 579 q 476 672 321 672 q 653 615 596 672 q 710 435 710 557 l 710 0 l 633 0 l 633 433 q 592 569 633 531 q 446 608 550 608 q 318 582 381 608 q 211 511 256 556 l 211 0 l 135 0 l 135 761 z "},"ḫ":{"ha":776,"x_min":104,"x_max":679,"o":"m 104 936 l 181 936 l 181 579 q 297 648 233 624 q 444 672 361 672 q 622 615 565 672 q 679 435 679 557 l 679 0 l 603 0 l 603 433 q 561 569 603 531 q 415 608 519 608 q 288 582 350 608 q 181 511 226 556 l 181 0 l 104 0 l 104 936 m 396 -257 q 259 -211 311 -257 q 207 -76 207 -165 l 265 -76 q 301 -173 265 -142 q 396 -204 336 -204 q 492 -173 457 -204 q 528 -76 528 -142 l 585 -76 q 533 -211 585 -165 q 396 -257 481 -257 z "},"ĥ":{"ha":776,"x_min":104,"x_max":679,"o":"m 254 1158 l 321 1158 l 467 971 l 397 971 l 288 1114 l 178 971 l 108 971 l 254 1158 m 104 936 l 181 936 l 181 579 q 297 648 233 624 q 444 672 361 672 q 622 615 565 672 q 679 435 679 557 l 679 0 l 603 0 l 603 433 q 561 569 603 531 q 415 608 519 608 q 288 582 350 608 q 181 511 226 556 l 181 0 l 104 0 l 104 936 z "},"ḥ":{"ha":776,"x_min":104,"x_max":679,"o":"m 104 936 l 181 936 l 181 579 q 297 648 233 624 q 444 672 361 672 q 622 615 565 672 q 679 435 679 557 l 679 0 l 603 0 l 603 433 q 561 569 603 531 q 415 608 519 608 q 288 582 350 608 q 181 511 226 556 l 181 0 l 104 0 l 104 936 m 347 -132 l 429 -132 l 429 -211 l 347 -211 l 347 -132 z "},"i":{"ha":375,"x_min":90,"x_max":271,"o":"m 183 913 l 271 913 l 271 829 l 183 829 l 183 913 m 193 594 l 90 594 l 99 658 l 269 658 l 269 0 l 193 0 l 193 594 z "},"ı":{"ha":375,"x_min":90,"x_max":271,"o":"m 194 594 l 90 594 l 96 658 l 271 658 l 271 0 l 194 0 l 194 594 z "},"í":{"ha":375,"x_min":90,"x_max":350,"o":"m 278 944 l 350 944 l 247 725 l 185 725 l 278 944 m 194 594 l 90 594 l 96 658 l 271 658 l 271 0 l 194 0 l 194 594 z "},"ĭ":{"ha":375,"x_min":51,"x_max":360,"o":"m 204 724 q 93 766 135 724 q 51 876 51 808 l 108 876 q 135 803 108 831 q 204 776 161 776 q 276 803 250 776 q 303 876 303 831 l 360 876 q 317 766 360 808 q 204 724 275 724 m 194 594 l 90 594 l 96 658 l 271 658 l 271 0 l 194 0 l 194 594 z "},"ǐ":{"ha":375,"x_min":40,"x_max":399,"o":"m 40 911 l 110 911 l 219 768 l 329 911 l 399 911 l 253 724 l 186 724 l 40 911 m 194 594 l 90 594 l 96 658 l 271 658 l 271 0 l 194 0 l 194 594 z "},"î":{"ha":375,"x_min":26,"x_max":385,"o":"m 172 911 l 239 911 l 385 724 l 315 724 l 206 867 l 96 724 l 26 724 l 172 911 m 194 594 l 90 594 l 96 658 l 271 658 l 271 0 l 194 0 l 194 594 z "},"ï":{"ha":375,"x_min":43,"x_max":353,"o":"m 43 838 l 122 838 l 122 761 l 43 761 l 43 838 m 275 838 l 353 838 l 353 761 l 275 761 l 275 838 m 194 594 l 90 594 l 96 658 l 271 658 l 271 0 l 194 0 l 194 594 z "},"ị":{"ha":375,"x_min":90,"x_max":274,"o":"m 183 913 l 271 913 l 271 829 l 183 829 l 183 913 m 193 594 l 90 594 l 99 658 l 269 658 l 269 0 l 193 0 l 193 594 m 192 -132 l 274 -132 l 274 -211 l 192 -211 l 192 -132 z "},"ì":{"ha":375,"x_min":90,"x_max":271,"o":"m 99 944 l 171 944 l 264 725 l 201 725 l 99 944 m 194 594 l 90 594 l 96 658 l 271 658 l 271 0 l 194 0 l 194 594 z "},"ỉ":{"ha":375,"x_min":90,"x_max":358,"o":"m 168 835 q 251 847 222 838 q 289 872 279 856 q 299 917 299 889 q 271 972 299 954 q 183 990 243 990 q 135 985 161 990 q 90 974 108 981 l 90 1026 q 140 1038 108 1033 q 197 1043 171 1043 q 317 1011 276 1043 q 358 921 358 979 q 330 834 358 864 q 233 797 301 804 l 233 725 l 168 725 l 168 835 m 194 594 l 90 594 l 96 658 l 271 658 l 271 0 l 194 0 l 194 594 z "},"ĳ":{"ha":651,"x_min":90,"x_max":547,"o":"m 183 913 l 271 913 l 271 829 l 183 829 l 183 913 m 460 913 l 547 913 l 547 829 l 460 829 l 460 913 m 193 594 l 90 594 l 99 658 l 269 658 l 269 0 l 193 0 l 193 594 m 358 -325 q 249 -308 294 -325 l 249 -246 q 333 -260 292 -260 q 439 -231 408 -260 q 469 -137 469 -201 l 469 594 l 367 594 l 375 658 l 546 658 l 546 -142 q 497 -276 546 -228 q 358 -325 447 -325 z "},"ī":{"ha":375,"x_min":1,"x_max":372,"o":"m 1 831 l 372 831 l 372 772 l 1 772 l 1 831 m 194 594 l 90 594 l 96 658 l 271 658 l 271 0 l 194 0 l 194 594 z "},"į":{"ha":375,"x_min":90,"x_max":299,"o":"m 271 829 l 183 829 l 183 913 l 271 913 l 271 829 m 229 -249 q 267 -244 247 -249 q 299 -233 286 -240 l 299 -290 q 217 -306 269 -306 q 125 -277 160 -306 q 90 -186 90 -249 q 119 -82 90 -132 q 194 0 149 -32 l 193 0 l 193 594 l 90 594 l 99 658 l 269 658 l 269 0 l 258 0 q 181 -83 207 -37 q 156 -178 156 -129 q 173 -232 156 -215 q 229 -249 190 -249 z "},"ĩ":{"ha":375,"x_min":-3,"x_max":390,"o":"m 292 728 q 244 735 268 728 q 190 756 221 742 q 107 779 135 779 q -3 731 38 779 l -3 796 q 44 825 14 814 q 106 836 74 836 q 151 830 131 836 q 203 810 171 824 q 249 791 231 797 q 289 785 268 785 q 347 797 322 785 q 390 833 372 808 l 390 768 q 351 738 376 749 q 292 728 325 728 m 194 594 l 90 594 l 96 658 l 271 658 l 271 0 l 194 0 l 194 594 z "},"j":{"ha":375,"x_min":-28,"x_max":271,"o":"m 183 913 l 271 913 l 271 829 l 183 829 l 183 913 m 82 -325 q -28 -308 18 -325 l -28 -246 q 57 -260 15 -260 q 163 -231 132 -260 q 193 -137 193 -201 l 193 594 l 90 594 l 99 658 l 269 658 l 269 -142 q 220 -276 269 -228 q 82 -325 171 -325 z "},"ȷ":{"ha":374,"x_min":-28,"x_max":269,"o":"m 82 -325 q -28 -308 18 -325 l -28 -246 q 57 -260 15 -260 q 163 -231 132 -260 q 193 -137 193 -201 l 193 594 l 90 594 l 99 658 l 269 658 l 269 -142 q 220 -276 269 -228 q 82 -325 171 -325 z "},"ĵ":{"ha":374,"x_min":-28,"x_max":381,"o":"m 168 911 l 235 911 l 381 724 l 311 724 l 201 867 l 92 724 l 22 724 l 168 911 m 82 -325 q -28 -308 18 -325 l -28 -246 q 57 -260 15 -260 q 163 -231 132 -260 q 193 -137 193 -201 l 193 594 l 90 594 l 99 658 l 269 658 l 269 -142 q 220 -276 269 -228 q 82 -325 171 -325 z "},"k":{"ha":703,"x_min":104,"x_max":626,"o":"m 104 936 l 181 936 l 181 342 l 519 658 l 611 658 l 340 401 l 626 0 l 546 0 l 290 358 l 181 256 l 181 0 l 104 0 l 104 936 z "},"ķ":{"ha":703,"x_min":104,"x_max":626,"o":"m 104 936 l 181 936 l 181 342 l 519 658 l 611 658 l 340 401 l 626 0 l 546 0 l 290 358 l 181 256 l 181 0 l 104 0 l 104 936 m 314 -51 l 388 -51 l 335 -281 l 278 -281 l 314 -51 z "},"ĸ":{"ha":703,"x_min":104,"x_max":626,"o":"m 104 658 l 181 658 l 181 313 l 519 658 l 611 658 l 340 381 l 626 0 l 546 0 l 292 338 l 181 224 l 181 0 l 104 0 l 104 658 z "},"l":{"ha":342,"x_min":104,"x_max":300,"o":"m 226 -14 q 135 19 167 -14 q 104 126 104 51 l 104 936 l 181 936 l 181 129 q 194 69 181 86 q 239 51 208 51 q 300 60 269 51 l 300 -4 q 226 -14 271 -14 z "},"ĺ":{"ha":342,"x_min":104,"x_max":300,"o":"m 200 1224 l 272 1224 l 169 1004 l 107 1004 l 200 1224 m 226 -14 q 135 19 167 -14 q 104 126 104 51 l 104 936 l 181 936 l 181 129 q 194 69 181 86 q 239 51 208 51 q 300 60 269 51 l 300 -4 q 226 -14 271 -14 z "},"ľ":{"ha":411,"x_min":104,"x_max":376,"o":"m 303 1103 l 376 1103 l 324 874 l 267 874 l 303 1103 m 226 -14 q 135 19 167 -14 q 104 126 104 51 l 104 936 l 181 936 l 181 129 q 194 69 181 86 q 239 51 208 51 q 300 60 269 51 l 300 -4 q 226 -14 271 -14 z "},"ļ":{"ha":342,"x_min":104,"x_max":300,"o":"m 226 -14 q 135 19 167 -14 q 104 126 104 51 l 104 936 l 181 936 l 181 129 q 194 69 181 86 q 239 51 208 51 q 300 60 269 51 l 300 -4 q 226 -14 271 -14 m 188 -51 l 261 -51 l 208 -281 l 151 -281 l 188 -51 z "},"ŀ":{"ha":375,"x_min":104,"x_max":347,"o":"m 226 -14 q 135 19 167 -14 q 104 126 104 51 l 104 936 l 181 936 l 181 129 q 194 69 181 86 q 239 51 208 51 q 300 60 269 51 l 300 -4 q 226 -14 271 -14 m 265 433 l 347 433 l 347 354 l 265 354 l 265 433 z "},"ḷ":{"ha":342,"x_min":104,"x_max":300,"o":"m 226 -14 q 135 19 167 -14 q 104 126 104 51 l 104 936 l 181 936 l 181 129 q 194 69 181 86 q 239 51 208 51 q 300 60 269 51 l 300 -4 q 226 -14 271 -14 m 150 -132 l 232 -132 l 232 -211 l 150 -211 l 150 -132 z "},"ḹ":{"ha":342,"x_min":-49,"x_max":336,"o":"m -49 1058 l 336 1058 l 336 1000 l -49 1000 l -49 1058 m 226 -14 q 135 19 167 -14 q 104 126 104 51 l 104 936 l 181 936 l 181 129 q 194 69 181 86 q 239 51 208 51 q 300 60 269 51 l 300 -4 q 226 -14 271 -14 m 150 -132 l 232 -132 l 232 -211 l 150 -211 l 150 -132 z "},"ḻ":{"ha":342,"x_min":-19,"x_max":365,"o":"m 226 -14 q 135 19 167 -14 q 104 126 104 51 l 104 936 l 181 936 l 181 129 q 194 69 181 86 q 239 51 208 51 q 300 60 269 51 l 300 -4 q 226 -14 271 -14 m -19 -104 l 365 -104 l 365 -162 l -19 -162 l -19 -104 z "},"ł":{"ha":342,"x_min":-46,"x_max":350,"o":"m 226 -14 q 135 19 167 -14 q 104 126 104 51 l 104 411 l -46 346 l -46 413 l 104 478 l 104 936 l 181 936 l 181 511 l 350 585 l 350 518 l 181 444 l 181 129 q 194 69 181 86 q 239 51 208 51 q 300 60 269 51 l 300 -4 q 226 -14 271 -14 z "},"m":{"ha":1181,"x_min":104,"x_max":1083,"o":"m 104 658 l 171 658 l 178 578 q 424 672 292 672 q 540 648 497 672 q 603 578 582 624 q 863 672 715 672 q 1029 615 975 672 q 1083 440 1083 558 l 1083 0 l 1008 0 l 1008 433 q 967 569 1008 531 q 833 608 926 608 q 714 587 769 608 q 621 524 658 565 q 631 431 631 478 l 631 0 l 557 0 l 557 429 q 524 567 557 526 q 401 608 490 608 q 284 582 343 608 q 179 513 225 556 l 179 0 l 104 0 l 104 658 z "},"ṃ":{"ha":1181,"x_min":104,"x_max":1083,"o":"m 104 658 l 171 658 l 178 578 q 424 672 292 672 q 540 648 497 672 q 603 578 582 624 q 863 672 715 672 q 1029 615 975 672 q 1083 440 1083 558 l 1083 0 l 1008 0 l 1008 433 q 967 569 1008 531 q 833 608 926 608 q 714 587 769 608 q 621 524 658 565 q 631 431 631 478 l 631 0 l 557 0 l 557 429 q 524 567 557 526 q 401 608 490 608 q 284 582 343 608 q 179 513 225 556 l 179 0 l 104 0 l 104 658 m 551 -132 l 633 -132 l 633 -211 l 551 -211 l 551 -132 z "},"n":{"ha":776,"x_min":104,"x_max":679,"o":"m 104 658 l 171 658 l 178 578 q 297 648 232 624 q 444 672 361 672 q 623 615 567 672 q 679 435 679 558 l 679 0 l 603 0 l 603 433 q 585 538 603 500 q 527 592 568 575 q 413 608 486 608 q 285 583 344 608 q 181 513 226 557 l 181 0 l 104 0 l 104 658 z "},"ń":{"ha":776,"x_min":104,"x_max":679,"o":"m 446 944 l 518 944 l 415 725 l 353 725 l 446 944 m 104 658 l 171 658 l 178 578 q 297 648 232 624 q 444 672 361 672 q 623 615 567 672 q 679 435 679 558 l 679 0 l 603 0 l 603 433 q 585 538 603 500 q 527 592 568 575 q 413 608 486 608 q 285 583 344 608 q 181 513 226 557 l 181 0 l 104 0 l 104 658 z "},"ŉ":{"ha":868,"x_min":44,"x_max":771,"o":"m 81 903 l 154 903 l 101 674 l 44 674 l 81 903 m 196 658 l 263 658 l 269 578 q 388 648 324 624 q 536 672 453 672 q 715 615 658 672 q 771 435 771 558 l 771 0 l 694 0 l 694 433 q 677 538 694 500 q 619 592 660 575 q 504 608 578 608 q 377 583 436 608 q 272 513 318 557 l 272 0 l 196 0 l 196 658 z "},"ň":{"ha":776,"x_min":104,"x_max":679,"o":"m 206 911 l 275 911 l 385 768 l 494 911 l 564 911 l 418 724 l 351 724 l 206 911 m 104 658 l 171 658 l 178 578 q 297 648 232 624 q 444 672 361 672 q 623 615 567 672 q 679 435 679 558 l 679 0 l 603 0 l 603 433 q 585 538 603 500 q 527 592 568 575 q 413 608 486 608 q 285 583 344 608 q 181 513 226 557 l 181 0 l 104 0 l 104 658 z "},"ņ":{"ha":776,"x_min":104,"x_max":679,"o":"m 104 658 l 171 658 l 178 578 q 297 648 232 624 q 444 672 361 672 q 623 615 567 672 q 679 435 679 558 l 679 0 l 603 0 l 603 433 q 585 538 603 500 q 527 592 568 575 q 413 608 486 608 q 285 583 344 608 q 181 513 226 557 l 181 0 l 104 0 l 104 658 m 368 -51 l 442 -51 l 389 -281 l 332 -281 l 368 -51 z "},"ṅ":{"ha":776,"x_min":104,"x_max":679,"o":"m 356 839 l 435 839 l 435 761 l 356 761 l 356 839 m 104 658 l 171 658 l 178 578 q 297 648 232 624 q 444 672 361 672 q 623 615 567 672 q 679 435 679 558 l 679 0 l 603 0 l 603 433 q 585 538 603 500 q 527 592 568 575 q 413 608 486 608 q 285 583 344 608 q 181 513 226 557 l 181 0 l 104 0 l 104 658 z "},"ṇ":{"ha":776,"x_min":104,"x_max":679,"o":"m 104 658 l 171 658 l 178 578 q 297 648 232 624 q 444 672 361 672 q 623 615 567 672 q 679 435 679 558 l 679 0 l 603 0 l 603 433 q 585 538 603 500 q 527 592 568 575 q 413 608 486 608 q 285 583 344 608 q 181 513 226 557 l 181 0 l 104 0 l 104 658 m 360 -132 l 442 -132 l 442 -211 l 360 -211 l 360 -132 z "},"ŋ":{"ha":776,"x_min":104,"x_max":679,"o":"m 492 -325 q 381 -308 426 -325 l 381 -246 q 465 -260 426 -260 q 572 -231 540 -260 q 603 -137 603 -201 l 603 433 q 585 538 603 500 q 527 592 568 575 q 413 608 486 608 q 285 583 344 608 q 181 513 226 557 l 181 0 l 104 0 l 104 658 l 171 658 l 178 578 q 297 648 232 624 q 444 672 361 672 q 623 615 567 672 q 679 435 679 558 l 679 -142 q 630 -276 679 -228 q 492 -325 581 -325 z "},"ṉ":{"ha":776,"x_min":104,"x_max":679,"o":"m 104 658 l 171 658 l 178 578 q 297 648 232 624 q 444 672 361 672 q 623 615 567 672 q 679 435 679 558 l 679 0 l 603 0 l 603 433 q 585 538 603 500 q 527 592 568 575 q 413 608 486 608 q 285 583 344 608 q 181 513 226 557 l 181 0 l 104 0 l 104 658 m 203 -103 l 588 -103 l 588 -161 l 203 -161 l 203 -103 z "},"ñ":{"ha":776,"x_min":104,"x_max":679,"o":"m 497 760 q 450 767 474 760 q 396 788 426 774 q 313 811 340 811 q 203 763 243 811 l 203 828 q 249 857 219 846 q 311 868 279 868 q 356 862 336 868 q 408 842 376 856 q 455 823 436 829 q 494 817 474 817 q 553 828 528 817 q 596 865 578 840 l 596 800 q 556 770 582 781 q 497 760 531 760 m 104 658 l 171 658 l 178 578 q 297 648 232 624 q 444 672 361 672 q 623 615 567 672 q 679 435 679 558 l 679 0 l 603 0 l 603 433 q 585 538 603 500 q 527 592 568 575 q 413 608 486 608 q 285 583 344 608 q 181 513 226 557 l 181 0 l 104 0 l 104 658 z "},"o":{"ha":782,"x_min":76,"x_max":706,"o":"m 390 -14 q 151 72 226 -14 q 76 329 76 158 q 153 585 76 499 q 390 672 229 672 q 628 585 551 672 q 706 329 706 499 q 630 72 706 158 q 390 -14 554 -14 m 390 51 q 574 118 519 51 q 629 329 629 185 q 574 539 629 472 q 390 606 518 606 q 207 539 263 606 q 151 329 151 472 q 206 118 151 185 q 390 51 261 51 z "},"ó":{"ha":782,"x_min":76,"x_max":706,"o":"m 456 944 l 528 944 l 425 725 l 363 725 l 456 944 m 390 -14 q 151 72 226 -14 q 76 329 76 158 q 153 585 76 499 q 390 672 229 672 q 628 585 551 672 q 706 329 706 499 q 630 72 706 158 q 390 -14 554 -14 m 390 51 q 574 118 519 51 q 629 329 629 185 q 574 539 629 472 q 390 606 518 606 q 207 539 263 606 q 151 329 151 472 q 206 118 151 185 q 390 51 261 51 z "},"ŏ":{"ha":782,"x_min":76,"x_max":706,"o":"m 390 724 q 278 767 321 724 q 236 878 236 810 l 294 878 q 321 804 294 831 q 390 778 347 778 q 461 804 435 778 q 488 878 488 831 l 546 878 q 503 767 546 810 q 390 724 461 724 m 390 -14 q 151 72 226 -14 q 76 329 76 158 q 153 585 76 499 q 390 672 229 672 q 628 585 551 672 q 706 329 706 499 q 630 72 706 158 q 390 -14 554 -14 m 390 51 q 574 118 519 51 q 629 329 629 185 q 574 539 629 472 q 390 606 518 606 q 207 539 263 606 q 151 329 151 472 q 206 118 151 185 q 390 51 261 51 z "},"ǒ":{"ha":782,"x_min":76,"x_max":706,"o":"m 211 911 l 281 911 l 390 768 l 500 911 l 569 911 l 424 724 l 357 724 l 211 911 m 390 -14 q 151 72 226 -14 q 76 329 76 158 q 153 585 76 499 q 390 672 229 672 q 628 585 551 672 q 706 329 706 499 q 630 72 706 158 q 390 -14 554 -14 m 390 51 q 574 118 519 51 q 629 329 629 185 q 574 539 629 472 q 390 606 518 606 q 207 539 263 606 q 151 329 151 472 q 206 118 151 185 q 390 51 261 51 z "},"ô":{"ha":782,"x_min":76,"x_max":706,"o":"m 357 911 l 424 911 l 569 724 l 500 724 l 390 867 l 281 724 l 211 724 l 357 911 m 390 -14 q 151 72 226 -14 q 76 329 76 158 q 153 585 76 499 q 390 672 229 672 q 628 585 551 672 q 706 329 706 499 q 630 72 706 158 q 390 -14 554 -14 m 390 51 q 574 118 519 51 q 629 329 629 185 q 574 539 629 472 q 390 606 518 606 q 207 539 263 606 q 151 329 151 472 q 206 118 151 185 q 390 51 261 51 z "},"ố":{"ha":782,"x_min":76,"x_max":706,"o":"m 579 1033 l 644 1033 l 553 871 l 496 871 l 579 1033 m 367 876 l 433 876 l 576 724 l 508 724 l 400 842 l 292 724 l 224 724 l 367 876 m 390 -14 q 151 72 226 -14 q 76 329 76 158 q 153 585 76 499 q 390 672 229 672 q 628 585 551 672 q 706 329 706 499 q 630 72 706 158 q 390 -14 554 -14 m 390 51 q 574 118 519 51 q 629 329 629 185 q 574 539 629 472 q 390 606 518 606 q 207 539 263 606 q 151 329 151 472 q 206 118 151 185 q 390 51 261 51 z "},"ộ":{"ha":782,"x_min":76,"x_max":706,"o":"m 357 911 l 424 911 l 569 724 l 500 724 l 390 867 l 281 724 l 211 724 l 357 911 m 390 -14 q 151 72 226 -14 q 76 329 76 158 q 153 585 76 499 q 390 672 229 672 q 628 585 551 672 q 706 329 706 499 q 630 72 706 158 q 390 -14 554 -14 m 390 51 q 574 118 519 51 q 629 329 629 185 q 574 539 629 472 q 390 606 518 606 q 207 539 263 606 q 151 329 151 472 q 206 118 151 185 q 390 51 261 51 m 350 -132 l 432 -132 l 432 -211 l 350 -211 l 350 -132 z "},"ồ":{"ha":782,"x_min":76,"x_max":706,"o":"m 144 1033 l 210 1033 l 292 871 l 236 871 l 144 1033 m 356 876 l 422 876 l 565 724 l 496 724 l 389 842 l 281 724 l 213 724 l 356 876 m 390 -14 q 151 72 226 -14 q 76 329 76 158 q 153 585 76 499 q 390 672 229 672 q 628 585 551 672 q 706 329 706 499 q 630 72 706 158 q 390 -14 554 -14 m 390 51 q 574 118 519 51 q 629 329 629 185 q 574 539 629 472 q 390 606 518 606 q 207 539 263 606 q 151 329 151 472 q 206 118 151 185 q 390 51 261 51 z "},"ổ":{"ha":782,"x_min":76,"x_max":706,"o":"m 515 924 q 608 942 585 928 q 631 988 631 957 q 557 1044 631 1044 q 475 1026 514 1044 l 475 1074 q 567 1090 515 1090 q 656 1064 624 1090 q 689 990 689 1038 q 663 922 689 946 q 578 892 636 897 l 578 842 l 515 842 l 515 924 m 375 876 l 442 876 l 585 724 l 517 724 l 408 842 l 301 724 l 232 724 l 375 876 m 390 -14 q 151 72 226 -14 q 76 329 76 158 q 153 585 76 499 q 390 672 229 672 q 628 585 551 672 q 706 329 706 499 q 630 72 706 158 q 390 -14 554 -14 m 390 51 q 574 118 519 51 q 629 329 629 185 q 574 539 629 472 q 390 606 518 606 q 207 539 263 606 q 151 329 151 472 q 206 118 151 185 q 390 51 261 51 z "},"ỗ":{"ha":782,"x_min":76,"x_max":706,"o":"m 476 947 q 433 953 453 947 q 383 972 413 960 q 342 989 358 983 q 308 994 325 994 q 251 985 276 994 q 204 950 226 975 l 204 1010 q 249 1038 221 1028 q 306 1047 276 1047 q 350 1041 329 1047 q 396 1022 371 1035 q 438 1006 421 1011 q 475 1000 456 1000 q 531 1010 507 1000 q 575 1046 556 1021 l 575 985 q 535 957 561 967 q 476 947 508 947 m 390 725 q 251 769 306 725 q 197 908 197 814 l 251 908 q 289 808 251 842 q 390 775 326 775 q 492 808 454 775 q 529 908 529 842 l 582 908 q 528 769 582 814 q 390 725 474 725 m 390 -14 q 151 72 226 -14 q 76 329 76 158 q 153 585 76 499 q 390 672 229 672 q 628 585 551 672 q 706 329 706 499 q 630 72 706 158 q 390 -14 554 -14 m 390 51 q 574 118 519 51 q 629 329 629 185 q 574 539 629 472 q 390 606 518 606 q 207 539 263 606 q 151 329 151 472 q 206 118 151 185 q 390 51 261 51 z "},"ö":{"ha":782,"x_min":76,"x_max":706,"o":"m 236 838 l 315 838 l 315 761 l 236 761 l 236 838 m 468 838 l 546 838 l 546 761 l 468 761 l 468 838 m 390 -14 q 151 72 226 -14 q 76 329 76 158 q 153 585 76 499 q 390 672 229 672 q 628 585 551 672 q 706 329 706 499 q 630 72 706 158 q 390 -14 554 -14 m 390 51 q 574 118 519 51 q 629 329 629 185 q 574 539 629 472 q 390 606 518 606 q 207 539 263 606 q 151 329 151 472 q 206 118 151 185 q 390 51 261 51 z "},"ọ":{"ha":782,"x_min":76,"x_max":706,"o":"m 390 -14 q 151 72 226 -14 q 76 329 76 158 q 153 585 76 499 q 390 672 229 672 q 628 585 551 672 q 706 329 706 499 q 630 72 706 158 q 390 -14 554 -14 m 390 51 q 574 118 519 51 q 629 329 629 185 q 574 539 629 472 q 390 606 518 606 q 207 539 263 606 q 151 329 151 472 q 206 118 151 185 q 390 51 261 51 m 350 -132 l 432 -132 l 432 -211 l 350 -211 l 350 -132 z "},"ò":{"ha":782,"x_min":76,"x_max":706,"o":"m 267 944 l 339 944 l 432 725 l 369 725 l 267 944 m 390 -14 q 151 72 226 -14 q 76 329 76 158 q 153 585 76 499 q 390 672 229 672 q 628 585 551 672 q 706 329 706 499 q 630 72 706 158 q 390 -14 554 -14 m 390 51 q 574 118 519 51 q 629 329 629 185 q 574 539 629 472 q 390 606 518 606 q 207 539 263 606 q 151 329 151 472 q 206 118 151 185 q 390 51 261 51 z "},"ỏ":{"ha":782,"x_min":76,"x_max":706,"o":"m 360 835 q 442 847 414 838 q 481 872 471 856 q 490 917 490 889 q 463 972 490 954 q 375 990 435 990 q 326 985 353 990 q 282 974 300 981 l 282 1026 q 331 1038 300 1033 q 389 1043 363 1043 q 509 1011 468 1043 q 550 921 550 979 q 522 834 550 864 q 425 797 493 804 l 425 725 l 360 725 l 360 835 m 390 -14 q 151 72 226 -14 q 76 329 76 158 q 153 585 76 499 q 390 672 229 672 q 628 585 551 672 q 706 329 706 499 q 630 72 706 158 q 390 -14 554 -14 m 390 51 q 574 118 519 51 q 629 329 629 185 q 574 539 629 472 q 390 606 518 606 q 207 539 263 606 q 151 329 151 472 q 206 118 151 185 q 390 51 261 51 z "},"ơ":{"ha":888,"x_min":76,"x_max":853,"o":"m 390 -14 q 151 72 226 -14 q 76 329 76 158 q 153 585 76 499 q 390 672 229 672 q 640 571 564 672 q 754 610 722 572 q 786 744 786 647 l 853 744 q 808 574 853 626 q 674 513 764 521 q 706 329 706 436 q 630 72 706 158 q 390 -14 554 -14 m 390 51 q 574 118 519 51 q 629 329 629 185 q 574 539 629 472 q 390 606 518 606 q 207 539 263 606 q 151 329 151 472 q 206 118 151 185 q 390 51 261 51 z "},"ớ":{"ha":888,"x_min":76,"x_max":853,"o":"m 467 944 l 539 944 l 436 725 l 374 725 l 467 944 m 390 -14 q 151 72 226 -14 q 76 329 76 158 q 153 585 76 499 q 390 672 229 672 q 640 571 564 672 q 754 610 722 572 q 786 744 786 647 l 853 744 q 808 574 853 626 q 674 513 764 521 q 706 329 706 436 q 630 72 706 158 q 390 -14 554 -14 m 390 51 q 574 118 519 51 q 629 329 629 185 q 574 539 629 472 q 390 606 518 606 q 207 539 263 606 q 151 329 151 472 q 206 118 151 185 q 390 51 261 51 z "},"ợ":{"ha":888,"x_min":76,"x_max":853,"o":"m 390 -14 q 151 72 226 -14 q 76 329 76 158 q 153 585 76 499 q 390 672 229 672 q 640 571 564 672 q 754 610 722 572 q 786 744 786 647 l 853 744 q 808 574 853 626 q 674 513 764 521 q 706 329 706 436 q 630 72 706 158 q 390 -14 554 -14 m 390 51 q 574 118 519 51 q 629 329 629 185 q 574 539 629 472 q 390 606 518 606 q 207 539 263 606 q 151 329 151 472 q 206 118 151 185 q 390 51 261 51 m 363 -132 l 444 -132 l 444 -211 l 363 -211 l 363 -132 z "},"ờ":{"ha":888,"x_min":76,"x_max":853,"o":"m 283 944 l 356 944 l 449 725 l 386 725 l 283 944 m 390 -14 q 151 72 226 -14 q 76 329 76 158 q 153 585 76 499 q 390 672 229 672 q 640 571 564 672 q 754 610 722 572 q 786 744 786 647 l 853 744 q 808 574 853 626 q 674 513 764 521 q 706 329 706 436 q 630 72 706 158 q 390 -14 554 -14 m 390 51 q 574 118 519 51 q 629 329 629 185 q 574 539 629 472 q 390 606 518 606 q 207 539 263 606 q 151 329 151 472 q 206 118 151 185 q 390 51 261 51 z "},"ở":{"ha":888,"x_min":76,"x_max":853,"o":"m 356 835 q 438 847 410 838 q 476 872 467 856 q 486 917 486 889 q 458 972 486 954 q 371 990 431 990 q 322 985 349 990 q 278 974 296 981 l 278 1026 q 327 1038 296 1033 q 385 1043 358 1043 q 505 1011 464 1043 q 546 921 546 979 q 517 834 546 864 q 421 797 489 804 l 421 725 l 356 725 l 356 835 m 390 -14 q 151 72 226 -14 q 76 329 76 158 q 153 585 76 499 q 390 672 229 672 q 640 571 564 672 q 754 610 722 572 q 786 744 786 647 l 853 744 q 808 574 853 626 q 674 513 764 521 q 706 329 706 436 q 630 72 706 158 q 390 -14 554 -14 m 390 51 q 574 118 519 51 q 629 329 629 185 q 574 539 629 472 q 390 606 518 606 q 207 539 263 606 q 151 329 151 472 q 206 118 151 185 q 390 51 261 51 z "},"ỡ":{"ha":888,"x_min":76,"x_max":853,"o":"m 497 758 q 450 765 474 758 q 396 786 426 772 q 313 810 340 810 q 203 761 243 810 l 203 826 q 249 856 219 844 q 311 867 279 867 q 356 860 336 867 q 408 840 376 854 q 455 822 436 828 q 494 815 474 815 q 553 827 528 815 q 596 864 578 839 l 596 799 q 556 769 582 779 q 497 758 531 758 m 390 -14 q 151 72 226 -14 q 76 329 76 158 q 153 585 76 499 q 390 672 229 672 q 640 571 564 672 q 754 610 722 572 q 786 744 786 647 l 853 744 q 808 574 853 626 q 674 513 764 521 q 706 329 706 436 q 630 72 706 158 q 390 -14 554 -14 m 390 51 q 574 118 519 51 q 629 329 629 185 q 574 539 629 472 q 390 606 518 606 q 207 539 263 606 q 151 329 151 472 q 206 118 151 185 q 390 51 261 51 z "},"ő":{"ha":782,"x_min":76,"x_max":706,"o":"m 324 919 l 399 919 l 293 724 l 231 724 l 324 919 m 600 919 l 675 919 l 569 724 l 507 724 l 600 919 m 390 -14 q 151 72 226 -14 q 76 329 76 158 q 153 585 76 499 q 390 672 229 672 q 628 585 551 672 q 706 329 706 499 q 630 72 706 158 q 390 -14 554 -14 m 390 51 q 574 118 519 51 q 629 329 629 185 q 574 539 629 472 q 390 606 518 606 q 207 539 263 606 q 151 329 151 472 q 206 118 151 185 q 390 51 261 51 z "},"ō":{"ha":782,"x_min":76,"x_max":706,"o":"m 199 826 l 583 826 l 583 768 l 199 768 l 199 826 m 390 -14 q 151 72 226 -14 q 76 329 76 158 q 153 585 76 499 q 390 672 229 672 q 628 585 551 672 q 706 329 706 499 q 630 72 706 158 q 390 -14 554 -14 m 390 51 q 574 118 519 51 q 629 329 629 185 q 574 539 629 472 q 390 606 518 606 q 207 539 263 606 q 151 329 151 472 q 206 118 151 185 q 390 51 261 51 z "},"ø":{"ha":782,"x_min":76,"x_max":706,"o":"m 249 7 q 118 120 160 40 q 76 329 76 200 q 153 585 76 499 q 390 672 229 672 q 485 663 444 672 l 510 733 l 578 733 l 546 644 q 706 329 706 574 q 630 72 706 158 q 390 -14 554 -14 q 311 -8 344 -14 l 288 -75 l 219 -75 l 249 7 m 461 599 q 390 606 426 606 q 207 539 263 606 q 151 329 151 472 q 180 159 151 222 q 272 71 208 96 l 461 599 m 390 51 q 574 118 519 51 q 629 329 629 185 q 603 489 629 428 q 522 579 578 550 l 335 54 q 390 51 368 51 z "},"ǿ":{"ha":782,"x_min":76,"x_max":706,"o":"m 440 944 l 513 944 l 410 725 l 347 725 l 440 944 m 249 7 q 118 120 160 40 q 76 329 76 200 q 153 585 76 499 q 390 672 229 672 q 485 663 444 672 l 510 733 l 578 733 l 546 644 q 706 329 706 574 q 630 72 706 158 q 390 -14 554 -14 q 311 -8 344 -14 l 288 -75 l 219 -75 l 249 7 m 461 599 q 390 606 426 606 q 207 539 263 606 q 151 329 151 472 q 180 159 151 222 q 272 71 208 96 l 461 599 m 390 51 q 574 118 519 51 q 629 329 629 185 q 603 489 629 428 q 522 579 578 550 l 335 54 q 390 51 368 51 z "},"õ":{"ha":782,"x_min":76,"x_max":706,"o":"m 489 763 q 442 769 465 763 q 388 790 418 776 q 304 814 332 814 q 194 765 235 814 l 194 831 q 241 860 211 849 q 303 871 271 871 q 348 865 328 871 q 400 844 368 858 q 447 826 428 832 q 486 819 465 819 q 544 831 519 819 q 588 868 569 843 l 588 803 q 548 773 574 783 q 489 763 522 763 m 390 -14 q 151 72 226 -14 q 76 329 76 158 q 153 585 76 499 q 390 672 229 672 q 628 585 551 672 q 706 329 706 499 q 630 72 706 158 q 390 -14 554 -14 m 390 51 q 574 118 519 51 q 629 329 629 185 q 574 539 629 472 q 390 606 518 606 q 207 539 263 606 q 151 329 151 472 q 206 118 151 185 q 390 51 261 51 z "},"œ":{"ha":1283,"x_min":76,"x_max":1207,"o":"m 390 -14 q 151 72 226 -14 q 76 329 76 158 q 153 585 76 499 q 390 672 229 672 q 667 519 599 672 q 935 672 732 672 q 1138 599 1069 672 q 1207 408 1207 525 l 1207 289 l 706 289 q 738 149 710 201 q 825 73 765 97 q 985 49 885 49 q 1164 83 1075 49 l 1164 21 q 971 -14 1078 -14 q 778 24 851 -14 q 668 139 704 61 q 390 -14 601 -14 m 1136 349 l 1136 411 q 936 608 1136 608 q 758 544 811 608 q 706 349 706 479 l 1136 349 m 390 51 q 574 119 519 51 q 629 332 629 186 q 573 540 629 474 q 390 606 517 606 q 207 539 263 606 q 151 329 151 472 q 206 118 151 185 q 390 51 261 51 z "},"p":{"ha":783,"x_min":104,"x_max":707,"o":"m 104 658 l 168 658 l 175 583 q 281 651 224 629 q 413 672 338 672 q 707 331 707 672 q 628 71 707 156 q 407 -14 550 -14 q 283 2 338 -14 q 181 54 229 18 l 181 -300 l 104 -300 l 104 658 m 388 49 q 572 117 511 49 q 632 331 632 185 q 576 541 632 474 q 394 608 521 608 q 181 519 264 608 l 181 122 q 388 49 265 49 z "},"þ":{"ha":783,"x_min":104,"x_max":707,"o":"m 104 972 l 181 972 l 181 594 q 413 672 275 672 q 707 331 707 672 q 628 71 707 156 q 407 -14 550 -14 q 283 2 338 -14 q 181 54 229 18 l 181 -300 l 104 -300 l 104 972 m 388 49 q 572 117 511 49 q 632 331 632 185 q 576 541 632 474 q 394 608 521 608 q 181 519 264 608 l 181 122 q 388 49 265 49 z "},"q":{"ha":838,"x_min":76,"x_max":817,"o":"m 746 -336 q 638 -297 674 -336 q 603 -175 603 -257 l 603 54 q 500 2 554 18 q 376 -14 446 -14 q 155 71 233 -14 q 76 331 76 156 q 371 672 76 672 q 503 651 446 672 q 608 583 560 629 l 615 658 l 679 658 l 679 -172 q 697 -249 679 -228 q 765 -271 714 -271 q 817 -262 786 -271 l 817 -326 q 746 -336 786 -336 m 396 49 q 603 122 518 49 l 603 519 q 389 608 519 608 q 207 541 263 608 q 151 331 151 474 q 212 117 151 185 q 396 49 272 49 z "},"r":{"ha":475,"x_min":104,"x_max":426,"o":"m 104 658 l 171 658 l 179 567 q 295 629 229 601 q 426 672 361 657 l 426 610 q 292 565 364 594 q 181 506 221 535 l 181 0 l 104 0 l 104 658 z "},"ŕ":{"ha":475,"x_min":104,"x_max":426,"o":"m 258 944 l 331 944 l 228 725 l 165 725 l 258 944 m 104 658 l 171 658 l 179 567 q 295 629 229 601 q 426 672 361 657 l 426 610 q 292 565 364 594 q 181 506 221 535 l 181 0 l 104 0 l 104 658 z "},"ř":{"ha":475,"x_min":0,"x_max":426,"o":"m 0 911 l 69 911 l 179 768 l 289 911 l 358 911 l 213 724 l 146 724 l 0 911 m 104 658 l 171 658 l 179 567 q 295 629 229 601 q 426 672 361 657 l 426 610 q 292 565 364 594 q 181 506 221 535 l 181 0 l 104 0 l 104 658 z "},"ŗ":{"ha":475,"x_min":67,"x_max":426,"o":"m 104 658 l 171 658 l 179 567 q 295 629 229 601 q 426 672 361 657 l 426 610 q 292 565 364 594 q 181 506 221 535 l 181 0 l 104 0 l 104 658 m 103 -51 l 176 -51 l 124 -281 l 67 -281 l 103 -51 z "},"ṛ":{"ha":475,"x_min":100,"x_max":426,"o":"m 104 658 l 171 658 l 179 567 q 295 629 229 601 q 426 672 361 657 l 426 610 q 292 565 364 594 q 181 506 221 535 l 181 0 l 104 0 l 104 658 m 100 -132 l 182 -132 l 182 -211 l 100 -211 l 100 -132 z "},"ṝ":{"ha":475,"x_min":32,"x_max":426,"o":"m 32 824 l 417 824 l 417 765 l 32 765 l 32 824 m 104 658 l 171 658 l 179 567 q 295 629 229 601 q 426 672 361 657 l 426 610 q 292 565 364 594 q 181 506 221 535 l 181 0 l 104 0 l 104 658 m 100 -132 l 182 -132 l 182 -211 l 100 -211 l 100 -132 z "},"ṟ":{"ha":475,"x_min":-35,"x_max":426,"o":"m 104 658 l 171 658 l 179 567 q 295 629 229 601 q 426 672 361 657 l 426 610 q 292 565 364 594 q 181 506 221 535 l 181 0 l 104 0 l 104 658 m -35 -103 l 350 -103 l 350 -161 l -35 -161 l -35 -103 z "},"s":{"ha":621,"x_min":76,"x_max":544,"o":"m 297 -14 q 94 14 178 -14 l 94 82 q 288 51 185 51 q 426 78 385 51 q 468 167 468 104 q 452 228 468 206 q 406 264 436 250 q 310 300 375 278 l 275 313 q 163 355 200 338 q 101 406 126 372 q 76 499 76 440 q 134 629 76 586 q 318 672 192 672 q 493 649 413 672 l 493 581 q 329 606 413 606 q 192 581 232 606 q 151 500 151 557 q 168 441 151 463 q 217 406 185 419 q 324 368 250 392 q 452 319 407 342 q 521 260 497 296 q 544 167 544 225 q 297 -14 544 -14 z "},"ś":{"ha":621,"x_min":76,"x_max":544,"o":"m 367 944 l 439 944 l 336 725 l 274 725 l 367 944 m 297 -14 q 94 14 178 -14 l 94 82 q 288 51 185 51 q 426 78 385 51 q 468 167 468 104 q 452 228 468 206 q 406 264 436 250 q 310 300 375 278 l 275 313 q 163 355 200 338 q 101 406 126 372 q 76 499 76 440 q 134 629 76 586 q 318 672 192 672 q 493 649 413 672 l 493 581 q 329 606 413 606 q 192 581 232 606 q 151 500 151 557 q 168 441 151 463 q 217 406 185 419 q 324 368 250 392 q 452 319 407 342 q 521 260 497 296 q 544 167 544 225 q 297 -14 544 -14 z "},"š":{"ha":621,"x_min":76,"x_max":544,"o":"m 139 911 l 208 911 l 318 768 l 428 911 l 497 911 l 351 724 l 285 724 l 139 911 m 297 -14 q 94 14 178 -14 l 94 82 q 288 51 185 51 q 426 78 385 51 q 468 167 468 104 q 452 228 468 206 q 406 264 436 250 q 310 300 375 278 l 275 313 q 163 355 200 338 q 101 406 126 372 q 76 499 76 440 q 134 629 76 586 q 318 672 192 672 q 493 649 413 672 l 493 581 q 329 606 413 606 q 192 581 232 606 q 151 500 151 557 q 168 441 151 463 q 217 406 185 419 q 324 368 250 392 q 452 319 407 342 q 521 260 497 296 q 544 167 544 225 q 297 -14 544 -14 z "},"ş":{"ha":621,"x_min":76,"x_max":544,"o":"m 544 167 q 343 -12 544 3 l 324 -71 q 442 -102 401 -71 q 482 -193 482 -133 q 435 -298 482 -262 q 289 -333 389 -333 q 241 -330 268 -333 q 197 -322 214 -326 l 197 -271 q 285 -282 238 -282 q 390 -262 357 -282 q 422 -193 422 -242 q 392 -133 422 -150 q 294 -117 363 -117 l 249 -117 l 283 -14 q 94 14 174 -12 l 94 82 q 288 51 185 51 q 426 78 385 51 q 468 167 468 104 q 452 228 468 206 q 406 264 436 250 q 310 300 375 278 l 275 313 q 163 355 200 338 q 101 406 126 372 q 76 499 76 440 q 134 629 76 586 q 318 672 192 672 q 493 649 413 672 l 493 581 q 329 606 413 606 q 192 581 232 606 q 151 500 151 557 q 168 441 151 463 q 217 406 185 419 q 324 368 250 392 q 452 319 407 342 q 521 260 497 296 q 544 167 544 225 z "},"ŝ":{"ha":621,"x_min":76,"x_max":544,"o":"m 289 925 l 356 925 l 501 738 l 432 738 l 322 881 l 213 738 l 143 738 l 289 925 m 297 -14 q 94 14 178 -14 l 94 82 q 288 51 185 51 q 426 78 385 51 q 468 167 468 104 q 452 228 468 206 q 406 264 436 250 q 310 300 375 278 l 275 313 q 163 355 200 338 q 101 406 126 372 q 76 499 76 440 q 134 629 76 586 q 318 672 192 672 q 493 649 413 672 l 493 581 q 329 606 413 606 q 192 581 232 606 q 151 500 151 557 q 168 441 151 463 q 217 406 185 419 q 324 368 250 392 q 452 319 407 342 q 521 260 497 296 q 544 167 544 225 q 297 -14 544 -14 z "},"ș":{"ha":621,"x_min":76,"x_max":544,"o":"m 297 -14 q 94 14 178 -14 l 94 82 q 288 51 185 51 q 426 78 385 51 q 468 167 468 104 q 452 228 468 206 q 406 264 436 250 q 310 300 375 278 l 275 313 q 163 355 200 338 q 101 406 126 372 q 76 499 76 440 q 134 629 76 586 q 318 672 192 672 q 493 649 413 672 l 493 581 q 329 606 413 606 q 192 581 232 606 q 151 500 151 557 q 168 441 151 463 q 217 406 185 419 q 324 368 250 392 q 452 319 407 342 q 521 260 497 296 q 544 167 544 225 q 297 -14 544 -14 m 278 -76 l 353 -76 l 301 -299 l 242 -299 l 278 -76 z "},"ṡ":{"ha":621,"x_min":76,"x_max":544,"o":"m 286 839 l 365 839 l 365 761 l 286 761 l 286 839 m 297 -14 q 94 14 178 -14 l 94 82 q 288 51 185 51 q 426 78 385 51 q 468 167 468 104 q 452 228 468 206 q 406 264 436 250 q 310 300 375 278 l 275 313 q 163 355 200 338 q 101 406 126 372 q 76 499 76 440 q 134 629 76 586 q 318 672 192 672 q 493 649 413 672 l 493 581 q 329 606 413 606 q 192 581 232 606 q 151 500 151 557 q 168 441 151 463 q 217 406 185 419 q 324 368 250 392 q 452 319 407 342 q 521 260 497 296 q 544 167 544 225 q 297 -14 544 -14 z "},"ṣ":{"ha":621,"x_min":76,"x_max":544,"o":"m 297 -14 q 94 14 178 -14 l 94 82 q 288 51 185 51 q 426 78 385 51 q 468 167 468 104 q 452 228 468 206 q 406 264 436 250 q 310 300 375 278 l 275 313 q 163 355 200 338 q 101 406 126 372 q 76 499 76 440 q 134 629 76 586 q 318 672 192 672 q 493 649 413 672 l 493 581 q 329 606 413 606 q 192 581 232 606 q 151 500 151 557 q 168 441 151 463 q 217 406 185 419 q 324 368 250 392 q 452 319 407 342 q 521 260 497 296 q 544 167 544 225 q 297 -14 544 -14 m 286 -132 l 368 -132 l 368 -211 l 286 -211 l 286 -132 z "},"ß":{"ha":861,"x_min":97,"x_max":785,"o":"m 511 -14 q 311 17 388 -14 l 311 83 q 503 51 386 51 q 655 107 601 51 q 708 265 708 163 q 659 414 708 363 q 496 465 610 465 l 375 465 l 375 526 l 501 526 q 633 578 590 526 q 675 711 675 629 q 617 854 675 803 q 424 906 560 906 q 237 843 300 906 q 174 658 174 781 l 174 0 l 97 0 l 97 664 q 184 890 97 807 q 424 972 271 972 q 665 899 583 972 q 747 711 747 826 q 714 578 747 635 q 625 497 681 522 q 742 417 700 476 q 785 263 785 357 q 714 58 785 131 q 511 -14 643 -14 z "},"ə":{"ha":729,"x_min":76,"x_max":653,"o":"m 349 -14 q 144 59 213 -14 q 76 250 76 132 l 76 368 l 576 368 q 544 508 572 456 q 458 584 517 560 q 297 608 399 608 q 119 574 201 608 l 119 636 q 313 672 203 672 q 572 588 490 672 q 653 325 653 504 q 349 -14 653 -14 m 347 49 q 524 113 472 49 q 576 310 576 178 l 146 310 l 146 246 q 347 49 146 49 z "},"t":{"ha":486,"x_min":49,"x_max":438,"o":"m 333 -14 q 199 35 246 -14 q 151 171 151 83 l 151 594 l 49 594 l 49 658 l 151 658 l 151 831 l 228 856 l 228 658 l 418 658 l 414 594 l 228 594 l 228 174 q 258 79 228 110 q 356 49 289 49 q 438 64 393 49 l 438 3 q 333 -14 392 -14 z "},"ŧ":{"ha":486,"x_min":49,"x_max":438,"o":"m 333 -14 q 199 35 246 -14 q 151 171 151 83 l 151 322 l 56 322 l 56 381 l 151 381 l 151 594 l 49 594 l 49 658 l 151 658 l 151 831 l 228 856 l 228 658 l 418 658 l 414 594 l 228 594 l 228 381 l 425 381 l 425 322 l 228 322 l 228 174 q 258 79 228 110 q 358 49 289 49 q 438 64 393 49 l 438 3 q 333 -14 392 -14 z "},"ť":{"ha":536,"x_min":49,"x_max":515,"o":"m 442 1007 l 515 1007 l 463 778 l 406 778 l 442 1007 m 333 -14 q 199 35 246 -14 q 151 171 151 83 l 151 594 l 49 594 l 49 658 l 151 658 l 151 831 l 228 856 l 228 658 l 418 658 l 414 594 l 228 594 l 228 174 q 258 79 228 110 q 356 49 289 49 q 438 64 393 49 l 438 3 q 333 -14 392 -14 z "},"ţ":{"ha":486,"x_min":49,"x_max":475,"o":"m 317 -71 q 435 -102 394 -71 q 475 -193 475 -133 q 428 -298 475 -262 q 282 -333 382 -333 q 234 -330 261 -333 q 190 -322 207 -326 l 190 -271 q 278 -282 231 -282 q 383 -262 350 -282 q 415 -193 415 -242 q 385 -133 415 -150 q 288 -117 356 -117 l 242 -117 l 278 -8 q 184 53 217 7 q 151 171 151 99 l 151 594 l 49 594 l 49 658 l 151 658 l 151 831 l 228 856 l 228 658 l 418 658 l 414 594 l 228 594 l 228 174 q 258 79 228 110 q 356 49 289 49 q 438 64 393 49 l 438 3 q 336 -14 392 -14 l 317 -71 z "},"ț":{"ha":486,"x_min":49,"x_max":438,"o":"m 333 -14 q 199 35 246 -14 q 151 171 151 83 l 151 594 l 49 594 l 49 658 l 151 658 l 151 831 l 228 856 l 228 658 l 418 658 l 414 594 l 228 594 l 228 174 q 258 79 228 110 q 356 49 289 49 q 438 64 393 49 l 438 3 q 333 -14 392 -14 m 290 -56 l 364 -56 l 311 -285 l 254 -285 l 290 -56 z "},"ẗ":{"ha":486,"x_min":43,"x_max":438,"o":"m 43 974 l 122 974 l 122 897 l 43 897 l 43 974 m 275 974 l 353 974 l 353 897 l 275 897 l 275 974 m 333 -14 q 199 35 246 -14 q 151 171 151 83 l 151 594 l 49 594 l 49 658 l 151 658 l 151 831 l 228 856 l 228 658 l 418 658 l 414 594 l 228 594 l 228 174 q 258 79 228 110 q 356 49 289 49 q 438 64 393 49 l 438 3 q 333 -14 392 -14 z "},"ṭ":{"ha":486,"x_min":49,"x_max":438,"o":"m 333 -14 q 199 35 246 -14 q 151 171 151 83 l 151 594 l 49 594 l 49 658 l 151 658 l 151 831 l 228 856 l 228 658 l 418 658 l 414 594 l 228 594 l 228 174 q 258 79 228 110 q 356 49 289 49 q 438 64 393 49 l 438 3 q 333 -14 392 -14 m 278 -129 l 360 -129 l 360 -208 l 278 -208 l 278 -129 z "},"ṯ":{"ha":486,"x_min":49,"x_max":475,"o":"m 333 -14 q 199 35 246 -14 q 151 171 151 83 l 151 594 l 49 594 l 49 658 l 151 658 l 151 831 l 228 856 l 228 658 l 418 658 l 414 594 l 228 594 l 228 174 q 258 79 228 110 q 356 49 289 49 q 438 64 393 49 l 438 3 q 333 -14 392 -14 m 90 -100 l 475 -100 l 475 -158 l 90 -158 l 90 -100 z "},"u":{"ha":776,"x_min":97,"x_max":672,"o":"m 338 -14 q 158 52 219 -14 q 97 242 97 118 l 97 658 l 174 658 l 174 239 q 221 96 174 143 q 369 49 268 49 q 494 74 436 49 q 596 144 551 100 l 596 658 l 672 658 l 672 0 l 604 0 l 597 81 q 482 10 544 35 q 338 -14 419 -14 z "},"ú":{"ha":776,"x_min":97,"x_max":672,"o":"m 429 944 l 501 944 l 399 725 l 336 725 l 429 944 m 338 -14 q 158 52 219 -14 q 97 242 97 118 l 97 658 l 174 658 l 174 239 q 221 96 174 143 q 369 49 268 49 q 494 74 436 49 q 596 144 551 100 l 596 658 l 672 658 l 672 0 l 604 0 l 597 81 q 482 10 544 35 q 338 -14 419 -14 z "},"ŭ":{"ha":776,"x_min":97,"x_max":672,"o":"m 389 724 q 277 767 319 724 q 235 878 235 810 l 293 878 q 319 804 293 831 q 389 778 346 778 q 460 804 433 778 q 486 878 486 831 l 544 878 q 502 767 544 810 q 389 724 460 724 m 338 -14 q 158 52 219 -14 q 97 242 97 118 l 97 658 l 174 658 l 174 239 q 221 96 174 143 q 369 49 268 49 q 494 74 436 49 q 596 144 551 100 l 596 658 l 672 658 l 672 0 l 604 0 l 597 81 q 482 10 544 35 q 338 -14 419 -14 z "},"ǔ":{"ha":776,"x_min":97,"x_max":672,"o":"m 207 911 l 276 911 l 386 768 l 496 911 l 565 911 l 419 724 l 353 724 l 207 911 m 338 -14 q 158 52 219 -14 q 97 242 97 118 l 97 658 l 174 658 l 174 239 q 221 96 174 143 q 369 49 268 49 q 494 74 436 49 q 596 144 551 100 l 596 658 l 672 658 l 672 0 l 604 0 l 597 81 q 482 10 544 35 q 338 -14 419 -14 z "},"û":{"ha":776,"x_min":97,"x_max":672,"o":"m 350 911 l 417 911 l 563 724 l 493 724 l 383 867 l 274 724 l 204 724 l 350 911 m 338 -14 q 158 52 219 -14 q 97 242 97 118 l 97 658 l 174 658 l 174 239 q 221 96 174 143 q 369 49 268 49 q 494 74 436 49 q 596 144 551 100 l 596 658 l 672 658 l 672 0 l 604 0 l 597 81 q 482 10 544 35 q 338 -14 419 -14 z "},"ü":{"ha":776,"x_min":97,"x_max":672,"o":"m 225 835 l 304 835 l 304 758 l 225 758 l 225 835 m 457 835 l 535 835 l 535 758 l 457 758 l 457 835 m 338 -14 q 158 52 219 -14 q 97 242 97 118 l 97 658 l 174 658 l 174 239 q 221 96 174 143 q 369 49 268 49 q 494 74 436 49 q 596 144 551 100 l 596 658 l 672 658 l 672 0 l 604 0 l 597 81 q 482 10 544 35 q 338 -14 419 -14 z "},"ǘ":{"ha":776,"x_min":97,"x_max":672,"o":"m 433 993 l 504 993 l 413 831 l 350 831 l 433 993 m 221 800 l 300 800 l 300 724 l 221 724 l 221 800 m 467 800 l 544 800 l 544 724 l 467 724 l 467 800 m 338 -14 q 158 52 219 -14 q 97 242 97 118 l 97 658 l 174 658 l 174 239 q 221 96 174 143 q 369 49 268 49 q 494 74 436 49 q 596 144 551 100 l 596 658 l 672 658 l 672 0 l 604 0 l 597 81 q 482 10 544 35 q 338 -14 419 -14 z "},"ǚ":{"ha":776,"x_min":97,"x_max":672,"o":"m 208 983 l 276 983 l 385 865 l 493 983 l 561 983 l 418 831 l 351 831 l 208 983 m 219 800 l 299 800 l 299 724 l 219 724 l 219 800 m 465 800 l 543 800 l 543 724 l 465 724 l 465 800 m 338 -14 q 158 52 219 -14 q 97 242 97 118 l 97 658 l 174 658 l 174 239 q 221 96 174 143 q 369 49 268 49 q 494 74 436 49 q 596 144 551 100 l 596 658 l 672 658 l 672 0 l 604 0 l 597 81 q 482 10 544 35 q 338 -14 419 -14 z "},"ǜ":{"ha":776,"x_min":97,"x_max":672,"o":"m 265 993 l 336 993 l 419 831 l 357 831 l 265 993 m 225 800 l 303 800 l 303 724 l 225 724 l 225 800 m 469 800 l 549 800 l 549 724 l 469 724 l 469 800 m 338 -14 q 158 52 219 -14 q 97 242 97 118 l 97 658 l 174 658 l 174 239 q 221 96 174 143 q 369 49 268 49 q 494 74 436 49 q 596 144 551 100 l 596 658 l 672 658 l 672 0 l 604 0 l 597 81 q 482 10 544 35 q 338 -14 419 -14 z "},"ǖ":{"ha":776,"x_min":97,"x_max":672,"o":"m 200 983 l 585 983 l 585 925 l 200 925 l 200 983 m 236 833 l 315 833 l 315 757 l 236 757 l 236 833 m 468 833 l 546 833 l 546 757 l 468 757 l 468 833 m 338 -14 q 158 52 219 -14 q 97 242 97 118 l 97 658 l 174 658 l 174 239 q 221 96 174 143 q 369 49 268 49 q 494 74 436 49 q 596 144 551 100 l 596 658 l 672 658 l 672 0 l 604 0 l 597 81 q 482 10 544 35 q 338 -14 419 -14 z "},"ụ":{"ha":776,"x_min":97,"x_max":672,"o":"m 338 -14 q 158 52 219 -14 q 97 242 97 118 l 97 658 l 174 658 l 174 239 q 221 96 174 143 q 369 49 268 49 q 494 74 436 49 q 596 144 551 100 l 596 658 l 672 658 l 672 0 l 604 0 l 597 81 q 482 10 544 35 q 338 -14 419 -14 m 333 -132 l 415 -132 l 415 -211 l 333 -211 l 333 -132 z "},"ù":{"ha":776,"x_min":97,"x_max":672,"o":"m 260 944 l 332 944 l 425 725 l 363 725 l 260 944 m 338 -14 q 158 52 219 -14 q 97 242 97 118 l 97 658 l 174 658 l 174 239 q 221 96 174 143 q 369 49 268 49 q 494 74 436 49 q 596 144 551 100 l 596 658 l 672 658 l 672 0 l 604 0 l 597 81 q 482 10 544 35 q 338 -14 419 -14 z "},"ủ":{"ha":776,"x_min":97,"x_max":672,"o":"m 347 835 q 430 847 401 838 q 468 872 458 856 q 478 917 478 889 q 450 972 478 954 q 363 990 422 990 q 314 985 340 990 q 269 974 288 981 l 269 1026 q 319 1038 288 1033 q 376 1043 350 1043 q 497 1011 456 1043 q 538 921 538 979 q 509 834 538 864 q 413 797 481 804 l 413 725 l 347 725 l 347 835 m 338 -14 q 158 52 219 -14 q 97 242 97 118 l 97 658 l 174 658 l 174 239 q 221 96 174 143 q 369 49 268 49 q 494 74 436 49 q 596 144 551 100 l 596 658 l 672 658 l 672 0 l 604 0 l 597 81 q 482 10 544 35 q 338 -14 419 -14 z "},"ư":{"ha":915,"x_min":97,"x_max":867,"o":"m 338 -14 q 158 52 219 -14 q 97 242 97 118 l 97 658 l 174 658 l 174 239 q 221 96 174 143 q 369 49 268 49 q 494 74 436 49 q 596 144 551 100 l 596 658 l 672 658 l 672 571 q 772 615 743 576 q 800 744 800 653 l 867 744 q 817 570 867 625 q 672 511 768 515 l 672 0 l 604 0 l 597 81 q 482 10 544 35 q 338 -14 419 -14 z "},"ứ":{"ha":915,"x_min":97,"x_max":867,"o":"m 458 944 l 531 944 l 428 725 l 365 725 l 458 944 m 338 -14 q 158 52 219 -14 q 97 242 97 118 l 97 658 l 174 658 l 174 239 q 221 96 174 143 q 369 49 268 49 q 494 74 436 49 q 596 144 551 100 l 596 658 l 672 658 l 672 571 q 772 615 743 576 q 800 744 800 653 l 867 744 q 817 570 867 625 q 672 511 768 515 l 672 0 l 604 0 l 597 81 q 482 10 544 35 q 338 -14 419 -14 z "},"ự":{"ha":915,"x_min":97,"x_max":867,"o":"m 338 -14 q 158 52 219 -14 q 97 242 97 118 l 97 658 l 174 658 l 174 239 q 221 96 174 143 q 369 49 268 49 q 494 74 436 49 q 596 144 551 100 l 596 658 l 672 658 l 672 571 q 772 615 743 576 q 800 744 800 653 l 867 744 q 817 570 867 625 q 672 511 768 515 l 672 0 l 604 0 l 597 81 q 482 10 544 35 q 338 -14 419 -14 m 342 -132 l 424 -132 l 424 -211 l 342 -211 l 342 -132 z "},"ừ":{"ha":915,"x_min":97,"x_max":867,"o":"m 272 944 l 344 944 l 438 725 l 375 725 l 272 944 m 338 -14 q 158 52 219 -14 q 97 242 97 118 l 97 658 l 174 658 l 174 239 q 221 96 174 143 q 369 49 268 49 q 494 74 436 49 q 596 144 551 100 l 596 658 l 672 658 l 672 571 q 772 615 743 576 q 800 744 800 653 l 867 744 q 817 570 867 625 q 672 511 768 515 l 672 0 l 604 0 l 597 81 q 482 10 544 35 q 338 -14 419 -14 z "},"ử":{"ha":915,"x_min":97,"x_max":867,"o":"m 360 835 q 442 847 414 838 q 481 872 471 856 q 490 917 490 889 q 463 972 490 954 q 375 990 435 990 q 326 985 353 990 q 282 974 300 981 l 282 1026 q 331 1038 300 1033 q 389 1043 363 1043 q 509 1011 468 1043 q 550 921 550 979 q 522 834 550 864 q 425 797 493 804 l 425 725 l 360 725 l 360 835 m 338 -14 q 158 52 219 -14 q 97 242 97 118 l 97 658 l 174 658 l 174 239 q 221 96 174 143 q 369 49 268 49 q 494 74 436 49 q 596 144 551 100 l 596 658 l 672 658 l 672 571 q 772 615 743 576 q 800 744 800 653 l 867 744 q 817 570 867 625 q 672 511 768 515 l 672 0 l 604 0 l 597 81 q 482 10 544 35 q 338 -14 419 -14 z "},"ữ":{"ha":915,"x_min":97,"x_max":867,"o":"m 499 758 q 451 765 475 758 q 397 786 428 772 q 314 810 342 810 q 204 761 244 810 l 204 826 q 251 856 221 844 q 313 867 281 867 q 358 860 338 867 q 410 840 378 854 q 456 822 438 828 q 496 815 475 815 q 554 827 529 815 q 597 864 579 839 l 597 799 q 558 769 583 779 q 499 758 532 758 m 338 -14 q 158 52 219 -14 q 97 242 97 118 l 97 658 l 174 658 l 174 239 q 221 96 174 143 q 369 49 268 49 q 494 74 436 49 q 596 144 551 100 l 596 658 l 672 658 l 672 571 q 772 615 743 576 q 800 744 800 653 l 867 744 q 817 570 867 625 q 672 511 768 515 l 672 0 l 604 0 l 597 81 q 482 10 544 35 q 338 -14 419 -14 z "},"ű":{"ha":776,"x_min":97,"x_max":672,"o":"m 274 919 l 349 919 l 243 724 l 181 724 l 274 919 m 550 919 l 625 919 l 519 724 l 457 724 l 550 919 m 338 -14 q 158 52 219 -14 q 97 242 97 118 l 97 658 l 174 658 l 174 239 q 221 96 174 143 q 369 49 268 49 q 494 74 436 49 q 596 144 551 100 l 596 658 l 672 658 l 672 0 l 604 0 l 597 81 q 482 10 544 35 q 338 -14 419 -14 z "},"ū":{"ha":776,"x_min":97,"x_max":672,"o":"m 193 826 l 578 826 l 578 768 l 193 768 l 193 826 m 338 -14 q 158 52 219 -14 q 97 242 97 118 l 97 658 l 174 658 l 174 239 q 221 96 174 143 q 369 49 268 49 q 494 74 436 49 q 596 144 551 100 l 596 658 l 672 658 l 672 0 l 604 0 l 597 81 q 482 10 544 35 q 338 -14 419 -14 z "},"ų":{"ha":776,"x_min":97,"x_max":713,"o":"m 631 -306 q 539 -277 574 -306 q 504 -186 504 -249 q 533 -82 504 -132 q 604 0 561 -32 l 597 81 q 482 10 544 35 q 338 -14 419 -14 q 158 52 219 -14 q 97 242 97 118 l 97 658 l 174 658 l 174 239 q 221 96 174 143 q 369 49 268 49 q 494 74 436 49 q 596 144 551 100 l 596 658 l 672 658 l 672 0 q 569 -178 569 -76 q 587 -232 569 -215 q 643 -249 604 -249 q 681 -244 661 -249 q 713 -233 700 -240 l 713 -290 q 631 -306 683 -306 z "},"ů":{"ha":776,"x_min":97,"x_max":672,"o":"m 392 724 q 290 765 331 724 q 250 864 250 806 q 290 965 250 924 q 392 1006 331 1006 q 494 965 454 1006 q 535 864 535 924 q 494 765 535 806 q 392 724 454 724 m 392 774 q 458 799 432 774 q 483 864 483 825 q 458 930 483 904 q 392 956 432 956 q 326 930 353 956 q 300 864 300 904 q 326 799 300 825 q 392 774 353 774 m 338 -14 q 158 52 219 -14 q 97 242 97 118 l 97 658 l 174 658 l 174 239 q 221 96 174 143 q 369 49 268 49 q 494 74 436 49 q 596 144 551 100 l 596 658 l 672 658 l 672 0 l 604 0 l 597 81 q 482 10 544 35 q 338 -14 419 -14 z "},"ũ":{"ha":776,"x_min":97,"x_max":672,"o":"m 488 760 q 440 767 464 760 q 386 788 417 774 q 303 811 331 811 q 193 763 233 811 l 193 828 q 240 857 210 846 q 301 868 269 868 q 347 862 326 868 q 399 842 367 856 q 445 823 426 829 q 485 817 464 817 q 543 828 518 817 q 586 865 568 840 l 586 800 q 547 770 572 781 q 488 760 521 760 m 338 -14 q 158 52 219 -14 q 97 242 97 118 l 97 658 l 174 658 l 174 239 q 221 96 174 143 q 369 49 268 49 q 494 74 436 49 q 596 144 551 100 l 596 658 l 672 658 l 672 0 l 604 0 l 597 81 q 482 10 544 35 q 338 -14 419 -14 z "},"v":{"ha":758,"x_min":76,"x_max":682,"o":"m 76 658 l 156 658 l 379 64 l 604 658 l 682 658 l 425 0 l 333 0 l 76 658 z "},"w":{"ha":999,"x_min":76,"x_max":922,"o":"m 76 658 l 153 658 l 297 78 l 463 586 l 463 658 l 522 658 l 703 78 l 846 658 l 922 658 l 751 0 l 669 0 l 501 524 l 331 0 l 247 0 l 76 658 z "},"ẃ":{"ha":999,"x_min":76,"x_max":922,"o":"m 556 944 l 628 944 l 525 725 l 463 725 l 556 944 m 76 658 l 153 658 l 297 78 l 463 586 l 463 658 l 522 658 l 703 78 l 846 658 l 922 658 l 751 0 l 669 0 l 501 524 l 331 0 l 247 0 l 76 658 z "},"ŵ":{"ha":999,"x_min":76,"x_max":922,"o":"m 468 911 l 535 911 l 681 724 l 611 724 l 501 867 l 392 724 l 322 724 l 468 911 m 76 658 l 153 658 l 297 78 l 463 586 l 463 658 l 522 658 l 703 78 l 846 658 l 922 658 l 751 0 l 669 0 l 501 524 l 331 0 l 247 0 l 76 658 z "},"ẅ":{"ha":999,"x_min":76,"x_max":922,"o":"m 346 835 l 425 835 l 425 758 l 346 758 l 346 835 m 578 835 l 656 835 l 656 758 l 578 758 l 578 835 m 76 658 l 153 658 l 297 78 l 463 586 l 463 658 l 522 658 l 703 78 l 846 658 l 922 658 l 751 0 l 669 0 l 501 524 l 331 0 l 247 0 l 76 658 z "},"ẁ":{"ha":999,"x_min":76,"x_max":922,"o":"m 356 944 l 428 944 l 521 725 l 458 725 l 356 944 m 76 658 l 153 658 l 297 78 l 463 586 l 463 658 l 522 658 l 703 78 l 846 658 l 922 658 l 751 0 l 669 0 l 501 524 l 331 0 l 247 0 l 76 658 z "},"x":{"ha":733,"x_min":76,"x_max":657,"o":"m 325 335 l 83 658 l 167 658 l 365 388 l 565 658 l 647 658 l 410 335 l 657 0 l 574 0 l 365 283 l 158 0 l 76 0 l 325 335 z "},"y":{"ha":786,"x_min":76,"x_max":738,"o":"m 203 -244 q 103 -229 143 -244 l 103 -165 q 188 -179 140 -179 q 263 -159 233 -179 q 312 -103 292 -139 q 364 4 332 -68 l 76 658 l 156 658 l 403 86 l 660 658 l 738 658 l 453 21 q 381 -126 411 -74 q 308 -212 351 -179 q 203 -244 264 -244 z "},"ý":{"ha":786,"x_min":76,"x_max":738,"o":"m 451 944 l 524 944 l 421 725 l 358 725 l 451 944 m 203 -244 q 103 -229 143 -244 l 103 -165 q 188 -179 140 -179 q 263 -159 233 -179 q 312 -103 292 -139 q 364 4 332 -68 l 76 658 l 156 658 l 403 86 l 660 658 l 738 658 l 453 21 q 381 -126 411 -74 q 308 -212 351 -179 q 203 -244 264 -244 z "},"ŷ":{"ha":786,"x_min":76,"x_max":738,"o":"m 374 911 l 440 911 l 586 724 l 517 724 l 407 867 l 297 724 l 228 724 l 374 911 m 203 -244 q 103 -229 143 -244 l 103 -165 q 188 -179 140 -179 q 263 -159 233 -179 q 312 -103 292 -139 q 364 4 332 -68 l 76 658 l 156 658 l 403 86 l 660 658 l 738 658 l 453 21 q 381 -126 411 -74 q 308 -212 351 -179 q 203 -244 264 -244 z "},"ÿ":{"ha":786,"x_min":76,"x_max":738,"o":"m 256 842 l 335 842 l 335 765 l 256 765 l 256 842 m 488 842 l 565 842 l 565 765 l 488 765 l 488 842 m 203 -244 q 103 -229 143 -244 l 103 -165 q 188 -179 140 -179 q 263 -159 233 -179 q 312 -103 292 -139 q 364 4 332 -68 l 76 658 l 156 658 l 403 86 l 660 658 l 738 658 l 453 21 q 381 -126 411 -74 q 308 -212 351 -179 q 203 -244 264 -244 z "},"ẏ":{"ha":786,"x_min":76,"x_max":738,"o":"m 365 839 l 444 839 l 444 761 l 365 761 l 365 839 m 203 -244 q 103 -229 143 -244 l 103 -165 q 188 -179 140 -179 q 263 -159 233 -179 q 312 -103 292 -139 q 364 4 332 -68 l 76 658 l 156 658 l 403 86 l 660 658 l 738 658 l 453 21 q 381 -126 411 -74 q 308 -212 351 -179 q 203 -244 264 -244 z "},"ỵ":{"ha":786,"x_min":76,"x_max":738,"o":"m 203 -244 q 103 -229 143 -244 l 103 -165 q 188 -179 140 -179 q 263 -159 233 -179 q 312 -103 292 -139 q 364 4 332 -68 l 76 658 l 156 658 l 403 86 l 660 658 l 738 658 l 453 21 q 381 -126 411 -74 q 308 -212 351 -179 q 203 -244 264 -244 m 521 -108 l 603 -108 l 603 -187 l 521 -187 l 521 -108 z "},"ỳ":{"ha":786,"x_min":76,"x_max":738,"o":"m 281 944 l 353 944 l 446 725 l 383 725 l 281 944 m 203 -244 q 103 -229 143 -244 l 103 -165 q 188 -179 140 -179 q 263 -159 233 -179 q 312 -103 292 -139 q 364 4 332 -68 l 76 658 l 156 658 l 403 86 l 660 658 l 738 658 l 453 21 q 381 -126 411 -74 q 308 -212 351 -179 q 203 -244 264 -244 z "},"ỷ":{"ha":786,"x_min":76,"x_max":738,"o":"m 372 835 q 455 847 426 838 q 493 872 483 856 q 503 917 503 889 q 475 972 503 954 q 388 990 447 990 q 339 985 365 990 q 294 974 313 981 l 294 1026 q 344 1038 313 1033 q 401 1043 375 1043 q 522 1011 481 1043 q 563 921 563 979 q 534 834 563 864 q 438 797 506 804 l 438 725 l 372 725 l 372 835 m 203 -244 q 103 -229 143 -244 l 103 -165 q 188 -179 140 -179 q 263 -159 233 -179 q 312 -103 292 -139 q 364 4 332 -68 l 76 658 l 156 658 l 403 86 l 660 658 l 738 658 l 453 21 q 381 -126 411 -74 q 308 -212 351 -179 q 203 -244 264 -244 z "},"ỹ":{"ha":786,"x_min":76,"x_max":738,"o":"m 501 760 q 454 767 478 760 q 400 788 431 774 q 317 811 344 811 q 207 763 247 811 l 207 828 q 253 857 224 846 q 315 868 283 868 q 360 862 340 868 q 413 842 381 856 q 459 823 440 829 q 499 817 478 817 q 557 828 532 817 q 600 865 582 840 l 600 800 q 560 770 586 781 q 501 760 535 760 m 203 -244 q 103 -229 143 -244 l 103 -165 q 188 -179 140 -179 q 263 -159 233 -179 q 312 -103 292 -139 q 364 4 332 -68 l 76 658 l 156 658 l 403 86 l 660 658 l 738 658 l 453 21 q 381 -126 411 -74 q 308 -212 351 -179 q 203 -244 264 -244 z "},"z":{"ha":665,"x_min":76,"x_max":589,"o":"m 76 47 l 490 594 l 96 594 l 96 658 l 581 658 l 581 606 l 169 63 l 589 63 l 589 0 l 76 0 l 76 47 z "},"ź":{"ha":665,"x_min":76,"x_max":589,"o":"m 403 944 l 475 944 l 372 725 l 310 725 l 403 944 m 76 47 l 490 594 l 96 594 l 96 658 l 581 658 l 581 606 l 169 63 l 589 63 l 589 0 l 76 0 l 76 47 z "},"ž":{"ha":665,"x_min":76,"x_max":589,"o":"m 147 911 l 217 911 l 326 768 l 436 911 l 506 911 l 360 724 l 293 724 l 147 911 m 76 47 l 490 594 l 96 594 l 96 658 l 581 658 l 581 606 l 169 63 l 589 63 l 589 0 l 76 0 l 76 47 z "},"ż":{"ha":665,"x_min":76,"x_max":589,"o":"m 304 839 l 383 839 l 383 761 l 304 761 l 304 839 m 76 47 l 490 594 l 96 594 l 96 658 l 581 658 l 581 606 l 169 63 l 589 63 l 589 0 l 76 0 l 76 47 z "},"ẓ":{"ha":665,"x_min":76,"x_max":589,"o":"m 76 47 l 490 594 l 96 594 l 96 658 l 581 658 l 581 606 l 169 63 l 589 63 l 589 0 l 76 0 l 76 47 m 301 -132 l 383 -132 l 383 -211 l 301 -211 l 301 -132 z "},"ﬁ":{"ha":686,"x_min":49,"x_max":582,"o":"m 150 594 l 49 594 l 49 658 l 150 658 l 150 754 q 213 908 150 851 q 378 965 275 965 q 519 943 471 965 l 519 882 q 467 897 500 892 q 397 901 433 901 q 269 865 311 901 q 226 756 226 829 l 226 658 l 582 658 l 582 0 l 506 0 l 506 594 l 226 594 l 226 0 l 150 0 l 150 594 z "},"ﬂ":{"ha":686,"x_min":49,"x_max":582,"o":"m 150 594 l 49 594 l 49 658 l 150 658 l 150 754 q 213 908 150 851 q 378 965 275 965 q 522 943 461 965 l 582 943 l 582 0 l 506 0 l 506 594 l 226 594 l 226 0 l 150 0 l 150 594 m 506 658 l 506 882 q 397 901 460 901 q 269 865 311 901 q 226 756 226 829 l 226 658 l 506 658 z "},"ª":{"ha":483,"x_min":76,"x_max":407,"o":"m 208 528 q 113 554 150 528 q 76 633 76 581 q 219 750 76 750 l 350 750 l 350 774 q 327 840 350 821 q 236 860 304 860 q 124 840 178 860 l 124 889 q 249 908 179 908 q 407 776 407 908 l 407 536 l 356 536 l 351 581 q 290 540 324 553 q 208 528 256 528 m 222 572 q 295 586 265 572 q 350 631 325 600 l 350 706 l 224 706 q 151 690 172 706 q 131 635 131 674 q 222 572 131 572 z "},"º":{"ha":504,"x_min":76,"x_max":428,"o":"m 251 528 q 76 718 76 528 q 120 860 76 811 q 251 908 164 908 q 383 860 339 908 q 428 718 428 811 q 251 528 428 528 m 251 575 q 344 610 317 575 q 371 718 371 646 q 343 824 371 789 q 251 860 315 860 q 160 824 188 860 q 132 718 132 789 q 159 610 132 646 q 251 575 186 575 z "},"ⁿ":{"ha":504,"x_min":83,"x_max":428,"o":"m 83 900 l 136 900 l 139 856 q 206 894 169 881 q 289 907 242 907 q 392 875 356 907 q 428 778 428 843 l 428 536 l 371 536 l 371 763 q 349 839 371 818 q 269 860 328 860 q 199 845 232 860 q 140 806 165 831 l 140 536 l 83 536 l 83 900 z "},"Δ":{"ha":910,"x_min":76,"x_max":833,"o":"m 76 47 l 410 894 l 499 894 l 833 46 l 833 0 l 76 0 l 76 47 m 753 61 l 453 825 l 153 61 l 753 61 z "},"Ω":{"ha":1071,"x_min":76,"x_max":994,"o":"m 86 61 l 331 61 q 145 242 214 131 q 76 503 76 354 q 132 739 76 633 q 292 905 188 844 q 536 965 397 965 q 779 905 675 965 q 939 739 883 844 q 994 503 994 633 q 926 242 994 354 q 742 61 858 131 l 985 61 l 985 0 l 635 0 l 635 61 q 848 248 776 136 q 919 503 919 360 q 871 707 919 617 q 735 848 822 797 q 536 899 647 899 q 336 848 424 899 q 200 707 249 797 q 151 503 151 617 q 223 248 151 360 q 436 61 294 136 l 436 0 l 86 0 l 86 61 z "},"μ":{"ha":783,"x_min":104,"x_max":679,"o":"m 104 658 l 181 658 l 181 239 q 228 96 181 143 q 376 49 276 49 q 501 74 443 49 q 603 144 558 100 l 603 658 l 679 658 l 679 0 l 611 0 l 604 81 q 489 10 551 35 q 344 -14 426 -14 q 249 3 292 -14 q 181 53 206 21 l 181 -199 l 104 -199 l 104 658 z "},"π":{"ha":914,"x_min":63,"x_max":851,"o":"m 746 -14 q 619 36 663 -14 q 575 174 575 86 l 575 596 l 235 596 l 235 0 l 158 0 l 158 596 l 63 596 l 63 658 l 749 658 l 749 596 l 651 596 l 651 174 q 678 80 651 108 q 772 51 706 51 q 851 65 806 51 l 851 3 q 746 -14 806 -14 z "},"ก":{"ha":833,"x_min":76,"x_max":729,"o":"m 125 338 q 154 433 125 393 q 240 489 183 472 l 76 525 l 76 636 q 219 728 132 692 q 415 764 306 764 q 652 695 575 764 q 729 490 729 626 l 729 0 l 653 0 l 653 494 q 597 651 653 604 q 415 697 540 697 q 258 672 331 697 q 146 604 185 646 l 146 565 l 313 529 l 313 463 q 229 419 257 450 q 201 333 201 389 l 201 0 l 125 0 l 125 338 z "},"ถ":{"ha":833,"x_min":76,"x_max":729,"o":"m 244 0 q 156 34 188 0 q 125 126 125 68 l 125 338 q 154 433 125 393 q 240 489 183 472 l 76 525 l 76 636 q 219 727 131 690 q 419 764 308 764 q 653 695 578 764 q 729 490 729 626 l 729 0 l 653 0 l 653 494 q 598 651 653 606 q 418 697 543 697 q 259 672 333 697 q 146 604 185 646 l 146 565 l 313 529 l 313 463 q 201 333 201 436 l 201 140 q 219 83 201 101 q 274 64 238 64 l 356 64 l 356 0 l 244 0 z "},"ภ":{"ha":888,"x_min":76,"x_max":783,"o":"m 76 64 l 136 64 q 185 82 169 64 q 201 139 201 100 l 201 338 q 223 434 201 396 q 297 489 244 472 l 129 525 l 129 636 q 273 727 183 690 q 472 764 363 764 q 708 695 632 764 q 783 490 783 626 l 783 0 l 707 0 l 707 494 q 651 651 707 606 q 472 697 596 697 q 313 672 388 697 q 199 604 239 646 l 199 565 l 369 529 l 369 463 q 298 420 318 449 q 278 333 278 392 l 278 136 q 247 35 278 69 q 154 0 215 0 l 76 0 l 76 64 z "},"ฤ":{"ha":838,"x_min":76,"x_max":733,"o":"m 657 494 q 600 651 657 606 q 418 697 543 697 q 259 672 333 697 q 146 604 185 646 l 146 565 l 313 529 l 313 463 q 201 333 201 436 l 201 140 q 219 83 201 101 q 274 64 238 64 l 356 64 l 356 0 l 244 0 q 156 34 188 0 q 125 126 125 68 l 125 338 q 154 433 125 393 q 240 489 183 472 l 76 525 l 76 636 q 219 727 131 690 q 419 764 308 764 q 733 490 733 764 l 733 -222 l 657 -222 l 657 494 z "},"ฦ":{"ha":890,"x_min":76,"x_max":786,"o":"m 710 494 q 653 651 710 604 q 472 697 597 697 q 313 672 388 697 q 199 604 239 646 l 199 565 l 369 529 l 369 463 q 298 420 318 449 q 278 333 278 392 l 278 136 q 247 35 278 69 q 154 0 215 0 l 76 0 l 76 64 l 136 64 q 185 82 169 64 q 201 139 201 100 l 201 338 q 223 434 201 396 q 297 489 244 472 l 129 525 l 129 636 q 273 727 183 690 q 472 764 363 764 q 709 695 632 764 q 786 490 786 626 l 786 -222 l 710 -222 l 710 494 z "},"ฎ":{"ha":890,"x_min":76,"x_max":786,"o":"m 254 -204 q 493 -150 367 -150 q 710 -201 625 -150 l 710 494 q 653 651 710 604 q 472 697 597 697 q 313 672 388 697 q 199 604 239 646 l 199 565 l 369 529 l 369 463 q 298 420 318 449 q 278 333 278 392 l 278 136 q 247 35 278 69 q 154 0 215 0 l 76 0 l 76 64 l 136 64 q 185 82 169 64 q 201 139 201 100 l 201 338 q 223 434 201 396 q 297 489 244 472 l 129 525 l 129 636 q 273 727 183 690 q 472 764 363 764 q 709 695 632 764 q 786 490 786 626 l 786 -269 l 713 -269 q 608 -228 660 -242 q 489 -215 557 -215 q 370 -228 425 -215 q 254 -271 315 -242 l 254 -204 z "},"ฏ":{"ha":890,"x_min":76,"x_max":786,"o":"m 617 -271 q 533 -253 571 -271 q 478 -210 496 -236 q 431 -253 463 -237 q 351 -269 399 -269 l 236 -269 l 242 -201 l 340 -201 q 407 -188 382 -201 q 453 -142 432 -175 l 499 -142 q 610 -204 535 -204 q 687 -178 664 -204 q 710 -93 710 -153 l 710 494 q 653 651 710 604 q 472 697 597 697 q 313 672 388 697 q 199 604 239 646 l 199 565 l 369 529 l 369 463 q 298 420 318 449 q 278 333 278 392 l 278 136 q 247 35 278 69 q 154 0 215 0 l 76 0 l 76 64 l 136 64 q 185 82 169 64 q 201 139 201 100 l 201 338 q 223 434 201 396 q 297 489 244 472 l 129 525 l 129 636 q 273 727 183 690 q 472 764 363 764 q 709 695 632 764 q 786 490 786 626 l 786 -100 q 742 -228 786 -185 q 617 -271 697 -271 z "},"ญ":{"ha":1336,"x_min":76,"x_max":1232,"o":"m 932 -69 q 786 -55 854 -69 q 668 -12 718 -40 l 668 56 q 792 11 719 26 q 932 -4 864 -4 q 1160 103 1160 -4 q 1153 143 1160 126 q 1129 172 1146 160 q 932 118 1056 118 q 705 190 779 118 q 631 406 631 261 l 631 494 q 580 651 631 606 q 407 697 529 697 q 256 672 325 697 q 146 604 186 646 l 146 565 l 313 529 l 313 463 q 201 333 201 436 l 201 140 q 219 83 201 101 q 274 64 238 64 l 356 64 l 356 0 l 244 0 q 156 34 188 0 q 125 126 125 68 l 125 338 q 154 433 125 393 q 240 489 183 472 l 76 525 l 76 636 q 216 728 132 692 q 408 764 300 764 q 635 696 564 764 q 707 490 707 628 l 707 396 q 762 235 707 286 q 932 183 817 183 q 1101 235 1046 183 q 1156 396 1156 286 l 1156 750 l 1232 750 l 1232 406 q 1219 299 1232 343 q 1179 219 1206 254 q 1232 103 1232 181 q 932 -69 1232 -69 z "},"ข":{"ha":772,"x_min":76,"x_max":668,"o":"m 378 -14 q 165 53 239 -14 q 90 247 90 119 l 90 375 q 111 451 90 413 q 169 539 132 489 q 213 603 199 579 q 226 646 226 626 q 217 679 226 671 q 181 688 208 688 l 76 688 l 83 750 l 217 750 q 281 727 260 750 q 303 663 303 704 q 285 594 303 628 q 235 515 268 561 q 183 435 200 467 q 167 368 167 403 l 167 235 q 222 96 167 140 q 378 51 278 51 q 535 97 478 51 q 592 236 592 142 l 592 750 l 668 750 l 668 247 q 592 53 668 119 q 378 -14 517 -14 z "},"ฃ":{"ha":754,"x_min":76,"x_max":650,"o":"m 371 -14 q 93 244 93 -14 l 93 356 q 115 428 93 392 q 181 522 136 464 q 234 596 217 567 q 251 649 251 625 q 213 689 251 689 q 139 656 175 689 l 139 603 l 76 603 l 76 750 l 139 750 l 139 711 q 236 750 183 750 q 301 726 278 750 q 325 660 325 703 q 306 588 325 622 q 246 503 286 553 q 188 418 207 451 q 169 350 169 385 l 169 235 q 371 51 169 51 q 574 236 574 51 l 574 750 l 650 750 l 650 247 q 579 52 650 118 q 371 -14 508 -14 z "},"ช":{"ha":781,"x_min":76,"x_max":675,"o":"m 382 -14 q 166 53 242 -14 q 90 247 90 119 l 90 375 q 111 451 90 413 q 169 539 132 489 q 213 603 199 579 q 226 646 226 626 q 217 679 226 671 q 181 688 208 688 l 76 688 l 83 750 l 217 750 q 281 727 260 750 q 303 663 303 704 q 285 594 303 628 q 235 515 268 561 q 183 435 200 467 q 167 368 167 403 l 167 235 q 224 96 167 140 q 382 51 282 51 q 542 96 485 51 q 599 236 599 140 l 599 335 q 569 459 599 425 q 463 493 540 493 l 424 493 l 429 556 l 463 556 q 570 592 542 556 q 599 711 599 629 l 599 764 l 675 764 l 675 713 q 653 590 675 635 q 568 525 631 544 q 655 459 635 503 q 675 335 675 415 l 675 247 q 597 53 675 119 q 382 -14 519 -14 z "},"ซ":{"ha":776,"x_min":76,"x_max":671,"o":"m 381 -14 q 167 53 242 -14 q 93 247 93 119 l 93 356 q 115 428 93 392 q 181 522 136 464 q 234 596 217 567 q 251 649 251 625 q 213 689 251 689 q 139 656 175 689 l 139 603 l 76 603 l 76 750 l 139 750 l 139 711 q 236 750 183 750 q 301 726 278 750 q 325 660 325 703 q 306 588 325 622 q 246 503 286 553 q 188 418 207 451 q 169 350 169 385 l 169 235 q 225 96 169 140 q 381 51 281 51 q 594 236 594 51 l 594 335 q 565 459 594 425 q 458 493 536 493 l 419 493 l 425 556 l 458 556 q 566 592 538 556 q 594 711 594 629 l 594 764 l 671 764 l 671 713 q 649 590 671 635 q 564 525 626 544 q 651 459 631 503 q 671 335 671 415 l 671 247 q 595 53 671 119 q 381 -14 519 -14 z "},"ค":{"ha":825,"x_min":104,"x_max":721,"o":"m 104 497 q 180 697 104 631 q 414 764 256 764 q 646 697 571 764 q 721 497 721 631 l 721 0 l 644 0 l 644 508 q 587 652 644 607 q 414 697 529 697 q 238 652 296 697 q 181 508 181 607 l 181 315 q 357 378 258 378 l 450 378 l 454 314 l 356 314 q 263 299 306 314 q 181 251 221 283 l 181 0 l 104 0 l 104 497 z "},"ฅ":{"ha":825,"x_min":104,"x_max":721,"o":"m 104 578 q 149 717 104 669 q 271 764 193 764 q 413 692 364 764 q 479 746 438 728 q 567 764 521 764 q 684 719 647 764 q 721 576 721 674 l 721 0 l 644 0 l 644 585 q 625 669 644 642 q 554 697 606 697 q 488 679 518 697 q 435 628 457 661 l 389 628 q 346 680 369 663 q 289 697 322 697 q 181 583 181 697 l 181 315 q 357 378 258 378 l 450 378 l 454 314 l 356 314 q 263 299 306 314 q 181 251 221 283 l 181 0 l 104 0 l 104 578 z "},"ศ":{"ha":846,"x_min":104,"x_max":790,"o":"m 104 497 q 180 697 104 631 q 414 764 256 764 q 539 750 479 764 l 790 750 l 786 685 l 653 685 q 721 497 721 618 l 721 0 l 644 0 l 644 508 q 587 652 644 607 q 414 697 529 697 q 238 652 296 697 q 181 508 181 607 l 181 315 q 357 378 258 378 l 450 378 l 454 314 l 356 314 q 263 299 306 314 q 181 251 221 283 l 181 0 l 104 0 l 104 497 z "},"ด":{"ha":872,"x_min":76,"x_max":768,"o":"m 367 -14 q 153 82 231 -14 q 76 372 76 178 q 167 661 76 558 q 442 764 257 764 q 688 681 607 764 q 768 472 768 599 l 768 0 l 692 0 l 692 476 q 631 637 692 576 q 440 697 571 697 q 151 372 151 697 q 209 127 151 203 q 382 51 267 51 q 476 63 443 51 l 476 -3 q 367 -14 436 -14 z "},"ต":{"ha":872,"x_min":76,"x_max":768,"o":"m 367 -14 q 153 82 231 -14 q 76 372 76 178 q 132 663 76 561 q 296 764 188 764 q 382 747 347 764 q 449 692 417 729 q 524 746 481 728 q 613 764 567 764 q 728 722 688 764 q 768 593 768 679 l 768 0 l 692 0 l 692 585 q 669 672 692 647 q 593 697 647 697 q 524 680 557 697 q 472 628 492 663 l 424 628 q 372 681 397 665 q 306 697 346 697 q 187 613 222 697 q 151 372 151 528 q 210 126 151 201 q 382 51 268 51 q 476 63 443 51 l 476 -3 q 367 -14 436 -14 z "},"ท":{"ha":813,"x_min":104,"x_max":708,"o":"m 104 750 l 171 750 l 178 651 q 303 735 236 706 q 461 764 369 764 q 644 696 581 764 q 708 497 708 628 l 708 0 l 632 0 l 632 501 q 584 650 632 603 q 435 697 536 697 q 181 581 293 697 l 181 0 l 104 0 l 104 750 z "},"ฑ":{"ha":806,"x_min":76,"x_max":701,"o":"m 125 342 q 143 419 125 379 q 196 514 161 460 q 240 594 226 565 q 253 647 253 622 q 214 689 253 689 q 139 656 175 689 l 139 603 l 76 603 l 76 750 l 139 750 l 139 711 q 236 750 183 750 q 311 707 292 750 q 486 764 392 764 q 652 702 603 764 q 701 506 701 640 l 701 0 l 625 0 l 625 510 q 612 619 625 579 q 565 678 599 660 q 465 697 531 697 q 388 683 428 697 q 322 643 349 668 q 308 579 322 611 q 264 496 293 547 q 217 408 233 444 q 201 335 201 372 l 201 0 l 125 0 l 125 342 z "},"น":{"ha":813,"x_min":104,"x_max":708,"o":"m 349 -14 q 166 53 228 -14 q 104 253 104 121 l 104 750 l 181 750 l 181 249 q 226 99 181 147 q 374 51 272 51 q 632 168 519 51 l 632 750 l 708 750 l 708 0 l 642 0 l 635 99 q 508 15 578 44 q 349 -14 439 -14 z "},"ม":{"ha":813,"x_min":104,"x_max":708,"o":"m 460 -14 q 302 15 368 -14 q 178 99 236 43 l 171 0 l 104 0 l 104 750 l 181 750 l 181 168 q 435 51 293 51 q 584 99 536 51 q 632 249 632 147 l 632 750 l 708 750 l 708 253 q 644 53 708 121 q 460 -14 581 -14 z "},"ฌ":{"ha":1321,"x_min":76,"x_max":1217,"o":"m 978 -14 q 829 15 890 -14 q 708 99 768 43 l 701 0 l 635 0 l 635 494 q 582 651 635 606 q 407 697 529 697 q 256 672 325 697 q 146 604 186 646 l 146 565 l 313 529 l 313 463 q 201 333 201 436 l 201 140 q 219 83 201 101 q 274 64 238 64 l 356 64 l 356 0 l 244 0 q 156 34 188 0 q 125 126 125 68 l 125 338 q 154 433 125 393 q 240 489 183 472 l 76 525 l 76 636 q 216 728 132 692 q 408 764 300 764 q 638 696 565 764 q 710 490 710 628 l 710 168 q 822 82 764 113 q 953 51 881 51 q 1095 99 1050 51 q 1140 249 1140 146 l 1140 750 l 1217 750 l 1217 253 q 1156 53 1217 121 q 978 -14 1094 -14 z "},"ณ":{"ha":1321,"x_min":76,"x_max":1217,"o":"m 868 -14 q 694 53 753 -14 q 635 253 635 121 l 635 494 q 582 651 635 606 q 407 697 529 697 q 256 672 325 697 q 146 604 186 646 l 146 565 l 313 529 l 313 463 q 201 333 201 436 l 201 140 q 219 83 201 101 q 274 64 238 64 l 356 64 l 356 0 l 244 0 q 156 34 188 0 q 125 126 125 68 l 125 338 q 154 433 125 393 q 240 489 183 472 l 76 525 l 76 636 q 216 728 132 692 q 408 764 300 764 q 638 696 565 764 q 710 490 710 628 l 710 249 q 753 99 710 147 q 893 51 797 51 q 1140 168 1028 51 l 1140 750 l 1217 750 l 1217 0 l 1149 0 l 1142 99 q 1019 15 1083 43 q 868 -14 956 -14 z "},"ฒ":{"ha":1357,"x_min":76,"x_max":1253,"o":"m 367 -14 q 153 82 231 -14 q 76 372 76 178 q 131 663 76 561 q 290 764 186 764 q 372 747 340 764 q 438 692 404 731 q 597 764 504 764 q 708 722 669 764 q 746 593 746 679 l 746 168 q 858 82 800 113 q 989 51 917 51 q 1131 99 1086 51 q 1176 249 1176 146 l 1176 750 l 1253 750 l 1253 253 q 1192 53 1253 121 q 1014 -14 1131 -14 q 865 15 926 -14 q 744 99 804 43 l 738 0 l 671 0 l 671 585 q 650 672 671 647 q 576 697 629 697 q 461 628 501 697 l 413 628 q 363 682 386 667 q 299 697 339 697 q 185 613 219 697 q 151 372 151 528 q 210 126 151 201 q 382 51 268 51 q 476 63 443 51 l 476 -3 q 367 -14 436 -14 z "},"ฆ":{"ha":801,"x_min":76,"x_max":697,"o":"m 449 -14 q 291 15 357 -14 q 167 99 225 43 l 160 0 l 93 0 l 93 339 q 115 416 93 376 q 181 514 138 456 q 235 597 218 568 q 251 649 251 625 q 213 689 251 689 q 139 656 175 689 l 139 603 l 76 603 l 76 750 l 139 750 l 139 711 q 236 750 183 750 q 301 726 278 750 q 325 660 325 703 q 305 584 325 622 q 246 494 285 546 q 188 403 207 438 q 169 333 169 368 l 169 168 q 424 51 282 51 q 573 99 525 51 q 621 249 621 147 l 621 750 l 697 750 l 697 253 q 633 53 697 121 q 449 -14 569 -14 z "},"ธ":{"ha":722,"x_min":76,"x_max":646,"o":"m 367 -14 q 217 1 289 -14 q 90 36 144 15 l 90 324 l 163 324 l 163 85 q 361 51 258 51 q 519 88 467 51 q 571 207 571 124 q 545 311 571 275 q 476 363 519 347 q 338 400 432 379 q 195 436 242 421 q 113 488 149 451 q 76 589 76 524 q 153 723 76 682 q 372 764 229 764 q 503 753 435 764 q 614 728 572 743 l 614 660 q 504 687 568 676 q 383 697 440 697 q 208 676 268 697 q 149 590 149 654 q 171 528 149 551 q 229 494 193 506 q 340 464 265 482 q 372 458 358 461 q 397 451 386 454 q 533 408 483 431 q 614 339 582 386 q 646 207 646 292 q 572 40 646 94 q 367 -14 499 -14 z "},"ร":{"ha":697,"x_min":76,"x_max":621,"o":"m 333 -14 q 202 -5 265 -14 q 97 21 139 4 l 97 89 q 322 51 200 51 q 491 80 436 51 q 546 186 546 108 q 524 260 546 232 q 465 305 501 289 q 363 342 429 321 q 321 356 349 347 q 192 404 240 382 q 110 467 144 426 q 76 572 76 508 q 356 764 76 764 q 467 755 411 764 q 568 731 524 746 l 568 663 q 367 697 476 697 q 202 670 253 697 q 151 574 151 643 q 178 501 151 529 q 248 453 204 472 q 379 407 292 435 q 508 358 458 382 q 589 292 557 333 q 621 188 621 251 q 545 33 621 79 q 333 -14 469 -14 z "},"จ":{"ha":771,"x_min":76,"x_max":694,"o":"m 371 -14 q 285 -1 317 -14 l 160 332 l 76 332 l 81 397 l 210 397 l 339 51 q 371 50 350 50 q 494 85 438 50 q 585 195 550 119 q 619 385 619 271 q 591 566 619 499 q 498 665 563 633 q 322 697 433 697 q 88 663 190 697 l 88 728 q 343 764 199 764 q 610 668 525 764 q 694 385 694 572 q 652 167 694 257 q 536 31 610 76 q 371 -14 463 -14 z "},"ว":{"ha":681,"x_min":76,"x_max":604,"o":"m 271 -14 q 76 22 157 -14 l 76 88 q 253 51 165 51 q 421 85 361 51 q 504 189 481 119 q 528 375 528 258 q 463 620 528 543 q 247 697 399 697 q 76 661 160 697 l 76 728 q 159 755 117 746 q 261 764 201 764 q 520 667 436 764 q 604 375 604 569 q 528 83 604 181 q 271 -14 453 -14 z "},"ง":{"ha":776,"x_min":76,"x_max":700,"o":"m 393 -14 q 288 -1 319 -14 l 76 513 l 151 513 l 342 51 q 376 50 354 50 q 625 401 625 50 q 606 569 625 508 q 540 658 586 631 q 413 685 494 685 l 368 685 l 368 750 l 418 750 q 636 667 572 750 q 700 403 700 585 q 616 88 700 190 q 393 -14 532 -14 z "},"ฐ":{"ha":822,"x_min":76,"x_max":746,"o":"m 371 -14 q 285 -1 317 -14 l 160 332 l 76 332 l 81 397 l 210 397 l 339 51 q 371 50 350 50 q 494 85 438 50 q 585 195 550 119 q 619 385 619 271 q 591 566 619 499 q 498 665 563 633 q 322 697 433 697 q 88 663 190 697 l 88 728 q 343 764 199 764 q 465 750 406 764 l 746 750 l 742 685 l 588 685 q 694 385 694 593 q 652 167 694 257 q 536 31 610 76 q 371 -14 463 -14 m 506 -271 q 422 -253 460 -271 q 367 -210 385 -236 q 319 -253 351 -237 q 240 -269 288 -269 l 125 -269 l 131 -201 l 229 -201 q 296 -188 271 -201 q 342 -142 321 -175 l 388 -142 q 499 -204 424 -204 q 576 -178 553 -204 q 599 -93 599 -153 l 599 -56 l 675 -56 l 675 -100 q 631 -228 675 -185 q 506 -271 586 -271 z "},"ฉ":{"ha":783,"x_min":76,"x_max":679,"o":"m 322 -14 q 86 249 86 -14 l 86 417 l 163 417 l 163 244 q 203 97 163 142 q 349 51 244 51 q 603 168 493 51 l 603 490 q 577 613 603 568 q 494 677 551 657 q 340 697 438 697 q 206 686 281 697 q 76 657 131 675 l 76 722 q 209 752 131 740 q 361 764 288 764 q 601 697 522 764 q 679 490 679 631 l 679 0 l 613 0 l 606 99 q 481 15 549 44 q 322 -14 414 -14 z "},"ล":{"ha":803,"x_min":76,"x_max":699,"o":"m 319 -14 q 142 40 208 -14 q 76 203 76 93 q 146 367 76 308 q 358 426 215 426 l 622 426 l 622 500 q 601 616 622 574 q 531 678 581 658 q 393 697 482 697 q 157 663 261 697 l 157 728 q 410 764 265 764 q 631 700 563 764 q 699 497 699 636 l 699 0 l 622 0 l 622 361 l 364 361 q 201 323 253 361 q 150 203 150 285 q 197 88 150 124 q 340 51 243 51 q 435 63 394 51 l 435 -3 q 319 -14 386 -14 z "},"ส":{"ha":838,"x_min":76,"x_max":761,"o":"m 319 -14 q 142 40 208 -14 q 76 203 76 93 q 146 367 76 308 q 358 426 215 426 l 622 426 l 622 500 q 601 616 622 574 q 531 678 581 658 q 393 697 482 697 q 157 663 261 697 l 157 728 q 410 764 265 764 q 535 750 483 764 l 761 750 l 757 685 l 644 685 q 699 497 699 622 l 699 0 l 622 0 l 622 361 l 364 361 q 201 323 253 361 q 150 203 150 285 q 197 88 150 124 q 340 51 243 51 q 435 63 394 51 l 435 -3 q 319 -14 386 -14 z "},"บ":{"ha":838,"x_min":104,"x_max":733,"o":"m 419 -14 q 184 58 264 -14 q 104 274 104 131 l 104 750 l 181 750 l 181 264 q 419 51 181 51 q 657 264 657 51 l 657 750 l 733 750 l 733 274 q 653 59 733 132 q 419 -14 574 -14 z "},"ป":{"ha":838,"x_min":104,"x_max":733,"o":"m 419 -14 q 184 58 264 -14 q 104 274 104 131 l 104 750 l 181 750 l 181 264 q 419 51 181 51 q 657 264 657 51 l 657 972 l 733 972 l 733 274 q 653 59 733 132 q 419 -14 574 -14 z "},"ษ":{"ha":865,"x_min":104,"x_max":824,"o":"m 419 -14 q 184 58 264 -14 q 104 274 104 131 l 104 750 l 181 750 l 181 264 q 419 51 181 51 q 657 264 657 51 l 657 394 l 439 394 l 439 458 l 657 458 l 657 750 l 733 750 l 733 458 l 824 458 l 817 394 l 733 394 l 733 274 q 653 59 733 132 q 419 -14 574 -14 z "},"ย":{"ha":803,"x_min":76,"x_max":699,"o":"m 392 -14 q 158 42 239 -14 q 76 207 76 99 q 109 324 76 278 q 200 392 142 371 q 113 449 146 406 q 81 561 81 492 q 138 713 81 661 q 289 764 196 764 q 399 750 347 764 l 399 685 q 304 697 360 697 q 157 561 157 697 q 322 424 157 424 l 403 424 l 410 363 l 318 363 q 194 322 238 363 q 151 207 151 282 q 390 51 151 51 q 565 99 507 51 q 622 244 622 146 l 622 750 l 699 750 l 699 289 q 629 61 699 136 q 392 -14 560 -14 z "},"ผ":{"ha":885,"x_min":104,"x_max":781,"o":"m 104 621 q 137 714 104 678 q 225 750 169 750 l 331 750 l 333 685 l 254 685 q 197 666 215 685 q 179 606 179 647 l 179 101 l 419 521 l 465 521 l 706 101 l 706 750 l 781 750 l 781 0 l 696 0 l 443 443 l 189 0 l 104 0 l 104 621 z "},"ฝ":{"ha":885,"x_min":104,"x_max":781,"o":"m 104 621 q 137 714 104 678 q 225 750 169 750 l 331 750 l 333 685 l 254 685 q 197 666 215 685 q 179 606 179 647 l 179 101 l 419 521 l 465 521 l 706 101 l 706 972 l 781 972 l 781 0 l 696 0 l 443 443 l 189 0 l 104 0 l 104 621 z "},"ฟ":{"ha":982,"x_min":63,"x_max":967,"o":"m 63 750 l 140 750 l 281 99 l 460 668 l 460 750 l 517 750 l 704 99 l 890 972 l 967 972 l 751 0 l 668 0 l 499 583 l 315 0 l 232 0 l 63 750 z "},"พ":{"ha":982,"x_min":63,"x_max":919,"o":"m 63 750 l 140 750 l 281 99 l 460 668 l 460 750 l 517 750 l 704 99 l 843 750 l 919 750 l 751 0 l 668 0 l 499 583 l 315 0 l 232 0 l 63 750 z "},"ห":{"ha":813,"x_min":104,"x_max":715,"o":"m 104 750 l 181 750 l 181 497 l 460 497 q 599 538 558 497 q 639 661 639 578 l 639 750 l 715 750 l 715 661 q 590 465 715 501 q 683 397 660 444 q 706 271 706 350 l 706 0 l 629 0 l 629 265 q 613 367 629 331 q 560 417 597 403 q 453 432 522 432 l 181 432 l 181 0 l 104 0 l 104 750 z "},"ฬ":{"ha":982,"x_min":63,"x_max":967,"o":"m 63 750 l 140 750 l 282 99 l 460 613 l 460 694 l 517 694 l 701 99 l 817 628 q 825 686 825 664 q 806 738 825 722 q 744 753 788 753 l 689 753 l 699 815 l 753 815 q 840 836 813 815 q 879 911 868 857 l 892 972 l 967 972 l 951 904 q 913 817 939 846 q 847 781 888 788 q 899 689 899 758 q 892 632 899 667 l 751 0 l 668 0 l 499 532 l 314 0 l 232 0 l 63 750 z "},"อ":{"ha":765,"x_min":76,"x_max":689,"o":"m 351 -14 q 203 1 275 -14 q 76 36 131 15 l 76 406 l 329 406 l 333 340 l 153 340 l 153 85 q 347 51 249 51 q 503 83 444 51 q 588 185 561 115 q 614 374 614 256 q 587 565 614 496 q 497 666 560 635 q 325 697 435 697 q 88 663 192 697 l 88 728 q 346 764 193 764 q 609 669 529 764 q 689 374 689 575 q 609 82 689 178 q 351 -14 529 -14 z "},"ฮ":{"ha":810,"x_min":76,"x_max":733,"o":"m 351 -14 q 203 1 275 -14 q 76 36 131 15 l 76 406 l 329 406 l 333 340 l 153 340 l 153 85 q 347 51 249 51 q 503 83 444 51 q 588 185 561 115 q 614 374 614 256 q 587 565 614 496 q 497 666 560 635 q 325 697 435 697 q 88 663 192 697 l 88 728 q 346 764 193 764 q 471 750 411 764 l 733 750 l 729 685 l 588 685 q 665 561 642 638 q 689 374 689 485 q 609 82 689 178 q 351 -14 529 -14 z "},"า":{"ha":604,"x_min":35,"x_max":500,"o":"m 424 496 q 408 612 424 569 q 351 676 393 654 q 226 697 308 697 q 129 688 182 697 q 35 663 76 679 l 35 728 q 131 754 76 744 q 240 764 186 764 q 438 703 376 764 q 500 503 500 642 l 500 0 l 424 0 l 424 496 z "},"ำ":{"ha":604,"x_min":-281,"x_max":500,"o":"m -146 835 q -242 873 -203 835 q -281 967 -281 911 q -242 1060 -281 1022 q -146 1099 -203 1099 q -51 1060 -90 1099 q -12 967 -12 1022 q -51 873 -12 911 q -146 835 -90 835 m -146 889 q -91 912 -114 889 q -68 967 -68 935 q -91 1022 -68 999 q -146 1044 -114 1044 q -202 1022 -179 1044 q -225 967 -225 999 q -202 912 -225 935 q -146 889 -179 889 m 424 496 q 408 612 424 569 q 351 676 393 654 q 226 697 308 697 q 129 688 182 697 q 35 663 76 679 l 35 728 q 131 754 76 744 q 240 764 186 764 q 438 703 376 764 q 500 503 500 642 l 500 0 l 424 0 l 424 496 z "},"ๅ":{"ha":604,"x_min":35,"x_max":500,"o":"m 424 496 q 408 612 424 569 q 351 676 393 654 q 226 697 308 697 q 129 688 182 697 q 35 663 76 679 l 35 728 q 131 754 76 744 q 240 764 186 764 q 438 703 376 764 q 500 503 500 642 l 500 -222 l 424 -222 l 424 496 z "},"ะ":{"ha":447,"x_min":76,"x_max":371,"o":"m 76 615 l 144 615 l 144 547 l 371 547 l 368 485 l 76 485 l 76 615 m 76 226 l 144 226 l 144 157 l 371 157 l 368 96 l 76 96 l 76 226 z "},"เ":{"ha":397,"x_min":104,"x_max":321,"o":"m 224 0 q 135 34 167 0 q 104 126 104 68 l 104 750 l 181 750 l 181 140 q 199 83 181 101 q 253 64 217 64 l 321 64 l 321 0 l 224 0 z "},"แ":{"ha":689,"x_min":104,"x_max":613,"o":"m 224 0 q 135 34 167 0 q 104 126 104 68 l 104 750 l 181 750 l 181 140 q 199 83 181 101 q 253 64 217 64 l 314 64 l 314 0 l 224 0 m 522 0 q 434 34 465 0 q 403 126 403 68 l 403 750 l 479 750 l 479 171 q 494 88 479 113 q 551 64 508 64 l 613 64 l 613 0 l 522 0 z "},"ไ":{"ha":396,"x_min":14,"x_max":361,"o":"m 249 0 q 160 34 192 0 q 129 126 129 68 l 129 646 q 166 799 129 735 q 265 900 203 863 l 14 900 l 14 964 l 361 964 l 361 897 q 242 796 279 860 q 206 626 206 732 l 206 140 q 224 83 206 101 q 278 64 242 64 l 346 64 l 346 0 l 249 0 z "},"ใ":{"ha":386,"x_min":7,"x_max":351,"o":"m 206 0 q 117 34 149 0 q 86 126 86 68 l 86 488 q 103 582 86 542 q 142 649 119 622 q 203 710 165 675 q 258 766 240 743 q 275 818 275 789 q 249 885 275 867 q 164 903 222 903 q 7 860 83 903 l 7 922 q 91 956 44 944 q 182 968 138 968 q 310 931 268 968 q 351 822 351 893 q 331 749 351 779 q 267 681 310 719 q 189 594 215 635 q 163 489 163 554 l 163 140 q 181 83 163 101 q 235 64 199 64 l 303 64 l 303 0 l 206 0 z "},"โ":{"ha":417,"x_min":14,"x_max":382,"o":"m 285 0 q 197 34 228 0 q 165 126 165 68 l 165 643 q 151 767 165 722 q 106 840 138 813 q 14 896 75 868 l 14 964 l 369 964 l 369 900 l 113 900 q 191 841 164 872 q 230 759 218 810 q 242 624 242 708 l 242 171 q 256 88 242 113 q 314 64 271 64 l 382 64 l 382 0 l 285 0 z "},"ℊ":{"ha":783,"x_min":76,"x_max":679,"o":"m 386 -244 q 301 -240 349 -244 q 228 -231 253 -236 l 228 -164 q 297 -176 256 -172 q 372 -181 339 -181 q 540 -137 478 -181 q 603 -11 603 -94 l 603 68 q 501 16 554 32 q 376 0 447 0 q 153 78 231 0 q 76 328 76 156 q 152 588 76 504 q 371 672 228 672 q 503 651 446 672 q 608 583 560 629 l 615 658 l 679 658 l 679 -4 q 599 -179 679 -114 q 386 -244 518 -244 m 396 63 q 603 136 521 63 l 603 519 q 389 608 519 608 q 208 540 264 608 q 151 328 151 471 q 210 124 151 185 q 396 63 269 63 z "},"⁄":{"ha":165,"x_min":-174,"x_max":339,"o":"m 264 919 l 339 919 l -97 0 l -174 0 l 264 919 z "},"½":{"ha":854,"x_min":76,"x_max":778,"o":"m 182 853 l 76 829 l 76 876 l 238 908 l 238 514 l 182 514 l 182 853 m 621 894 l 693 894 l 215 0 l 143 0 l 621 894 m 519 36 q 562 96 536 69 q 633 160 588 122 q 701 225 685 201 q 717 281 717 249 q 697 330 717 314 q 632 346 676 346 q 533 329 586 346 l 533 376 q 584 389 553 383 q 643 394 615 394 q 740 363 706 394 q 775 281 775 331 q 756 213 775 240 q 688 143 738 186 l 661 121 q 624 85 642 104 q 593 47 606 67 l 778 47 l 778 0 l 519 0 l 519 36 z "},"⅓":{"ha":871,"x_min":76,"x_max":794,"o":"m 182 853 l 76 829 l 76 876 l 238 908 l 238 514 l 182 514 l 182 853 m 621 894 l 693 894 l 215 0 l 143 0 l 621 894 m 638 -14 q 578 -9 608 -14 q 533 3 549 -4 l 533 49 q 629 32 579 32 q 711 49 688 32 q 735 103 735 65 q 710 153 735 138 q 636 169 686 169 l 588 169 l 593 214 l 631 214 q 703 231 681 214 q 726 285 726 247 q 705 332 726 318 q 631 346 683 346 q 540 331 592 346 l 540 376 q 585 388 557 383 q 640 392 613 392 q 752 365 718 392 q 786 286 786 338 q 769 227 786 253 q 718 192 753 201 q 794 101 794 176 q 638 -14 794 -14 z "},"⅔":{"ha":889,"x_min":76,"x_max":813,"o":"m 76 550 q 118 610 92 583 q 190 674 144 638 q 257 739 240 715 q 274 794 274 763 q 253 844 274 828 q 189 860 233 860 q 90 843 140 860 l 90 890 q 141 903 110 897 q 200 908 172 908 q 297 876 263 908 q 331 794 331 844 q 312 727 331 754 q 243 657 293 700 l 217 635 q 179 599 197 618 q 149 561 161 581 l 335 561 l 335 514 l 76 514 l 76 550 m 638 894 l 711 894 l 233 0 l 161 0 l 638 894 m 654 -14 q 597 -9 626 -14 q 550 3 567 -4 l 550 49 q 646 32 596 32 q 728 49 704 32 q 753 103 753 65 q 728 153 753 138 q 653 169 704 169 l 606 169 l 611 214 l 649 214 q 722 231 699 214 q 744 285 744 247 q 722 332 744 318 q 649 346 700 346 q 557 331 608 346 l 557 376 q 602 388 574 383 q 657 392 631 392 q 769 365 735 392 q 803 286 803 338 q 787 227 803 253 q 736 192 771 201 q 813 101 813 176 q 773 15 813 44 q 654 -14 733 -14 z "},"¼":{"ha":856,"x_min":76,"x_max":779,"o":"m 182 853 l 76 829 l 76 876 l 238 908 l 238 514 l 182 514 l 182 853 m 621 894 l 693 894 l 215 0 l 143 0 l 621 894 m 681 86 l 465 86 l 465 133 l 669 394 l 736 394 l 736 132 l 779 132 l 779 86 l 736 86 l 736 0 l 681 0 l 681 86 m 690 132 l 690 351 l 519 132 l 690 132 z "},"¾":{"ha":875,"x_min":76,"x_max":799,"o":"m 181 503 q 122 507 151 503 q 76 518 92 511 l 76 564 q 172 547 122 547 q 254 564 231 547 q 278 619 278 581 q 253 670 278 654 q 179 686 229 686 l 131 686 l 136 729 l 174 729 q 247 746 224 729 q 269 800 269 763 q 247 848 269 833 q 174 863 225 863 q 83 847 126 863 l 83 893 q 129 903 101 899 q 183 908 157 908 q 329 803 329 908 q 313 744 329 769 q 261 707 296 718 q 338 618 338 692 q 181 503 338 503 m 639 894 l 711 894 l 235 0 l 163 0 l 639 894 m 700 86 l 485 86 l 485 133 l 688 394 l 756 394 l 756 132 l 799 132 l 799 86 l 756 86 l 756 0 l 700 0 l 700 86 m 708 132 l 708 351 l 539 132 l 708 132 z "},"⅛":{"ha":879,"x_min":76,"x_max":803,"o":"m 182 853 l 76 829 l 76 876 l 238 908 l 238 514 l 182 514 l 182 853 m 621 894 l 693 894 l 215 0 l 143 0 l 621 894 m 651 -14 q 542 14 583 -14 q 500 93 500 42 q 522 157 500 131 q 582 192 543 183 q 511 285 511 213 q 549 363 511 333 q 651 392 586 392 q 755 363 718 392 q 792 285 792 333 q 719 190 792 213 q 782 155 761 181 q 803 93 803 129 q 762 14 803 42 q 651 -14 721 -14 m 675 214 q 723 238 708 222 q 738 285 738 254 q 715 332 738 315 q 651 349 693 349 q 588 332 610 349 q 565 285 565 315 q 639 217 565 224 l 675 214 m 651 28 q 722 44 697 28 q 747 93 747 61 q 724 145 747 129 q 651 165 701 161 l 639 165 q 608 163 628 165 q 569 137 582 153 q 557 94 557 121 q 581 44 557 61 q 651 28 606 28 z "},"⅜":{"ha":881,"x_min":76,"x_max":804,"o":"m 181 503 q 122 507 151 503 q 76 518 92 511 l 76 565 q 172 549 122 549 q 254 565 231 549 q 278 619 278 581 q 253 670 278 654 q 179 686 229 686 l 131 686 l 136 729 l 174 729 q 247 746 224 729 q 269 800 269 763 q 248 848 269 835 q 174 861 226 861 q 83 846 126 861 l 83 893 q 129 903 101 899 q 183 908 157 908 q 329 803 329 908 q 313 744 329 769 q 261 707 296 718 q 338 618 338 692 q 181 503 338 503 m 622 894 l 694 894 l 218 0 l 146 0 l 622 894 m 653 -14 q 543 14 585 -14 q 501 93 501 42 q 523 157 501 131 q 583 192 544 183 q 513 285 513 213 q 550 363 513 333 q 653 392 588 392 q 756 363 719 392 q 793 285 793 333 q 721 190 793 213 q 783 155 763 181 q 804 93 804 129 q 763 14 804 42 q 653 -14 722 -14 m 676 214 q 724 238 710 222 q 739 285 739 254 q 717 332 739 315 q 653 349 694 349 q 589 332 611 349 q 567 285 567 315 q 640 217 567 224 l 676 214 m 653 28 q 724 44 699 28 q 749 93 749 61 q 726 145 749 129 q 653 165 703 161 l 640 165 q 610 163 629 165 q 571 137 583 153 q 558 94 558 121 q 583 44 558 61 q 653 28 607 28 z "},"⅝":{"ha":858,"x_min":76,"x_max":782,"o":"m 178 503 q 122 507 150 503 q 76 517 93 511 l 76 567 q 172 550 115 550 q 256 567 229 550 q 282 625 282 583 q 262 681 282 665 q 188 696 242 696 l 76 696 l 76 742 l 86 894 l 311 894 l 307 846 l 135 846 l 129 740 l 204 740 q 308 711 275 740 q 340 624 340 682 q 299 535 340 567 q 178 503 258 503 m 600 894 l 674 894 l 196 0 l 124 0 l 600 894 m 632 -14 q 522 14 563 -14 q 481 93 481 42 q 501 157 481 131 q 561 192 522 183 q 492 285 492 213 q 528 363 492 333 q 632 392 565 392 q 734 363 697 392 q 771 285 771 333 q 700 190 771 213 q 762 156 742 181 q 782 93 782 131 q 741 14 782 42 q 632 -14 700 -14 m 656 214 q 703 238 689 222 q 717 285 717 254 q 694 332 717 315 q 632 349 672 349 q 568 332 590 349 q 546 285 546 315 q 618 217 546 224 l 656 214 m 632 28 q 701 44 676 28 q 726 93 726 61 q 704 145 726 129 q 632 165 682 161 l 619 165 q 589 163 608 165 q 549 137 563 153 q 536 94 536 121 q 561 44 536 61 q 632 28 586 28 z "}}}
